<svg id="Capa_1" data-name="Capa 1" xmlns="http://www.w3.org/2000/svg" viewBox="0 0 50.16 43.2"><defs><style>.cls-1{fill:#f7b731;fill-rule:evenodd;}</style></defs><path class="cls-1" d="M23,18.72c.4,3.05,0,4.79,1,8.4,1-.24.72.72,1.68.48,2.17-1.19.49-8.84.24-12.72h-1.2c-.95,1.06-.3,2.25-1.44,3.12C24.07,18.27,23.69,18.73,23,18.72Z"/><path class="cls-1" d="M44.88,30.72c-1.28.11-1.15-2.91-2.88-3.12.4-1.1,1,.4,1.44.72-1.1-1.69-1.4-2.71-2.48-3.89-.05,0-.07-.05-.1-.12l-.3-.31a.53.53,0,0,1,.3.31l.1.12c.06,0,.15,0,.32-.19-1-.36-.82-1.9-2.16-1.92-.1-.58.44-.52.24-1.2-2.35-2.9-3.26-6.31-6.24-8.64.39-.07.41.23.72.24A92.46,92.46,0,0,0,25.92,0h-1.2C16.06,13.07,8.28,27.27,0,41.28v1c1.8,1.22,7.38.72,10.8.72,4.14,0,8.06-.24,11,.24h.24c9.41-1,19.3.15,28.08-.72C49.21,37.48,45.76,35.09,44.88,30.72ZM3.12,40.8c1.92-4,4.46-5.91,6.24-10.08.39-.07.41.23.72.24-.08-1,.63-2.56,1.68-2.4-.63.09-.25-.64-.48-1,.22-.58,1-.63,1.68-.72.23-1.29,0-1.05.24-2.16.26.06.16.48.48.48-.15-.82,1.12-1.19.48-2.4.84.45.79-.18,1.44-.48a.65.65,0,0,1,0-1,.31.31,0,0,1,.14.06,17.79,17.79,0,0,0,3.46-7c.28,0,.2.44.24.72,2.11-3,3.7-6.54,5.76-9.6C32.87,17,39.11,28.84,47,40.32,33.7,41.15,19,40.61,3.12,40.8Z"/><path class="cls-1" d="M15.74,21.42c-.05.06-.09.13-.14.18C15.7,21.6,15.8,21.5,15.74,21.42Z"/><path class="cls-1" d="M26.16,31.2a3.43,3.43,0,0,0-2.4-.48c-1,.44-.54,3.51.48,4.56A2.45,2.45,0,0,0,26.4,35C26.35,33.73,26.57,32.16,26.16,31.2Z"/></svg>