<?xml version="1.0" encoding="utf-8"?>
<!-- Generator: Adobe Illustrator 24.2.3, SVG Export Plug-In . SVG Version: 6.00 Build 0)  -->
<svg version="1.1" id="Capa_1" xmlns="http://www.w3.org/2000/svg" xmlns:xlink="http://www.w3.org/1999/xlink" x="0px" y="0px"
	 viewBox="0 0 55 54.8" style="enable-background:new 0 0 55 54.8;" xml:space="preserve">
<style type="text/css">
	.st0{fill-rule:evenodd;clip-rule:evenodd;fill:#505050;}
</style>
<path class="st0" d="M24.5,0.1c-1.6,0.1-3.2,0.4-4.8,0.7c-1.9,0.5-3.4,2.1-5.3,1.9c-0.7,1.5-2.6,1.1-3.6,3.4c-0.8-0.9,1-1.3,1.2-1.9
	C10,6,8.1,6.4,7.7,8.8C6.8,8.8,8.2,8,7.4,8C7.1,9.1,5.7,9.2,6,10.9c-1.9-0.4-1.8,2.9-3.4,3.6C2,17.9,0.3,19.8,1,23.1
	c-0.4,0-0.1-0.7-0.5-0.7c-0.6,0.8,0.2,1.8-0.2,2.4H0v3.8c2.1,14.9,10.6,23.7,25.9,26.2H30c8.3-0.6,15.9-6,20.6-12.2
	C62.5,23.7,49.1-1.9,24.5,0.1z M23.3,51.7c-2.2-1-4.4-1.9-6.7-2.6c0.2-0.7-0.3-0.6-0.2-1.2c-1.4,1.2-2.5-1.6-3.4-2.4
	c-1.1,0.4,0.4,0.4-0.2,1c-0.7,0-0.7-1.2-0.5-1.4c-0.7-1.1-1.5-0.6-2.4-1.4c0.1-0.3,0.3,0.1,0.7,0c-0.9-0.6-0.8-1.4-2.4-1.7
	c0.2-2-1.3-3.2-2.4-5.3c-1-1.7-0.7-3.8-2.2-6c1.1,1.2,0.2-4,0.2-6C4,20,7,15.6,8.6,11.9c2.2-1.5,3.8-3.6,5.8-5.3
	C17,5.2,19.8,4.6,22.6,3c9-1.5,19.5,2.3,25,8.4c3.6,5.7,6.7,12.4,5,20.4C49.9,44.4,37.5,54.5,23.3,51.7z"/>
<path class="st0" d="M32.4,24.4l2.9-2.9c2.3-2.3,4-3.5,5-6.2c-0.3-0.1-0.5-0.3-0.7-0.5c-3.5,1.1-5.3,5.2-8.1,6.2
	c-0.7,1.7-1.9,1.7-3.1,3.1c-1.7,0.1-0.8-1.3-2.4-1c0.1-0.3,0.3-0.5,0.2-1c-2.9-1.9-4.5-5.3-7.4-6c0-0.4,0.7-0.1,0.7-0.5
	c-1.1-1.2-3-2.9-4.6-1c0.2,3.5,3.3,5,5.5,7.2c2,2,3.5,3.7,5.3,5.3c-3.8,3.4-7.1,7.1-10.6,10.3c-0.2,1.4,0.3,2.5,1.4,2.6
	c1.3,0.2,1.9-1.6,2.6-2.4c0.3-0.3,1.1-0.4,1.4-0.7c2.7-2.5,5.4-6.9,7.7-8.2c2.2,3,5.6,5.5,8.2,8.2c0.9,0.9,2.2,3.4,3.8,1.9
	c-0.8-2.4-2.2-3.8-4.1-5.5c-1.1-1-2.1-1.9-3.4-3.1c-0.5-0.5-3.4-2.6-3.4-3.4C29.5,26.6,32,24.8,32.4,24.4z"/>
</svg>
