<svg id="Capa_1" data-name="Capa 1" xmlns="http://www.w3.org/2000/svg" viewBox="0 0 54.7 54.7"><defs><style>.cls-1{fill:#f7b731;fill-rule:evenodd;}</style></defs><path class="cls-1" d="M50.2,24.6c-.8-.5-1.6-1.5-2.6-2.2a18.4,18.4,0,0,1-3.4-2.6c-.4.6-2.8-1.9-3.6-1.7.2-.8,1.9.7,1.2,0a1,1,0,0,0-1.4-.3h-.1c-.1-1.9-1.6-1.3-2.6-1.9.3,0,.6-.1.5-.5-1.4.7-1.3-1.5-2.9-.5-.7-2.8-5.7-3.5-7-5.3H27.1c-1.3.9-1.1,2.7-.7,3.6-.5-.2-.2-.7-.7-.2.1,1.9.1,4.7.2,6.7-6.7.2-15.4.6-21.6.5-2,0-4.2-.4-4.3,1.4v12a5.09,5.09,0,0,1,.7,1.7c10.1,0,15.2-.6,25.9-.5.4,3.2-1,8.4,1,10.1,6.2-3.5,13.9-8.2,20.6-12.5,1.3-.8,6.5-3.3,6.5-4.8S51.6,25.5,50.2,24.6Z"/></svg>