<?xml version="1.0" encoding="utf-8"?>
<!-- Generator: Adobe Illustrator 24.2.3, SVG Export Plug-In . SVG Version: 6.00 Build 0)  -->
<svg version="1.1" id="Capa_1" xmlns="http://www.w3.org/2000/svg" xmlns:xlink="http://www.w3.org/1999/xlink" x="0px" y="0px"
	 viewBox="0 0 54.7 35.3" style="enable-background:new 0 0 54.7 35.3;" xml:space="preserve">
<style type="text/css">
	.st0{fill-rule:evenodd;clip-rule:evenodd;fill:#F7B731;}
</style>
<path class="st0" d="M50.2,14.9c-0.8-0.5-1.6-1.5-2.6-2.2c-1.8-1.2-2.9-2-3.4-2.6c-0.4,0.6-2.8-1.9-3.6-1.7c0.2-0.8,1.9,0.7,1.2,0
	c-0.3-0.5-0.9-0.6-1.4-0.3c0,0,0,0-0.1,0c-0.1-1.9-1.6-1.3-2.6-1.9c0.3,0,0.6-0.1,0.5-0.5c-1.4,0.7-1.3-1.5-2.9-0.5
	c-0.7-2.8-5.7-3.5-7-5.3h-1.2c-1.3,0.9-1.1,2.7-0.7,3.6c-0.5-0.2-0.2-0.7-0.7-0.2c0.1,1.9,0.1,4.7,0.2,6.7
	c-6.7,0.2-15.4,0.6-21.6,0.5c-2,0-4.2-0.4-4.3,1.4v12c0.3,0.5,0.6,1.1,0.7,1.7c10.1,0,15.2-0.6,25.9-0.5c0.4,3.2-1,8.4,1,10.1
	c6.2-3.5,13.9-8.2,20.6-12.5c1.3-0.8,6.5-3.3,6.5-4.8S51.6,15.8,50.2,14.9z"/>
</svg>
