<svg id="Capa_1" data-name="Capa 1" xmlns="http://www.w3.org/2000/svg" viewBox="0 0 46.75 46.92"><defs><style>.cls-1{fill:#f7b731;fill-rule:evenodd;}</style></defs><path class="cls-1" d="M36.31,18.61c.48-1.59,1.86-2.72,1.68-4.8-.26-3-3-5.05-5.52-5.52h-1c-3,.91-5.38,3.7-4.56,7.2C27.82,19.21,33.46,19.6,36.31,18.61Zm-3.12-7c-.11,1.47,1.85,3.24-.24,4.56A15.1,15.1,0,0,1,29.83,16C27.83,13.59,30.72,9.56,33.19,11.65Z" transform="translate(-8.23 -8.29)"/><path class="cls-1" d="M54.07,40.21c-3-3.4-8.88,1.35-11.76,1.44-.49,0-.67-.32-1-.24a7,7,0,0,1-3.12,1.2c-.2-.45-.31-1-.72-1.2-.8.07-1.2.83-1.68,0,.39.07.64-.33.24-.48-.75.91-1.2-.9-2.16.48a1.41,1.41,0,0,0-.24-1c-2.2-.56-6.21.24-7.68-1.44,0-.38.61-.19.48-.72a9.92,9.92,0,0,0-6.72-2.16c-.67-3.75-7.44-1-10.08-1.92-.75.21-.71,1.21-1.44,1.44V52.21c2.09,2.61,7.22,1,10.32,1.2.28-.36.29-1,.71-1.2a6.29,6.29,0,0,0,2.64.72,21.16,21.16,0,0,0,12,2.16c6-.6,14.65-5,18.48-7.92C54.72,45.41,55.91,42.29,54.07,40.21ZM16.87,51c-2.34.21-4.16-1-4.8-.72-.2-4.79-.34-8.77-.48-12.72a16.16,16.16,0,0,0,5-.48A96.58,96.58,0,0,1,16.87,51Zm27.36-2.4a1.08,1.08,0,0,0-1.44.24c.21.71.36-.56,1-.24,0,.47-.66.3-.48,1-.18-.39-1.18,0-1-.72-1.18.91-1.89.53-2.4,1.92a7,7,0,0,0-6,1.92c-.3-.06-.24-.48,0-.48-5.48-.19-9.49-.65-14.16-3.12-.27-3.82.09-5.64-.24-9.36C23,39.4,24.73,40.9,25,43.09c3,.38,6.81-.17,9.6.72,1.47.46,2.74,1.56,5.52,1.2,4.26-.56,6.85-3.61,11.76-3.84.16.47.73.55,1,1C52.14,47,46.94,46.59,44.23,48.61Z" transform="translate(-8.23 -8.29)"/><path class="cls-1" d="M26.71,23.89c-.9.07-.41,1.85,0,2.88-.48,0-.31.65-1,.48-.32.6.94.75.24,1-.42-.48-.86.83-.48,1.44-1.56.92-1.08.83-1.68,2.88,1.35.88,2,3.54,4.32,2.64,0,.35-1,.76,0,.72,2.12-.18,2.12-3.65.24-4.08.06-.89.27-1.65,1-1.92,2.81.27,5.74-1.74,6.48,1.92-1.67.54-1.35,2.78-1,3.6,2.18.17,4.58-1.39,4.8-3.12.18-1.51-1.69-3-2.16-4.8-.57-2.2,0-3.52-.24-4.8,1.45-.53,4.86-.79,5.76-2.64.1-.82-.72-.72-1-1.2-4,1.15-8.41,3-13.92,2.16-2.16-.34-4.34-2.19-6.72-1.92-.11.46-.69.43-.48,1.2C22.56,22.29,25.56,21.42,26.71,23.89Zm2.4-1c1.23-.19,1.57.5,2.64.48-.8.95,1-.29.24.72.57-.15,1.74.3,1.92-.24.72.65.23,1,.47,2.16-1.59,1.23-2.73.67-5.28.72C29.11,25.49,29.11,24.21,29.11,22.93Z" transform="translate(-8.23 -8.29)"/></svg>