<svg id="Capa_1" data-name="Capa 1" xmlns="http://www.w3.org/2000/svg" viewBox="0 0 43.25 54.86"><defs><style>.cls-1{fill:#f7b731;fill-rule:evenodd;}</style></defs><path class="cls-1" d="M43,17.18A21.45,21.45,0,0,0,19.2.14c-3.54.38-5.11,1.52-8.64,2.4-.77,1.2-1.8,1.58-3.36,3.12,0-.84.81-.79,1-1.44-1.63.68-.53,1.36-2.4,1.68C5.35,8.66,3.5,7.46,3.84,10.46c-.6,0-.74-.45-1.2,0-.57,2-2.18,4.74-2.4,7.44C.15,19,1.05,20.92.48,21c0-.29-.27-.15-.48,0v.48c.56.74.27,2.12.48,2.88A37.68,37.68,0,0,0,5.28,34.7c.81,1.31,2.19,2.64,2.88,3.6.28.4.18,1,.48,1.44a135.89,135.89,0,0,0,13,15.12h1a83.56,83.56,0,0,0,8.4-9.6c1.54-2.12,2.64-4.44,4.08-6.48C39.17,33,44.56,26.08,43,17.18ZM39.6,27.26C35.69,36.35,27.56,45,22.32,51.5c-4.38-3.36-5.75-8.64-10.08-11.76.28-1,1.13.08,1.44.48-1-1.27-1.33-3-2.88-3.12,0-.27.24-.13.24,0,.19-.05.24-.24.48-.24-.91-.29-.66-1.74-2.16-1.44.08-.31.42-.38.48-.72-2-2.93-3-5.9-5.28-8.16.39-.07.41.23.72.24-.34-1.68-1.25-3.28-1.44-5-.41-3.91,1.9-7.47,2.64-10.8,3.77-4.11,8.37-8.12,15.12-8.16s12.25,3.44,16.08,7.44C40.23,15,42.31,21,39.6,27.26Z"/><path class="cls-1" d="M31.2,28.22c-3.92-1.17-5.82,4.06-2.88,6.24-.18.87-1.07,2.35-1.2,1.2-.31,1.62-1.76,1.46-3.36,2.16-.65-1.51-2-1-2.64-1.68.48-.08-.87-1.51-1.44-1.44,1.22-1.39-.22-3.83.48-6.24,1.19,1,2.46-1.71,3.12-2.16A1.11,1.11,0,0,1,23,27c4.32-2.1,2.38-9.45,2.88-14.16-.54-2-3.79-2-5.28-.72-.2,1.14-.2,2.72,1.68,2.88-.27,1.7.65,4.39.24,6.48a6.82,6.82,0,0,1-3,4c.16-.15-2.11,0-1.76,0-3.93-.37-4.62-5.71-4.08-10.8A2.2,2.2,0,0,0,15.6,13.1,3.2,3.2,0,0,0,11,12.38c-.59,6.9-.72,14.77,5.76,15.84.39,3.89-.58,7,1.68,9.6A7.38,7.38,0,0,0,31.2,34C34.12,33.07,33,28.76,31.2,28.22ZM30,32.06a1.55,1.55,0,0,1,.24-1.2C31.15,30.68,30.76,32.42,30,32.06Z"/></svg>