<svg id="Capa_1" data-name="Capa 1" xmlns="http://www.w3.org/2000/svg" viewBox="0 0 54.72 35.28"><defs><style>.cls-1{fill:#f7b731;fill-rule:evenodd;}</style></defs><path class="cls-1" d="M50.16,14.88c-.78-.51-1.63-1.48-2.64-2.16-1.84-1.23-2.94-2-3.36-2.64-.42.59-2.76-1.88-3.6-1.68.19-.83,1.87.7,1.2,0a1,1,0,0,0-1.44-.24c-.06-1.95-1.6-1.28-2.64-1.92.29,0,.57-.07.48-.48-1.39.71-1.27-1.48-2.88-.48-.67-2.8-5.66-3.46-7-5.28h-1.2C25.82.88,26,2.74,26.4,3.6c-.45-.18-.17-.72-.72-.24.13,1.94.07,4.71.24,6.72-6.66.2-15.43.61-21.6.48C2.27,10.52.15,10.13,0,12V24a4.75,4.75,0,0,1,.72,1.68c10.08,0,15.18-.6,25.92-.48.43,3.25-1,8.35,1,10.08,6.15-3.51,13.87-8.21,20.64-12.48,1.32-.83,6.54-3.27,6.48-4.8S51.61,15.83,50.16,14.88ZM29,32.16c-1.16-3.45,2.34-10.85-3.36-9.36-.77.21-.33-.79-1-.72.44.54-2,.87-2.16,0,.17.56-.68.29-1.2.72-.14-1.24-.34-.05-2.16-1-.15.25-.14.83-1.2.72,1.26-.83-1.62-.66-1.92.24-.42-1.06-1.22-.92-2.16-.48-2-.63-5.48-.32-8.16.48,1.17-1.12-1.1-.4-2.16-.72,0-2.6-.09-5.76,0-8.16,1-.06,2.31.23,2.64-.48,4.41.73,9.27.25,14.4,0,0,0,0,.48,0,.48,2.63-.56,6.09.71,8.64-1.2.22-2.31-.13-5.24,0-8.16C36.78,8.9,44.07,13.46,51.36,18,44.34,23.14,36.36,27.32,29,32.16Z"/></svg>