<?xml version="1.0" encoding="utf-8"?>
<!-- Generator: Adobe Illustrator 24.2.3, SVG Export Plug-In . SVG Version: 6.00 Build 0)  -->
<svg version="1.1" id="Capa_1" xmlns="http://www.w3.org/2000/svg" xmlns:xlink="http://www.w3.org/1999/xlink" x="0px" y="0px"
	 viewBox="0 0 201 355.1" style="enable-background:new 0 0 201 355.1;" xml:space="preserve">
<style type="text/css">
	.st0{fill:#2D282A;}
	.st1{fill:#1A1617;}
	.st2{fill:#1F1A1C;}
	.st3{fill:#FED330;}
	.st4{fill:#F8A3A0;}
	.st5{fill:#483139;}
	.st6{fill:#5C4147;}
	.st7{fill:#F7A4A3;}
	.st8{fill:#EBC52F;}
	.st9{fill:#FCA1A3;}
	.st10{fill:#FBA4AC;}
	.st11{fill:#2A2526;}
	.st12{fill:#BF6A65;}
	.st13{fill:#E1EAEB;}
	.st14{fill:#191416;}
	.st15{fill:#DB7273;}
	.st16{fill:#EFA19D;}
	.st17{fill:#1CA55A;}
	.st18{fill:#2F281F;}
	.st19{fill:#FAA2AB;}
	.st20{fill:#26DE81;}
	.st21{fill:#F7FEFE;}
	.st22{fill:#2E272E;}
	.st23{fill:#1E181A;}
	.st24{fill:#312820;}
	.st25{fill:#FBF6F5;}
	.st26{fill:#292A25;}
	.st27{fill:#3A232A;}
	.st28{fill:#252B2E;}
	.st29{fill:#342E32;}
	.st30{fill:#272225;}
	.st31{fill:#FEFEFE;}
	.st32{fill:#FBA3A3;}
	.st33{fill:#DE7B79;}
	.st34{fill:#DA7B79;}
	.st35{fill:#DB807D;}
	.st36{fill:#EEA29B;}
	.st37{fill:#FB9F9E;}
	.st38{fill:#EFA69F;}
	.st39{fill:#F3A59D;}
	.st40{fill:#EAA499;}
</style>
<path class="st0" d="M70.7,94.9l7.4-4c0.8-1.5,0.3-3.2,0.4-4.8s0.4-2.6,2.1-2.5c1.9,0.6,3.4,2,4.1,3.8c0.7,2.9,1,5.8-0.8,8.5
	c-1,1.1-2.5,1.1-3.6,2c-0.9,1-0.5,2.6-1.5,3.7c-6.4,4.3-9,10.4-8.5,18c0.6,7.2-1.4,14.6,1.7,21.7c0.5,2.5,0.7,5,0.5,7.5
	c0,65.1,0,130.2,0,195.2c0,3.8,1.2,8.1-2.6,11.2H44c-0.1-15.3-0.1-30.6-0.2-45.9c-1.6-2.4-1.2-5-0.9-7.6c1-3.7,1.1-7.6,0.2-11.4
	c-0.2-0.9,0-1.8,0.4-2.6c0.4-0.5,0.7-1,0.9-1.5c0.7-2.5,0.5-5,0.5-7.5c0-43.1,0-86.2,0-129.4c0,43.1,0,86.3,0,129.5
	c0,2.7,0.2,5.3-0.8,7.9c-2,1.9-4,1.9-6.2,0.4c-4.3,0-8.7-0.3-13-0.1c-3.2,0.2-3.9-1-3.8-4c0.6-31.8-0.1-63.6,3-95.3
	c2.2-22.9,8.3-45.2,18-66c1.5-2.9,2.6-6.1,3.2-9.3c0.7-4.4,3.6-8.1,7.7-9.9c4.9-2.4,10-4.4,15-6.5c0.7,0.4,2.1,0.2,2,1.1
	c-0.3,2.4,1.9,0.1,2.2,1.2c-0.1-0.7-0.9-0.6-1.2-1.2C70.8,96.5,70.7,95.7,70.7,94.9z"/>
<path class="st0" d="M123.8,99.1c0.8,1,2.1,0.8,3.2,1.1c0.1,2,0.4,3.9,1,5.8c0.4,1.5,0.4,2.5,2.3,2c2.6-0.8,3.9,0.8,4,3
	c0.2,3.8,2.1,4.8,5.5,4.1c1.2-0.3,2.4,0.1,3.2,0.9l0,0c0.7,4.7,0,9.4-1.9,13.7c0.7-0.3,1.1-2,1.3-1.5c1,2.6,4.5-0.9,5,2.2
	c0.2-0.7,0.4-1.5,1.5-1.3c1.1,2.6,1.6,5.5,3.3,7.9c-4.1,7.1-2.7,16,3.3,21.6c3.5,3.4,4.9,9.1,3.1,13.3c-0.5,1.2-1.2,1.3-2.3,1.3
	c-10.6-0.1-21.3,1-31.9-0.6c-2.2-0.3-4.7-0.8-6.6,1.1c-0.3,0.3-0.7,0.6-1.1,0.8c-3.1,0.9-6.2-0.1-9.3,0.1c-0.4,0-0.8,0.1-1.2,0.1
	c-1.7,0.2-2.1,1.7-2.9,2.9c-1,1.2-0.8,2.6-0.8,4.1c0.1,12.4-0.1,24.8,0.1,37.2c0.2,0.7,0.5,1.4,0.9,2c0.6,0.7,1.2,1.3,1.9,1.8
	c0.6,0.6,0.9,1.3,1.4,1.9c1.2,1.2,2.1-0.1,3.2-0.4c1.4-0.4,2.9-0.6,4.4-0.5c0.5,0,1.1,0,1.6,0c5.9,0.5,11.9-1.1,17.7,1.1
	c2.3,1.6,3.5,4.4,3.2,7.1v77c-3-1.2-2.6-4.3-3.5-6.6c-4-10.6-6-21.8-8-30.6c2.1,13.3,7.2,28.1,11.5,43.2l0.2,40h-4
	c-3.8-4.8-4-11-5.8-16.5c-1.2-3.5-1.6-7.4-2.8-10.9c-1.4-7.6-2.7-15.2-2.9-22.9c0.2,8,1.6,15.8,3,23.6c1.9,7.7,4.1,15.3,5.9,23
	c0.3,1.4,0.6,2.6-0.4,3.7H101c-2.1-1.1-2.2-3.2-2.4-5.2c-0.2-3-0.2-6-0.2-9c0-60.7,0-121.5,0-182.2c0-3.6-0.4-7.3,1-10.9
	c0.9-1.5,2.1-1.3,3.4-0.6c4.2,2.4,4.6-0.4,4.3-3.4c-0.6-7.1-0.3-14.2-0.4-21.4c0-2.1,0.6-4.3,0.7-6.4c0.1-3.2-1.5-6.2-0.6-9.9
	c0.4-1.9-3.3-4.6-6.4-5.3c-0.9-0.6-0.8-1.9-1.5-2.6c-0.5-0.3-1-0.6-1.6-0.9c-1.2-1-3.6-1-3.2-3.4c0.5-0.6,1.3-0.6,2-0.9
	c-0.8,0-1.6,0.4-2.1,1.1c-1.4,1.2-3.2,2.3-4.8,0.9s-0.4-2.9,1.1-4s0.7-2.6,0.3-4c0-0.5,0-0.9,0.2-1.4c1.4-1.8,3.6-2.7,5.8-2.5
	c5.5,0.6,5.5,0.6,6.5,7c1.2-1.6-0.7-5.4,1.8-5.2c2.9,0.3,1.2,3.7,1.4,5.7c0.1,0.8-0.1,1.6,0.8,2l1.8,0.6c0.3,0.4,0.9,0.6,1,1
	C112.6,102.1,118.3,100.3,123.8,99.1z"/>
<path class="st1" d="M101,147c-1.1,2.3-1,4.8-1,7.2c0,63.5,0,127,0,190.5c0,3.4-0.5,6.9,1,10.2H70c0.8-2.9,1.1-5.8,1-8.8
	c0-68.7,0-137.3,0-206c4-2.8,8.3-1.8,12.5-0.9c2.1,4.8,6,5.9,10.8,5.3c2.1-0.4,4.3-0.1,6.3,0.9c0.5,0.3,0.7,0.9,0.4,1.4
	C101.1,146.9,101,147,101,147z"/>
<path class="st2" d="M130,355c-0.8-7.1-3.5-13.7-5.1-20.6c-0.6-2.1-0.9-4.2-0.9-6.4c0.2-0.3,0.6-0.3,0.9-0.1l0.1,0.1
	c2.1,1.6,1.7,4.1,2.2,6.3c1.8,6.9,3.8,13.8,5.7,20.7H130z"/>
<path class="st3" d="M162.4,173.3c1.2,2,3.1,1.5,4.9,1.5c5,0,10,0.2,14.9,0c4.3-0.2,5.4,1.5,4.1,5.3c-0.7,11.3-0.1,22.6-0.3,33.9
	c0.1,2,0,4-0.2,6c-0.2,0.6-0.6,1.1-1.1,1.4c-0.6,0-1.1-0.5-1.1-1.1c0,0,0,0,0-0.1c-0.1-12.4,0-24.8-0.2-37.1
	c-0.3-0.6-1.1,0.3-0.6-0.1c0.2-0.1,0.4-0.1,0.4,0.3c0.7,12.4,0.1,24.9,0.3,37.3c0,1.6-1,2.1-2.4,2.2c-7.1-0.9-14.3,0.5-21.4-0.9
	c-2.4-1.5-1.8-4-2.1-6.2c-0.8-5.9-1.7-6.6-7.7-6.2c-3.8,0.2-7.5,1.5-10.5,3.8c-1.5,1.6-2.8,3.5-3.9,5.4c-0.5,0.7-1,1.4-1.6,1.9
	c-5.4,2.6-11.8,2.7-17.3,0.2c-1.4-2.1-1-4.5-1-6.7c-0.2-10.7,0.4-21.5-0.4-32.2c-0.4-1.2-0.3-2.4,0.2-3.5c0.3-0.5,0.8-0.8,1.4-0.8
	c2.8,1.4,5.9,0.9,8.9,1c10.4,0.1,20.9-0.2,31.3,0.1c1.4,0.2,2.1-0.9,3-1.6c0.5,0.4,0,0,0.4-0.3c0.8-0.6-0.2,0.1-0.1-0.1
	c-14.2,0.9-28.4,0.9-42.6,0c-0.5-0.2-0.9-0.7-1.1-1.2c-0.1-0.6,0.1-1.1,0.5-1.5l0,0c1.5-1.7,3.6-1.7,5.6-1.5
	C135.9,174.3,149.2,173.4,162.4,173.3z"/>
<path class="st4" d="M78.3,83c-2.5-2.9-6.5-2.7-9.4-5.1c-5-4.3-7.9-9.2-7.9-15.8c-0.1-9.4,0.1-18.9-0.1-28.3
	c-0.2-5.6,1.5-11.2,4.9-15.7c4.9-0.8,9.9-0.4,14.9-0.3c3.8-0.1,7.2,2,8.8,5.4c1.1,2.1,2.4,4,4.9,4.6c4.5,1.1,6,4.3,6,8.5
	c0,0.8,0,1.7,0.1,2.5c0.2,2.9,1.1,4.1,4,2c2.6-2,5.4-2.3,8.1,0.1c1.6,2.3,2.4,4.6,0.6,7.2c-0.1,1-0.1,2,0,3c0.9,5.2-1.1,8.6-6.2,10
	c-0.5,0.5-1.4,0.5-1.9,0l0,0c-0.5-1-0.6-1.8,0.5-2.4c-1.3,0.7-1.2,1.8-1.2,3.1c0.1,5.3,0.1,10.5,0,15.8c0,0.3-0.9,2.6,0.7,0.4
	c0.6-0.4,1.4-0.4,1.9,0.1l0.1,5.2c-2.9,2-6,0.2-9,0.4c-4.2-0.2-4.2-0.2-2.8-2.6c0.6-0.5,1.1-1,1.6-1.5c-0.6,0.6-1.4,1.1-2.2,1.5
	C90.1,83,85,83.8,80,83.3C79.3,83.4,78.7,83.3,78.3,83z"/>
<path class="st5" d="M113.1,48c0.3-2.3-0.2-4.6-1.2-6.7c-0.8-1.7-1.1-3.5-0.9-5.3c0.2-7.7-2-14.4-7.2-20.1c-1.3-1.4-2.1-3.1-0.7-5
	c15-7.8,25.6-0.9,30.1,8.1C140.2,33.1,129.6,48.3,113.1,48z"/>
<path class="st6" d="M103,11c-0.1,1.7,0.5,3.3,1.8,4.4c7.6,7.2,8,16.4,7.1,26c-3-1.4-5.7-1.6-8,1.3c-0.6,0.8-0.6,2.7-2.3,2
	c-1.5-0.6-2.5-1.9-2.6-3.5c-0.1-2.2-0.1-4.3,0-6.5c0-3.1-1.2-5.2-4.5-5.4c-2.8-0.2-4.7-1.2-5.5-4.1c-1.3-4.5-4.6-6-9.1-6.2
	c-4.7-0.2-9.5,1.2-14.1-0.9c1.4-1.7,2.8-3.3,4.3-5c1.2-2.8,3.6-3.6,6.3-3.8c7.5-1.7,15-2.9,22.2,1.5C99.7,11.5,101.5,10.9,103,11z"
	/>
<path class="st4" d="M137.9,213c5.1-5.4,11.8-5.1,18.4-4.8c1.5,0.1,1.7,1.3,1.8,2.5c0.3,3.4,0.6,6.9,0.9,10.3c0.3,0.3,0.5,0.6,0.6,1
	c0.1,0.6,0.5,1.2,1.1,1.4c6.4,0.4,12.8,0,19.2,0.2c2.1,0.1,4.3-0.4,6,1.4c-6,2-12.1,0.5-18.2,0.8c-4.9,0.3-9.4-0.5-13.4,4.3
	c-3.2,3.9-9.1,1.6-13.9,1.5c-1.3,0-2.5-1-3.7,0.2l-2.9-6c-0.5-0.6-1-1.3-1.4-2.1c-0.1-0.4-0.1-0.8,0-1.3c0.7-1.1,0.7-2.4,1.3-3.5
	l1-1c0.1,0.1,0.2,0.2,0.3,0.4c0.1,0.1,0.1,0.3,0.1,0.4C136.1,216.8,138.6,215.6,137.9,213z"/>
<path class="st0" d="M162.4,173.3c-0.8,1.7-2.4,1.5-3.9,1.5c-13.8-0.1-27.6,0.4-41.4-0.6c0-5.3,4.4-3.3,6.3-2.9
	c8.8,1.5,17.5,0.3,26.3,0.9c2.7,0.2,5.3-2.1,8.2-0.1c-2.5-2.9,1.2-6.1-1.1-9.3c-1.2-1.7-1.9-3.6-3.9-4.6c-0.6-0.2-1.1-0.6-1.4-1.1
	c-1.9-3.9-2.1-8.3-4-12.4c-1.3-2.6,1.2-6.2,4.7-7.6C157.2,148.6,160.1,160.9,162.4,173.3z"/>
<path class="st0" d="M143.1,116c-1.3,0.1-2.6,0.3-4,0.4c-3.2,0.3-6.5,1.1-5.8-4.3c0.4-2.8-1.3-4-4.3-2.6c-2.1,0.9-3.8,0.9-2.3-2.3
	c1-2.2-3.2-4.6,0.1-6.9C137.1,100.7,139.9,108.5,143.1,116z"/>
<path class="st2" d="M136.9,315c-4.3-6.1-5.1-13.5-7.3-20.3c-2.7-8.4-4.2-17.3-6.2-25.9c-0.1-0.7,0.2-1.5,0.7-1.9
	c4.6,14,7,28.6,12.7,42.2v5.9L136.9,315L136.9,315z"/>
<path class="st3" d="M186,225.1c-7.8,0-15.6,0-23.3-0.1c-1.5,0-3.8,1.2-4.2-1.7c0.8-0.2,1.7-0.4,2.5-0.5c6.6,0,13.2-0.3,19.8,0.2
	c1.7,0.2,3.3-0.5,4.3-1.9l0,0c1.2-10.5,0.1-21.1,0.6-31.6c0.1-2.7-0.9-5.5,0.8-8.1C186.8,195.9,187.5,210.5,186,225.1z"/>
<path class="st0" d="M148.9,129.1c-1.2,0.7-0.5,2.2-1.4,3.2c-1.2-3.1-2.6-4.5-4.1,0.4l-0.9-4.9l-0.7,4.5c-0.7-5.4-0.2-10.9,1.3-16.2
	C145.6,120.1,147.9,124.3,148.9,129.1z"/>
<path class="st7" d="M38,287.2l6-0.1l0,0c0,0.3,0,0.7-0.2,1c-0.3,2.1-0.6,4-3.1,4.8c-1.1,0.4,0.4,0.8,0.2,1.3
	c0.8,3.8,0.6,7.8-0.5,11.6l-0.5,0.5c-4.5-3.2-4-7.8-3.5-12.4C36.7,291.6,37.3,289.4,38,287.2z"/>
<path class="st0" d="M123.8,99.1c-3.1,3.8-7.5,1.8-11.2,2c-0.8,0-2.5-3.2-2.4-4.9c0.1-1.4-1.6-1.7-1.1-2.8
	C114,95,119.2,96.3,123.8,99.1z"/>
<path class="st0" d="M97,83.1l9.9,0.1l0.3,9.5c-2.4,1.4-2-0.5-1.6-1.6c0.6-1.9,0.8-3.7-0.4-5.6c0.1,2.4-0.4,4.8-1.6,6.9
	c-2.7-2.7-0.9-8.6-6.6-8.6c-0.3-0.2-0.3-0.4-0.2-0.5C96.8,83.2,96.9,83.1,97,83.1z"/>
<path class="st8" d="M186.4,181.3c-0.1,11.5-0.2,23-0.4,34.6c0,1.7,0.6,3.7-1,5.1c0-12,0-24.1,0-36.1c0-1.7-0.9-3.7,1.2-4.9
	C186.3,180.5,186.3,180.9,186.4,181.3z"/>
<path class="st9" d="M105,61.1h1.9c0,5.7,0,11.3-0.1,17H105l-0.6-0.7c-0.7-5.2-0.7-10.5,0-15.7L105,61.1z"/>
<path class="st10" d="M44.2,301l-0.4,8.1c-2.1,0-3.5-0.8-4-2.9L40,306c0.3-0.3,0.6-0.5,1-0.5c1.4-0.8,0.6-2.1,0.7-3.2
	c0-0.8-0.1-1.5-0.1-2.3c0.7-2.4-1.5-5.8,2.6-6.9C44.7,295.7,44.7,298.4,44.2,301z"/>
<path class="st11" d="M70.7,94.9c1.2,1.1,0.9,3.6,3.3,3.8c-2.3-0.2-5.5,2-5.9-2.6L70.7,94.9z"/>
<path class="st12" d="M78.3,83c0.3,0,0.5,0,0.8-0.1c1.2-0.3,2.3-0.6,1.9,1.3c-2-0.4-2,1-2.1,2.4s0.5,3-0.7,4.2
	C78.2,88.2,78.2,85.6,78.3,83z"/>
<path class="st13" d="M84,140l-13,0.2c-2.1-0.1-2.1-1.5-2.1-3.1c0.1-7.6-0.2-15.2,0.1-22.8c0.3-6.7,4.2-11.2,9.9-14.3
	c3.7-2.4,7.6-1.6,11.5-0.6c1.5,1.5,0,2.2-0.9,2.4c-4.4,0.8-4.3,3.7-3.8,7.1c1.2,8.9,0.7,17.9,0.2,26.8C86,137.4,85.9,139.2,84,140z"
	/>
<path class="st14" d="M44,287.1V141.7c2.8,0.3,2,2,2,3.1c0.1,45.6,0.1,91.3,0.1,136.9C46.1,283.8,45.7,285.7,44,287.1L44,287.1z"/>
<path class="st15" d="M81,84.2c-0.2-1-1.1-1.2-1.9-1.3l15.9-3c1-0.2,1.4,0.2,1.1,1.2l-1.2,1.4l2.1,0.6c0,0.2-0.1,0.5-0.1,0.7
	c-2.4-0.3-4,1.4-6,2.2c-2.1,1.6-4.4,2.6-7,1.1L81,84.2z"/>
<path class="st16" d="M83.9,87.1l7-1.1c-0.1,0.3-0.1,0.6-0.1,0.9c-0.3,3.1-3,5.6-2.4,8.9c-0.3,0.4-0.7,0.7-1.2,0.9
	c-0.5,0.2-1,0.3-1.5,0.3c-1,0.1-2.1-0.3-2.8-1.1C84.8,93.2,83.3,90,83.9,87.1z"/>
<path class="st17" d="M86,96.1h1c1.8,1.1,4.1,1.1,5.8-0.2c1.4,1.3,1.3,2.7,0.4,4.2c-0.7,0.5-1.6,0.5-2.3,0l-12-0.1
	c-0.4-1-1.7-1.9-0.4-3.2C81,95.7,83.8,97.9,86,96.1z"/>
<path class="st18" d="M44.2,301c-0.1-2.7-0.2-5.3-0.3-7.9c-0.3-0.3-0.5-0.8-0.6-1.2c0.1-0.7,0.2-1.4,0.9-1.8
	C45.5,293.6,45.5,297.5,44.2,301z"/>
<path class="st19" d="M44.2,290c-0.1,0.7-0.2,1.3-0.3,2c-0.7,0.8-1.7,1.3-2.7,1.6c-0.4,0-0.9-0.3-1.1-0.6c1.3-1.7,2.5-3.3,3.8-5
	L44.2,290z"/>
<path class="st20" d="M86,96.1c-2.1,3.5-5-0.1-7.4,0.9c1.1-1.7,2.8-0.8,4.3-1L86,96.1z"/>
<path class="st0" d="M93,100c-0.3-1.3,1.1-3-1-3.8c-1.3,0.4-2.6,0.9-3.8-0.4c-0.5-3.4-0.1-6.5,2.6-8.9c3.3,1.3,2.4,3.7,0.7,5.3
	c-0.6,0.6-2.6,0.1-1.9,1.9s1.9-0.4,2.9-0.2c0.5,0.1,1,0.1,1.4,0l0,0l4,3c0.5,0.5,0.5,1.3,1,1.8c0.4,0.4,0.7,0.7,1,1.2
	c5-0.6,6.9,3.6,9.1,6.5c1.7,2.1-0.6,3.7-3.1,3.8c0.3,1.9,1.7,1.5,2.7,1.9c1.8,0.6,2.8,1.9,1,3.2c-2.2,1.6-1.8,3.8-1.8,5.9
	c0.1,7.6,0.4,15.2,0.4,22.9c0,2,1.3,4.6-1.5,5.7c-2.6,1-4.2-1.1-5.9-2.7v-1c1.2-2.7,1.8-5.7,1.6-8.7c-0.1-5.5-0.2-11,0-16.5
	c0.3-7.3-1.8-13.4-7.6-18.1C94,102.1,93.3,101.1,93,100z"/>
<polygon class="st0" points="106.7,110.1 106.9,111.7 106.6,111.5 106.3,111.3 106.2,111.1 106.1,111 106.1,110.9 106,110.7 
	106,110.6 105.9,110.4 105.9,110.2 "/>
<polygon class="st0" points="106.2,110.7 107.1,112 106.8,112 106.4,111.9 106.3,111.8 106.1,111.7 106,111.6 105.9,111.5 
	105.8,111.4 105.7,111.3 105.6,111.1 "/>
<path class="st21" d="M114,225.1l-5,0.3c-0.5-0.4-0.8-1-1-1.6c-0.7-15.1-0.2-30.2-0.3-45.3c0-1.2,0.3-2.3,1-3.3
	c1.5-1.2,3.1-0.7,4.6-0.2c1.5,0.9,1.6,2.3,1.7,3.9c0.8,14,0.2,28.1,0.4,42.2C115.5,222.4,115,223.9,114,225.1z"/>
<path class="st22" d="M103,177c0-2,0.3-3.7,3-3c1.5,1.6,1.4,3.7,1.4,5.6c0,13.3,0,26.5,0,39.8c0,2,0.3,4-1.4,5.6
	c-0.7-0.4-1.1-1.2-1-2c-2.2-2-2.4-4.6-2.4-7.3c0-11,0.2-22-0.1-32.9c-0.1-0.6-0.2-1.1-0.3-1.7C102,179.6,102,178.2,103,177z"/>
<path class="st3" d="M133.1,224c0.6,0.4,1,1.1,0.9,1.9c-6.2-1.5-12.5-0.1-18.8-0.8c-1.2-1.1-0.7-2.5-0.7-3.8c0-15.2-0.1-30.5,0-45.7
	c0.6-1.2,1.4-1.1,2.4-0.6c0,0.4,0,0.7,0,1.1c0,0.8-0.3,1.5-0.9,2c0,1,0,2.1,0,3.1c0.9,13,0.1,26,0.4,39c0.7,3,3.1,2.3,5.1,2.5
	C125.5,223.1,129.6,221.5,133.1,224z"/>
<path class="st23" d="M125,328h-1c-3.1-9.2-3.4-18.7-4.1-28.2l1.9-0.2C122.9,309,123.9,318.5,125,328z"/>
<path class="st24" d="M106,225v-51h1c0.4,0.5,0.7,1,0.9,1.6c0.4,15.9-0.1,31.9,0.3,47.8c0.2,0.6,0.5,1.1,0.9,1.6v0.3
	c-0.2,0.8-0.4,1.5-1.4,1.5C106.4,226.9,106.1,226,106,225z"/>
<path class="st25" d="M115.2,175c0,16.7,0,33.4,0,50.1H114c0-14.6,0-29.2,0-43.8c0-2.2,0.2-4.3-1-6.3
	C113.6,174.5,114.6,174.5,115.2,175z"/>
<path class="st26" d="M103,181c1.6,1.5,1,3.4,1,5.2c0.1,9.6,0.1,19.3,0,29c-0.1,2.7,0.3,5.3,1,7.9c-0.8,0.1-1.6-0.3-2-1
	c-0.5-0.8-0.9-1.8-0.9-2.8c-0.1-12-0.1-24,0-35.9C102.1,182.4,102.4,181.6,103,181z"/>
<path class="st27" d="M103,181c0,13.7,0,27.3,0,41c-0.3-0.3-0.7-0.7-1-1c-1.1-8.6-0.2-17.2-0.4-25.9c-0.1-4.5-0.1-9,0-13.5
	c0.1-0.5,0.5-0.9,1-0.8C102.7,180.9,102.9,180.9,103,181z"/>
<path class="st28" d="M102,181c0,13.3,0,26.7,0,40c-1.6-1.5-1-3.4-1-5.2c-0.1-12,0-23.9,0-35.8C101.9,179.8,102.4,180,102,181z"/>
<path class="st0" d="M94,94c0-1.4,0.9-2,2-2.5c0.8-0.5,1.9-0.2,2.4,0.6c0,0.1,0.1,0.1,0.1,0.2c0.3,0.6,0.3,1.2,0.1,1.8
	c-0.5,0.9-1.4,0.3-2.2,0.1C95.6,94.1,94.8,94.1,94,94z"/>
<path class="st0" d="M115.2,175H113h-4c-0.2,0.3-0.6,0.5-1,0.6c-0.4-0.1-0.8-0.3-1-0.6c0-0.3,0-0.6,0-0.9c3.4-1.3,6.8-0.3,10.1,0.1
	L117,175H115.2z"/>
<path class="st0" d="M102,181l-1-1c0-1.5,0-2.9,2-3c0,1.3,0,2.7,0,4H102z"/>
<path class="st29" d="M100,100h-2c-0.6-1.9,1.2-2.1,2-3C101.6,98,100.3,99,100,100z"/>
<path class="st30" d="M100,97l-2,3c-1.6-1-0.3-2,0-3H100z"/>
<path class="st31" d="M93,100c7.3,3.6,10.8,9.6,10.9,17.6c0.1,8.1,0,16.3,0.1,24.4c0,2.3-0.3,3.9-3,4c-3.4-0.1-6.9-0.6-10.3-0.2
	c-4.6,0.5-7.1-0.8-6.7-5.8c1.6-9.6,1.5-19.4,0.6-29c-0.7-8.6-1.4-8.6,6.3-10.8L93,100z"/>
<path class="st3" d="M116.1,178c-0.2-0.8,0.2-1.6,0.9-2h47.2l0.1,0.9L160,178c-0.9,0.8-2.1,1.1-3.2,1c-12,0-24,0-36,0
	c-1.3,0.1-2.7-0.2-3.8-1C116.7,178,116.4,178,116.1,178z"/>
<path class="st3" d="M117,178h43c0,1.1,0.2,2.3-1,3c-0.4-0.7-1-1.4-1.9-1.4c-10.7,0.1-21.4-0.7-32.1,0.4
	C122.4,179.2,118.9,182,117,178z"/>
<path class="st3" d="M116.1,221.1c0-13.3,0-26.7,0-40c1.5,1.5,0.9,3.4,0.9,5.2c0.1,11.6,0,23.2,0,34.8l-0.4,0.4L116.1,221.1z"/>
<path class="st8" d="M183,221v-38.7h1V221c-0.2,0.3-0.6,0.3-0.9,0.1L183,221z"/>
<path class="st8" d="M125,180c1.1-1.4,2.7-1,4.2-1c8.5,0,17,0,25.4,0c1.7,0,3.9-0.8,4.4,2c-2.8-1.6-5.8-0.9-8.7-1
	C141.9,180,133.4,180,125,180z"/>
<path class="st8" d="M183,221h2c0.2,2.9-1.6,3-3.8,3c-7.1,0-14.1,0-21.2,0c0.1-2.9,2.7-1.5,4-2.3c0.5-0.1,1,0,1.5,0.1
	c4.9,0.4,9.8,0.1,14.7,0.2h0.8C181.8,222.1,182.6,221.7,183,221z"/>
<path class="st3" d="M165,222h-1c-1.6,0.8-3.5,0.8-5.1,0c0-0.3,0-0.7,0.1-1c5.8,0,11.6,0,17.4,0c1.6,0,3.4-0.5,4.6,1l0,0
	C175.7,222.8,170.3,222.8,165,222z"/>
<path class="st3" d="M134,219c-0.1,1.4,0.4,2.9-0.9,4h-0.8c-5-0.3-10.1,0.6-15-0.6c-0.5-0.3-0.6-0.9-0.3-1.4c0,0,0,0,0-0.1l0,0
	c4.1,0,8.2-0.1,12.3,0C131.1,221.2,132.9,220.4,134,219z"/>
<path class="st32" d="M137.9,213c1.8,0.2,2.3,1,1.1,2.5s-2.3,3.1-3.4,4.7c-0.8-0.6-0.5-1.4-0.6-2.2C135.3,216,136.6,214.4,137.9,213
	z"/>
<path class="st9" d="M105,78.1l-0.8,3.6h-1c0-7.1-0.3-14.2,0.2-21.3c0.2-3,3.3-3.5,6.1-3.7c-0.1,3-4.5,1.6-4.4,4.5l0,0
	C104.2,66.7,104.2,72.5,105,78.1L105,78.1z"/>
<path class="st33" d="M85.9,66c-0.2,2.1-2.6,2.9-5,3.6c-1,0.3-2-0.2-1.7-1c1-2.5,3.8-3.2,5.5-5.1C85.3,63,86.1,64.2,85.9,66z"/>
<path class="st34" d="M72.1,56.8c-4,0.2-5.7-1.6-6.8-4.4c-0.3-0.8-0.2-1.7,0.6-2.1c0.6-0.4,1.4-0.2,1.7,0.4c0.1,0.1,0.1,0.3,0.2,0.5
	C68.2,53.6,70.6,54.3,72.1,56.8z"/>
<path class="st35" d="M96.1,81.1L95,80c0.9-1.6,2.4-2.2,4.6-2.9C98.9,78.8,97.7,80.2,96.1,81.1z"/>
<path class="st36" d="M67.9,71.6c-3-1.2-2.2-2.9-1.3-5.2C67.1,68.3,67.4,69.7,67.9,71.6z"/>
<path class="st3" d="M117,221v1c5.2,1.5,10.7-0.4,15.9,1l0.1,0.1c0,0.3,0,0.6,0,0.9c-4.6,0-9.2,0-13.8,0c-2.1,0-3.6-0.4-3.2-3
	C116.4,221,116.7,221,117,221z"/>
<path class="st8" d="M158.9,222h5.1c-0.9,1.6-3.1,0.4-4,2l-1.6-0.9L158.9,222z"/>
<path class="st32" d="M137,224.4c-0.1-1.1-0.2-1.5-0.1-1.8c0.1-0.4,0.4-0.8,0.8-1c0.6-0.2,0.8,0.3,0.6,0.8
	C137.9,223,137.5,223.7,137,224.4z"/>
<path class="st37" d="M40,293h1c2.2,2.3-0.2,5.7,2,8v2c-0.9,0.9-0.3,2.7-2,3c-0.3,0-0.7,0-1,0C40,301.6,40,297.3,40,293z"/>
<path class="st38" d="M105,78c-1.6-5.6-1.6-11.4,0-17V78z"/>
<path class="st39" d="M43,301c-4-1.8-1.1-5.4-2-8l2.8-1v1C42.2,295.6,43.4,298.4,43,301z"/>
<path class="st40" d="M41,306c0.7-1,1.3-2,2-3c-0.3,1.4,0.8,3.1-0.8,4.2C42.2,307.3,41.4,306.4,41,306z"/>
<path class="st20" d="M88.2,95.9l3.8,0.4c-0.1,0.7-0.3,2.2-0.5,1.9c-1.3-1.3-4.3,1.3-4.5-2L88.2,95.9z"/>
<path class="st3" d="M108,175.1c0.3-0.1,0.7-0.1,1,0c0,16.7,0,33.3,0,50l-0.5,0.1l-0.5-0.1c-1.1-3.7-0.4-7.5-0.5-11.3
	c-0.1-11.2,0-22.5,0-33.8C107.6,178.3,107.1,176.6,108,175.1z"/>
<path class="st25" d="M110.4,218.7v-38.8h0.6v39L110.4,218.7z"/>
<path class="st8" d="M108,175.1c0,16.7,0,33.3,0,49.9c-1.9-1.4-1-3.4-1-5.1c-0.1-15,0-29.9-0.1-44.9L108,175.1z"/>
<path class="st8" d="M165,222h16C175.8,223.6,170.2,223.6,165,222z"/>
<path class="st8" d="M133,223c-5.3-0.5-10.7,1.1-15.9-1C122.3,222.6,127.8,220.9,133,223z"/>
<path class="st20" d="M158.4,223.2c0.3,0.8,0.8,1.4,1.4,1.9l0.2,1.4"/>
<polygon class="st0" points="142.3,127.6 144.4,129.5 143.1,129.9 142,130 141.5,129.9 141.1,129.9 140.8,129.8 140.5,129.7 
	140.2,129.5 140,129.4 139.6,129.1 "/>
</svg>
