<?xml version="1.0" encoding="utf-8"?>
<!-- Generator: Adobe Illustrator 24.2.3, SVG Export Plug-In . SVG Version: 6.00 Build 0)  -->
<svg version="1.1" id="Vector" xmlns="http://www.w3.org/2000/svg" xmlns:xlink="http://www.w3.org/1999/xlink" x="0px" y="0px"
	 viewBox="0 0 1200 1200" style="enable-background:new 0 0 1200 1200;" xml:space="preserve">
<style type="text/css">
	.st0{fill:none;stroke:#DFDFDF;stroke-width:4;stroke-miterlimit:10;}
	.st1{fill:#F3F3F3;}
	.st2{fill:#DFDFDF;}
	.st3{fill:#1CA55A;}
	.st4{fill:none;stroke:#ED7562;stroke-width:4;stroke-linecap:round;stroke-linejoin:round;}
	.st5{fill:#ED7562;}
	.st6{fill:#DE8E68;}
	.st7{fill:#D37C59;}
	.st8{fill:#EBC52F;}
	.st9{fill:#FED330;}
	.st10{fill:#0E2117;}
	.st11{fill:#FD8369;}
	.st12{fill:#26DE81;}
	.st13{fill:none;stroke:#FD8369;stroke-width:4;stroke-linecap:round;stroke-linejoin:round;}
	
		.st14{opacity:0.56;fill:none;stroke:#20BF6B;stroke-width:3;stroke-linecap:round;stroke-linejoin:round;enable-background:new    ;}
	.st15{fill:none;stroke:#F3F3F3;stroke-width:4;stroke-linecap:round;stroke-linejoin:round;}
	.st16{fill:none;stroke:#F3F3F3;stroke-width:2;stroke-linecap:round;stroke-linejoin:round;}
</style>
<polyline class="st0" points="205.4,483 176,483 176,722.7 "/>
<rect x="261.3" y="453.5" class="st1" width="262.4" height="505.4"/>
<rect x="201" y="453.5" class="st2" width="61" height="505.4"/>
<path class="st3" d="M262.9,974c-59.2,0-160.3-90.4-160.3-165.5c0-5.7,2.7-16.5,8.7-16.5C143.7,792,262.9,888.4,262.9,974z"/>
<polyline class="st0" points="655.6,316.7 655.6,646.6 674.5,646.6 "/>
<line class="st4" x1="967.9" y1="1008.5" x2="902.9" y2="899.2"/>
<line class="st4" x1="996" y1="1008.5" x2="931.1" y2="899.2"/>
<line class="st4" x1="788.6" y1="1008.5" x2="853.6" y2="899.2"/>
<path class="st5" d="M938,668.8h96.1l-64.5,233.8H805.9v-8.3h121.4L938,668.8z"/>
<rect x="778.1" y="1001.4" transform="matrix(0.9881 -0.1537 0.1537 0.9881 -145.8253 133.0084)" class="st6" width="18.4" height="16.5"/>
<rect x="667.5" y="982.4" transform="matrix(0.5446 -0.8387 0.8387 0.5446 -523.9438 1018.3541)" class="st6" width="16.5" height="18.4"/>
<path class="st3" d="M748.6,822.3c-13.5,0-80.6,156.3-80.6,162s14.6,12.2,16.7,12.2c3.3-3.1,67.6-96,74.3-102.5
	S748.6,822.3,748.6,822.3z"/>
<path class="st7" d="M855.4,707.5c-4.4,1.4-26,19.9-29.8,42.1c-3.8-0.5-26.9-1.4-36.5-1.8c-3.1-4.9-9.8-8.3-17.4-8.3
	c-10.7,0-19.4,6.6-19.4,14.7c0,0.2,0,0.3,0,0.5H791c0-0.2,0-0.3,0-0.5c0-2-0.6-4.1-1.6-5.8l33.6,5.4l39.9,4.2l4.1-35L855.4,707.5z"
	/>
<path class="st8" d="M888.5,682.7c0-2.8-7-6-12.1-6c-13.7,0-36.9,25-36.9,28.1s16.7,17.1,29.5,18S888.5,682.7,888.5,682.7z"/>
<path class="st9" d="M922.6,662.7c77.5,0,59.8,175.2,50,182.6s-96,8.1-101.6,0.7S830.6,662.7,922.6,662.7z"/>
<path class="st7" d="M936.2,629.2h-31v41.5c0,6.6,31,6.6,31,0V629.2z"/>
<ellipse transform="matrix(0.1575 -0.9875 0.9875 0.1575 169.629 1416.1614)" class="st6" cx="914.8" cy="608.7" rx="45.5" ry="30.6"/>
<path class="st10" d="M987.5,541.5c15,0,30,8,49,8c15,0,29-6,47-6c32,0,42,21,42,34c0,33-27,46-47,46c-32,0-36-22-74-22
	c-37,0-32-30-40-30c-4,0-6.5,0.5-8,2s-9-4-9-6S957.5,541.5,987.5,541.5z"/>
<path class="st10" d="M920.5,552.5c-35.4,0-42.8,26.9-42.8,34.7s4.9,13.5,7.4,13.7c1.6-9.3,9-22.1,9.3-22.4c2,2,9.4,8.4,17,9
	c6.3,0.3,12.5,2.2,17.8,5.6c0.4,2.6,1.4,5,2.9,7.2c2,3.3,5.1,5.8,8.8,7.2c0.9,2.2,1.4,4.6,1.5,7c0,10.7-1,15-2,18
	c16.3,0,24-16.8,24-38C964.5,559.5,933.6,552.5,920.5,552.5z"/>
<circle class="st6" cx="942.5" cy="614.7" r="8.6"/>
<path class="st6" d="M913.5,727.4c-3.5,0.8-17.5,9.5-25.9,24.5c-8.2-1.5-41.8-9.9-71.6-9.9c-2.8,0-10.1-2.3-13-2.3
	c-17.5,0-21.1,9.4-21.1,12.2s0.6,2.9,1.1,2.9c60,0,75.1,25.3,108.8,25.3c10.9,0,33.4-7.9,47-28.2
	C934.1,735.7,913.5,727.4,913.5,727.4z"/>
<path class="st9" d="M972.5,693.3c18.7,18.2-28.7,68.5-36.2,67.8s-35-29.6-35.3-38.4S954.4,675.7,972.5,693.3z"/>
<rect x="587.8" y="757" class="st11" width="423.2" height="13.7"/>
<path class="st12" d="M972.4,854c0-4.3,0.8-9.3-1.9-10.4C906.9,817.4,813.7,814,799.4,814s-56.3,1.5-56.3,13.5
	c0,43.4,24.2,176.9,29.1,181.9c2.3,2.3,22.7,0.8,25.2-1.8c-0.2-11,6.2-121.5,0.4-134.9c53.5,19.6,114.2,28.9,130.2,28.9
	C974.3,901.6,972.4,859.1,972.4,854z"/>
<polygon class="st10" points="680.5,1001.6 664.4,990.8 620.9,981.7 616.8,988.5 668,1020.2 "/>
<polygon class="st10" points="799.2,1012.1 780.1,1015.1 742,1037.8 743.5,1045.6 802.6,1034.3 "/>
<line class="st13" x1="988.3" y1="974.3" x2="988.3" y2="766.8"/>
<line class="st13" x1="636.6" y1="974.3" x2="636.6" y2="766.8"/>
<line class="st13" x1="958.5" y1="1015.9" x2="958.5" y2="766.8"/>
<line class="st13" x1="605.2" y1="1015.9" x2="605.2" y2="766.8"/>
<line class="st4" x1="817.5" y1="1008.5" x2="882.5" y2="899.2"/>
<rect x="743.1" y="754.4" class="st3" width="70.3" height="2.5"/>
<rect x="665.1" y="590.8" class="st12" width="153.4" height="111.4"/>
<polygon class="st3" points="720.3,681.3 699.1,757 736.2,757 756.8,681.3 "/>
<path class="st2" d="M750.2,322.1c17.7-17.3,18-45.6,0.7-63.3c-12.5-12.8-31.5-16.9-48.1-10.4c-18.7-28.7-57.1-36.8-85.8-18
	c-10.3,6.7-18.4,16.4-23.2,27.7c-22.9-9.3-49,1.8-58.2,24.7c-5.2,12.8-4.1,27.3,2.8,39.3L750.2,322.1z"/>
<polyline class="st0" points="640,313.6 640,385.3 419.9,385.3 419.9,453.5 "/>
<path class="st12" d="M296.5,1015.9c5.9,0,17.2-19.8,17.2-58.3c0-28.1-19.7-46.3-25.5-74.1c-9-42.7-53.6-168.2-123.2-168.2
	c-8,0-18.7,16.8-18.7,51.4c0,42,40.7,85.5,40.7,94.5C187,964.3,277.8,1015.9,296.5,1015.9z"/>
<path class="st14" d="M296.9,1015.9c0-5.6-8.1-43.4-12.4-52.8s-20.8-56.7-23.4-69.7S210.3,753.1,165,720.8"/>
<line class="st14" x1="276.2" y1="940.8" x2="200.2" y2="925.4"/>
<line class="st14" x1="280" y1="951.4" x2="210.4" y2="945.6"/>
<line class="st14" x1="258.1" y1="883.6" x2="187.5" y2="862.2"/>
<line class="st14" x1="264.8" y1="907" x2="286.4" y2="891.3"/>
<line class="st14" x1="224" y1="804.1" x2="245.3" y2="779.9"/>
<line class="st14" x1="217.4" y1="791.2" x2="235.5" y2="766.6"/>
<rect x="283" y="485.5" class="st2" width="218.9" height="42.2"/>
<circle class="st1" cx="486.2" cy="501.3" r="7.4"/>
<line class="st15" x1="358.6" y1="501.3" x2="472.6" y2="501.3"/>
<rect x="283" y="556.8" class="st2" width="218.9" height="42.2"/>
<circle class="st1" cx="486.2" cy="572.6" r="7.4"/>
<line class="st15" x1="358.6" y1="572.6" x2="472.6" y2="572.6"/>
<rect x="283" y="628.1" class="st2" width="218.9" height="42.2"/>
<circle class="st1" cx="486.2" cy="643.9" r="7.4"/>
<line class="st15" x1="358.6" y1="643.9" x2="472.6" y2="643.9"/>
<rect x="283" y="699.5" class="st2" width="218.9" height="42.2"/>
<circle class="st1" cx="486.2" cy="715.3" r="7.4"/>
<line class="st15" x1="358.6" y1="715.3" x2="472.6" y2="715.3"/>
<rect x="283" y="770.8" class="st2" width="218.9" height="42.2"/>
<circle class="st1" cx="486.2" cy="786.6" r="7.4"/>
<line class="st15" x1="358.6" y1="786.6" x2="472.6" y2="786.6"/>
<line class="st16" x1="215.1" y1="515.8" x2="247.9" y2="515.8"/>
<line class="st16" x1="215.1" y1="524.3" x2="247.9" y2="524.3"/>
<line class="st16" x1="215.1" y1="573.7" x2="247.9" y2="573.7"/>
<line class="st16" x1="215.1" y1="582.2" x2="247.9" y2="582.2"/>
<line class="st16" x1="215.1" y1="643.9" x2="247.9" y2="643.9"/>
<line class="st16" x1="215.1" y1="652.4" x2="247.9" y2="652.4"/>
<line class="st16" x1="215.1" y1="711.9" x2="247.9" y2="711.9"/>
<line class="st16" x1="215.1" y1="720.4" x2="247.9" y2="720.4"/>
</svg>
