<?xml version="1.0" encoding="utf-8"?>
<!-- Generator: Adobe Illustrator 24.2.3, SVG Export Plug-In . SVG Version: 6.00 Build 0)  -->
<svg version="1.1" id="Capa_1" xmlns="http://www.w3.org/2000/svg" xmlns:xlink="http://www.w3.org/1999/xlink" x="0px" y="0px"
	 viewBox="0 0 51.4 51.4" style="enable-background:new 0 0 51.4 51.4;" xml:space="preserve">
<style type="text/css">
	.st0{fill-rule:evenodd;clip-rule:evenodd;fill:#F7B731;}
</style>
<g>
	<g>
		<path class="st0" d="M50.4,11.3c-0.3,0-0.6,0-1,0c-1.9,2.4-5.5,3-6.5,6.2C45.7,19.3,54.4,13.7,50.4,11.3z"/>
		<path class="st0" d="M38.6,12c-4.2,0.1-8.6,2.1-11.5,1.9c0.3,0.7-2.1,0.2-3.1,1.4c-0.5-0.3-1-0.5-1.4-0.7
			c-0.8,0.1-0.8,1.1-1.7,1.2c0-0.3,0.4-0.5,0-0.7c-0.6,0.9-1.4,0.5-2.2,1.4c-2.7-0.6-6.6,1.1-9.4,2.6c0-0.3,0.3-0.3,0.2-0.7
			c-3.2,1.6-8.3-4-9.6,0.5c0,2,0,4,0,6c0.6,0.8,0.3,2.5,0,3.6c0,0.1,0,0.2,0,0.2c0.6,0.5,0.1,2,0.2,2.9c3.1,2.4,7-2.6,10.1-0.2
			c-0.2,2.1-0.1,4.5,0.2,6.7c3.3,0.9,8.6,2,12.2,1.9c0.2-2,0.1-4.1,0.5-5.8c5.3,1,9.9,2.7,15.1,3.8c1.3-1.5,0.6-3.7,0.5-5.8
			C38.6,26.2,39.3,18.2,38.6,12z M20.9,37.7c-3.3-0.4-3.5-2.4-7.2-2.4c-0.1-1.5-0.1-1.6,0-3.1c2.3-0.2,4.7,1.1,7.2,1.2
			C20.9,34.8,20.9,36.3,20.9,37.7z M25,32.2c0.6-1-0.4-0.2-0.5-1.2c-0.8-0.1-0.9,0.3-1.4,0.5c0.6-0.7-0.7-0.8-1.9-0.5
			c-0.8-1.3-4.7-2.2-7.2-1.7c0.1-0.3,0.4-0.4,0.5-0.7c-3.7-0.9-7.6-2.1-10.8,0c-0.1-1.9,0.1-5.4-0.2-7.2c1.5-0.1,2.8,1.1,4.3,1.2
			c3.1,0.2,7.5-2.1,11-3.4c5.8-2.1,12.8-3.1,18-4.6c0.4,7.7,0.1,13.5,0.2,20.9C32,34.7,29.6,32.5,25,32.2z"/>
		<path class="st0" d="M43,24.8c0,0.2,0,0.5,0,0.7c1.8,1.9,9.2,2.8,8.4-1.4C49.6,22.9,44.5,23.5,43,24.8z"/>
		<path class="st0" d="M50.6,35.8c-2.2-1.5-7-4.7-8.4-3.6c0.6,0.7-0.2,0.9-0.5,1.7c0.9,0.4,1.1,0.3,1.2,1.2c2.5,0.6,8,5.8,8.4,2.2
			C51.4,36.9,51.1,36.1,50.6,35.8z"/>
	</g>
</g>
</svg>
