<?xml version="1.0" encoding="utf-8"?>
<!-- Generator: Adobe Illustrator 24.2.3, SVG Export Plug-In . SVG Version: 6.00 Build 0)  -->
<svg version="1.1" id="Capa_1" xmlns="http://www.w3.org/2000/svg" xmlns:xlink="http://www.w3.org/1999/xlink" x="0px" y="0px"
	 viewBox="0 0 54.9 54.9" style="enable-background:new 0 0 54.9 54.9;" xml:space="preserve">
<style type="text/css">
	.st0{fill-rule:evenodd;clip-rule:evenodd;fill:#F7B731;}
</style>
<path class="st0" d="M48.8,17.2C46.6,6.1,36.2-1.3,25,0.1c-3.5,0.4-5.1,1.5-8.6,2.4c-0.8,1.2-1.8,1.6-3.4,3.1c0-0.8,0.8-0.8,1-1.4
	c-1.6,0.7-0.5,1.4-2.4,1.7c-0.5,2.8-2.3,1.6-2,4.6c-0.6,0-0.7-0.4-1.2,0c-0.6,2-2.2,4.7-2.4,7.4C6,19,6.9,20.9,6.3,21
	c0-0.3-0.3-0.1-0.5,0v0.5c0.6,0.7,0.3,2.1,0.5,2.9C7.4,28,9,31.5,11.1,34.7c0.8,1.3,2.2,2.6,2.9,3.6c0.3,0.4,0.2,1,0.5,1.4
	c4,5.4,8.3,10.4,13,15.1h1c3-3,5.8-6.2,8.4-9.6c1.5-2.1,2.6-4.4,4.1-6.5C45,33,50.4,26.1,48.8,17.2z M45.4,27.3
	c-3.9,9.1-12,17.7-17.3,24.2c-4.4-3.4-5.8-8.6-10.1-11.8c0.3-1,1.1,0.1,1.4,0.5c-1-1.3-1.3-3-2.9-3.1c0-0.3,0.2-0.1,0.2,0
	c0.2,0,0.2-0.2,0.5-0.2c-0.9-0.3-0.7-1.7-2.2-1.4c0.1-0.3,0.4-0.4,0.5-0.7c-2-2.9-3-5.9-5.3-8.2c0.4-0.1,0.4,0.2,0.7,0.2
	c-0.3-1.7-1.2-3.3-1.4-5c-0.4-3.9,1.9-7.5,2.6-10.8c3.8-4.1,8.4-8.1,15.1-8.2s12.2,3.4,16.1,7.4C46,15,48.1,21,45.4,27.3z"/>
<path class="st0" d="M37,28.2c-3.9-1.2-5.8,4.1-2.9,6.2c-0.2,0.9-1.1,2.3-1.2,1.2c-0.3,1.6-1.8,1.5-3.4,2.2c-0.6-1.5-2-1-2.6-1.7
	c0.5-0.1-0.9-1.5-1.4-1.4c1.2-1.4-0.2-3.8,0.5-6.2c1.2,1,2.5-1.7,3.1-2.2c0,0.3-0.1,0.5-0.3,0.7c4.3-2.1,2.4-9.5,2.9-14.2
	c-0.5-2-3.8-2-5.3-0.7c-0.2,1.1-0.2,2.7,1.7,2.9c-0.3,1.7,0.6,4.4,0.2,6.5c-0.5,1.7-1.5,3.1-3,4c0.2-0.1-2.1,0-1.8,0
	c-3.9-0.4-4.6-5.7-4.1-10.8c0.9-0.1,1.7-0.7,1.9-1.6c-1-1.5-3-1.8-4.4-0.8c-0.1,0-0.1,0.1-0.2,0.1c-0.6,6.9-0.7,14.8,5.8,15.8
	c0.4,3.9-0.6,7,1.7,9.6c2.7,3,7.4,3.2,10.4,0.5c1.3-1.1,2.1-2.7,2.3-4.3C39.9,33.1,38.8,28.8,37,28.2z M35.8,32.1
	c-0.1-0.4,0-0.8,0.2-1.2C37,30.7,36.6,32.4,35.8,32.1z"/>
</svg>
