<svg id="Capa_1" data-name="Capa 1" xmlns="http://www.w3.org/2000/svg" viewBox="0 0 80 80"><defs><style>.cls-1{fill:#666;}</style></defs><path class="cls-1" d="M41.32,44.56A6,6,0,0,1,45.4,41.2c-.19-1.18-.4-1.93.48-2.88q-.37-.34-.72-.72c1.57-2.25-2.19-4.22-2.88-5-1.49-.14-1.8.42-2.64.24,0-.32.42-.22.48-.48-2.49-.38-4.51,1.72-5.76,3.36-1,4.08.68,6.67,3.6,7.92a1.56,1.56,0,0,1,.24,1.2c-1.12-.49-3.58-.37-5.52,0-1.89,3.91,3.78,2.94,5.52,3.12.11,4.64-3.77,5-3.12,9.36,2.86.36,2.85-4,5-5,1.1,1.8,2.18,5.85,4.8,4.56-.48-4-4.5-4.46-4.08-9.36,1.52-.71,4.85.37,6-.72.17-.73-.25-.87-.24-1.44C43.83,44.79,42.77,45.44,41.32,44.56Zm-3.6-4.08a8.2,8.2,0,0,1-1-2.4c1.2-2.48,6.87-2.68,5,2.4C41.11,40.68,39.06,41.3,37.72,40.48Z"/><path class="cls-1" d="M59.48,50.2a.64.64,0,0,0,.08-.36C59.53,50,59.51,50.08,59.48,50.2Z"/><path class="cls-1" d="M62.44,31.84c0-.6.81-.07,1,0-7.69-5.52-15-10.32-23-15.12v-.24h-1.2c-4.2,3.29-9.55,6.29-13.92,9.36-.8.56-1.4,1.4-2.16,1.92-.51.35-1.31.34-1.92.72-2.39,1.52-5.73,3.58-7,5.52v.72c1.71,2.29,4.39-.67,6-1.44.31,8.94.66,18.61.48,27.84-2.05.27-5.38-.74-6,1,.06,1.3,1.71,1,2.64,1.44H19a23.21,23.21,0,0,1,7.44,0h2.64c8-.44,19.49-.24,28.08-.24,2.76,0,7.07,1,7.68-1.44-1.36-1.63-4.7,0-6-1.44.66-3.06.23-7.93.64-10.2,0,.07-.1.06-.16-.12-.36-4.68.78-6.77.36-9.67-.13-.14-.09-.42-.12-.65,0,.22.09.44.12.65a.2.2,0,0,0,.12.07,7.16,7.16,0,0,0-.72-4.08c1.69-.13.37-2,1-2.4,1.37,1,4.23,3.24,5.76,1.2v-.48C65.76,32.51,63.66,32.24,62.44,31.84ZM56.2,60.4c-11.52.52-20.64,1-33.12.48-.37-9.19-.21-20-.24-30.24,3.34-2.12,6.44-3.28,9.12-5.76.43,0,.51.3,1,.24-.11-1.15,2.38-1.34,2.88-2.64,1.79.5,2.12-.4,2.64-1.68.27.05.13.24,0,.24.57,1.25.42-.46,1-.48,3.28,1.35,5.18,4.22,9.12,4.8,0,.62-.18.29-.48.24,1.65,2.12,5.41,3.53,7.92,5.52C56.23,41.91,56.29,49.48,56.2,60.4Z"/></svg>