<svg id="Capa_1" data-name="Capa 1" xmlns="http://www.w3.org/2000/svg" viewBox="0 0 54.48 54.93"><defs><style>.cls-1{fill:#f7b731;}</style></defs><path class="cls-1" d="M49.92,27.84c0-.39,1.41-1.37,1.92-2.16a25.28,25.28,0,0,0,2.64-8.4,16.06,16.06,0,0,0-1.2-5.52c.65.07.43,1,1,1.2-1-2-.82-3.8-2.88-5.52.34.06.4.4.72.48A9,9,0,0,0,49,5c.92,0,.09-.2.24-.72C46.57,2,43.3,1,39.84,0H37.92c-1,.22-1.63.77-2.64,1-.13-.35.94-.58.24-.72a14.91,14.91,0,0,0-8.64,3.84c-1.65-.58-5.11-2.91-6-2.4-.45.26-1.4-.48-1.44-.48a19.39,19.39,0,0,0-8.4,1C7.69,3.33,5.58,5.84,3.12,7.92,2,10.6.39,12.72,0,16.08v3.36a20.58,20.58,0,0,0,3.12,8.4C2.49,29.22.64,29.72.24,31.44a6.22,6.22,0,0,0,3.36,7H5.52c.45,3.31,2.49,5,6,5.28-1,3.76,2.83,4.68,5.28,5.76a4.78,4.78,0,0,0,5.52,4.8c2.12-.24,3.16-2.47,4.8-2.88,2.52,4.74,10.37,5.32,11-1.68,3.36-.16,4.8-2.24,5-5.52,3.89.29,4.93-2.27,5.52-5.28,2.32.08,4.58-1.35,5-3.36C54.82,30.87,49.91,30.05,49.92,27.84ZM30.24,5A17.42,17.42,0,0,0,34.8,3.6c.53-.13.34.46.72.48.83-.82,3.53-.17,3.84.48,1,.07.84-.85,1.92-.48-.06.26-.48.16-.48.48.43-.37,1.29.57,1.92-.24a24.9,24.9,0,0,0,6.48,5c0,.61-.18.29-.48.24,2.54,4,3.4,11.44-.48,15.6-2-1-2.74-3.28-4.56-4.56a63.47,63.47,0,0,1-5.76-5.28c-1.81-1.75-3.27-4.27-7.44-3.12-2,1-2.89,3.19-4.8,4.32-3.46,2.93-5.15,7.64-10.56,8.64-1.09-1.24-2.22-2.89-1-4.56,1.83-2.4,4.39-4.39,7.2-7.2C24.82,10,27.47,7.48,30.24,5ZM3.12,33.12c1.75-.51,3.27-5.73,6-4.56,1.07.46,1.32,2.17,1.44,3.36C9.18,34.25,3.43,38.59,3.12,33.12Zm8.64,8.16c-2.74.57-3.33-1.43-3.12-3.12,1.68-.06,3.06-5.56,6-4.08.91.46.8,1.71,1.44,2.88C14.69,38.45,13.29,39.93,11.76,41.28Zm3.12,5.28c-2.91-1.59,2.62-8.28,5-7.2.9.4,1.23,1.84,1.44,3.36C20,42.79,17.85,48.18,14.88,46.56Zm7.44,5c-.73,0-.24-.83-.72,0-.2-1.2-2-.71-1.92-2.64.06-2.22,6.45-7.38,7.2-2.88C27.24,48.24,24.55,51.47,22.32,51.6ZM44.88,33.12c-5.57-.1.2,4.22,1.2,6-.75.94-.37,1.54-1.2,2.4-1.46.57-2.28-.48-3.6-.72.24-1,.74.08.72-.72.07-.49-.69.05-.72.24A4.36,4.36,0,0,0,38.4,37.2c0,.41-2.25,1.43-1.44,2.64-.2.49-.49-.06-.47-.52-.45,1.4,1.51,3,3.11,3.16-.26.78.57,2.57.24,3.36s-1.74,0-1.68,1A11.68,11.68,0,0,1,34.08,43c-.94.42-1.14-.26-2.16.24-1.47,1.88.06,3,1.2,3.6.06.41-.47.1-.65-.13.77,1.32,4,4.17.65,5.65-1.81-.52-2.54-2.1-3.84-3.12,1.21-4.11-.26-7.86-4.8-7.92-.62-3.07-2.15-5.21-5.52-5.52a5.8,5.8,0,0,0-5.52-5.28,5,5,0,0,0-7.2-4.8c-2.85-2.24-3.79-8.34-2.4-12.24C6.47,6,17.1,1.22,25,6.48,21.47,11.07,16,14.71,12.48,19.2c-2.34,2.95-.63,7.54,2.88,8.16C18,27.81,20,26.05,22.08,24c2.7-2.68,5.84-7,8.16-8.88,2.91-2.41,5.71,2.11,7.68,4.08L48,29.28c1.7,1.69,3.74,3,3.84,4.56C52.19,39.1,45,35.91,44.88,33.12Z"/><path class="cls-1" d="M36.49,39.33a1.37,1.37,0,0,1,.23-.45C36.56,38.94,36.5,39.13,36.49,39.33Z"/></svg>