<?xml version="1.0" encoding="utf-8"?>
<!-- Generator: Adobe Illustrator 24.2.3, SVG Export Plug-In . SVG Version: 6.00 Build 0)  -->
<svg version="1.1" id="Capa_1" xmlns="http://www.w3.org/2000/svg" xmlns:xlink="http://www.w3.org/1999/xlink" x="0px" y="0px"
	 viewBox="0 0 49 55.2" style="enable-background:new 0 0 49 55.2;" xml:space="preserve">
<style type="text/css">
	.st0{fill-rule:evenodd;clip-rule:evenodd;fill:#F7B731;}
</style>
<g>
	<g>
		<path class="st0" d="M35.2,9.1c0.4-1.6,2.7-2.3,2.4-4.1c-0.7-3.4-5.6,0.6-5.5,3.6C32.7,9.6,34.4,8.7,35.2,9.1z"/>
		<path class="st0" d="M17.2,16.1c1-0.6,2.9-0.4,3.6-1.2c1.5-4.1-6.3-3.3-6.5-0.7C15.1,15,16.7,15,17.2,16.1z"/>
		<path class="st0" d="M29.7,5.5c-0.6-1.4-0.3-3.2-1-5c-0.4-0.1-1-0.1-1.2-0.5c-0.2,0-0.3,0-0.5,0c-0.2,0.3-0.5,0.4-1,0.5
			c-0.1,2.7,0.2,2.9,0.2,5.8C28.2,7.6,28.8,6,29.7,5.5z"/>
		<path class="st0" d="M45,28.3c-3.8-0.1-5.5-0.7-9.1-0.2c-0.5,0.1-0.5-1.3-1-0.5c0.8,0.3-0.6,0.3-1,0.2c0.5-0.5-0.9-1.4-0.2-2.4
			c0.1,0.3,0.3,0.5,0.5,0.7c-0.8-1.3,0-1.4,0.2-2.6c-0.2-0.8-1-1-1-2.2c0.4,0,0.2,0.6,0.7,0.5c-0.7-1.1,0.1-2.4-1.2-3.1
			c0.4-0.6,0.8,0.5,0.7-0.5c0.3-5.5-5.3-9.8-9.4-6.2c-0.2-0.5,0.7-0.8-0.2-0.7c-3.9,4.6,1,16.9-7.9,16.3c-0.1-0.5-0.5-0.6-0.5-1.2
			c-3.7-0.8-8,0-11.8-0.2c-1.8-0.1-2.4-0.2-3.4,1c0,1.4,0,2.9,0,4.3c0.5,0.7,0.4,1.8,0,2.6c0,1.9,0,3.8,0,5.8c0.6,0.7,0.4,2,0,2.9
			c0,0.2,0,0.5,0,0.7c1,4-1,9.8,1.7,11.8c0.6,0,1.1,0,1.7,0c2.7-1.2,8,0.6,11.3-0.7c0.5-0.2-0.1-1.5,0.5-1.7
			c6.4-0.4,11.9,0.4,17.5,0.2c2.6-0.1,5.8,0.4,8.6-0.2C49,51.2,50.7,32.5,45,28.3z M4.7,52.1c-0.7-1.9,0.4-3.5-1-5.3
			c0-0.3,0.2-0.1,0.2,0c0.7-6.1-0.1-13,0-17.3c3-0.3,6.7-0.3,9.1-0.7c0.4,7.8,0.1,15.6,0.2,24C9.8,52.7,7.1,52,4.7,52.1z M41.9,50.6
			c-4.1,0.1-6.8-0.7-10.3-0.2c0-0.4-0.2-0.6-0.5-0.7c-0.1,1.1-4.7,0.4-5.3-0.2c-0.2,0.2-0.1,0.8-1.2,0.7c0.1-0.3,0.5-0.2,0.5-0.5
			c-0.8-0.1-1.7,0.1-2.6,0.7c0.3-0.8-0.4-0.6-0.5-1c-1.9-0.1-5.5,1.5-6.2-1.2c0.5,0.2,0.2,0.7,0.7,0.2c-0.2-5.4-0.4-12.2-0.2-17.5
			c8,1.6,9.8-8.2,10.1-16.8c6.9,0.6,3.6,10,5,16.1c4.5,0.5,9.7,0.2,13.2,0.5C47.9,36.3,46,47.4,41.9,50.6z"/>
		<path class="st0" d="M21.8,9.6C21.9,9.3,23.1,9,23,9.4c-0.1,0-0.3,0.2,0,0.2c0.2-0.5,1-1.1,1-1.7c-0.1-0.8-3.7-4.5-5-4.3
			C15.5,3.9,20.4,8.8,21.8,9.6z"/>
		<path class="st0" d="M34.7,12.7c-2.3,3.8,3.3,3.4,6,2.2C41.5,10.8,37.7,12.9,34.7,12.7z"/>
	</g>
</g>
</svg>
