<svg id="Capa_1" data-name="Capa 1" xmlns="http://www.w3.org/2000/svg" viewBox="0 0 54.48 47.28"><defs><style>.cls-1{fill:#f7b731;fill-rule:evenodd;}</style></defs><path class="cls-1" d="M22.56,30.48c2.27.8,3.91,2.24,6.24,1.2,1.2-1.56.56-4.63.24-6.72-1.86-1.33-4.35-.31-6.24.24C22,26.7,22.76,28.31,22.56,30.48Zm2.16-3.6c.9.06.93,1,1.2,1.68a1.56,1.56,0,0,1-1.2.24Z"/><path class="cls-1" d="M50.88,4.32c-3.27.57-7.28-.71-10.17-.33-.14.1-.42.06-.63.09.2,0,.42-.06.63-.09a.2.2,0,0,0,.09-.15c-1.64.57-2.38-.34-3.84.72.07-.63-.33-.79-1-.72-4.93.36-9.55-.29-13.44.72,1.1-1-.41-.2-1-.72A10.3,10.3,0,0,0,21.36,1a10.3,10.3,0,0,0-1.44-1h-4.8C13.35.88,14,2.61,13.68,4.08,10.59,4.4,6,3.32,3.84,5.28A93.32,93.32,0,0,1,0,19v1.92c1.6,1.69,4.85-.21,6.24,1C6.14,29,5.59,36.1,6,43c.09,1.43.21,3.21,1.2,4.32,12.15-.64,29.13.27,41.28-.48.71-8.09-.23-17.83.48-25.92,1.78-.14,4.13.29,5.52-.24C54,14.73,51.78,9.88,50.88,4.32ZM16.8,2.88c.93,0,1,.94,1,1.92h-1.2C16.59,4.11,16.43,3.23,16.8,2.88Zm23.76,42h-6c.57-4.92,1.62-4.4,1-9.12a20.43,20.43,0,0,1,4.56,0C40.28,38.31,40.62,41.74,40.56,44.88Zm6,0H43a104.37,104.37,0,0,1,.48-11.52c-2.61-1.11-2.8-2.06-5.76-1,1.06-1.07-1.93-.4-2.64.24-.07-.39.23-.41.24-.72-2-.28-2.33.64-3.36.48-.42,4.44-.77,6.22.48,9.6-.32-.09-.38-.42-.72-.48,0,1.21.3,1.37,0,2.4-7.44.46-16.19.16-22.32.48-.24-7.83.06-13.94-.24-22.8,12.66-1.05,23.4-.33,37.44-.48ZM3.12,19C3.7,14.87,5.43,13.31,6,9.12c.49-.42.47.18,1-.24-.62-.31-.46-.79-.24-1.44.45,1.57.52-.81,1.44,0-.9.72,1.74.82,2.64,0-1.15,1.12,1.1.31,1.92,0-.48.55.06.27.24.72,2.45-.67,5.71.52,8.4-1-.09.31-.42.38-.48.72C30,7.6,38,7.78,48.48,7.44c.74,4.43,2.18,6.74,2.88,11C38,19.08,21.46,18.79,3.12,19Z"/><path class="cls-1" d="M18,24.24c-1.31-.5-2.92.4-4.56.48-2,.09-.22,4.6-1,5.52.19.05.28.2.24.48,1,.4,2.86.56,2.88,1.2.06-.26.39-.58.48-.24-.29.05-.15.27,0,.48C20.44,33.59,20.73,25.29,18,24.24ZM14.88,28.8c-.54-.18-.1-1.35-.24-1.92,1.07,0,1.13.95,1.2,1.92C15.29,29.13,14.94,28.18,14.88,28.8Z"/><path class="cls-1" d="M12.48,35.52c-.3,4.14.38,6.39,3.6,6-.1.34-.29.4,0,.72,1.21-.46.93-.1,2.64-.48,1.32-2.06.8-5.18,0-7.2A8.32,8.32,0,0,0,12.48,35.52Zm3.12,3.36c-.41,0-.62-.41-.72,0-.54-.18-.1-1.35-.24-1.92h.72C15.55,37.52,16.13,38.32,15.6,38.88Z"/><path class="cls-1" d="M29.28,35.28c-.78-1.58-4.48-.79-6.48-.24-.6,1.65-.33,3.82,0,5.76,1.66.62,2.9.46,3.6,1.44.56-.75,1.66.25,2.4-.48C30.18,40.41,29.12,38,29.28,35.28ZM25,38.88c-.54-.18-.1-1.35-.24-1.92h.72c0,.68.44,1,.48,1.68C25.6,39.23,25,38.38,25,38.88Z"/></svg>