<svg id="Capa_1" data-name="Capa 1" xmlns="http://www.w3.org/2000/svg" viewBox="0 0 44.46 50"><defs><style>.cls-1{fill:#666;}</style></defs><path class="cls-1" d="M8.77,28.24h1.6V54a1,1,0,0,0,1,1H48.62a1,1,0,0,0,1-1V28.24h1.61a1,1,0,0,0,.92-.62,1,1,0,0,0-.21-1.09L30.71,5.29a1,1,0,0,0-1.41,0L8.06,26.53a1,1,0,0,0-.21,1.09A1,1,0,0,0,8.77,28.24ZM21.62,53V49.91a3.91,3.91,0,0,1,3.9-3.9h9a3.91,3.91,0,0,1,3.9,3.9V53Zm26,0H40.38V49.91a5.9,5.9,0,0,0-5.9-5.9h-9a5.9,5.9,0,0,0-5.9,5.9V53H12.37V28.24H47.62ZM30,7.41,48.82,26.24H11.18Z" transform="translate(-7.77 -5)"/><path class="cls-1" d="M30,42.69A5.72,5.72,0,1,0,24.28,37,5.73,5.73,0,0,0,30,42.69Zm0-9.44A3.72,3.72,0,1,1,26.28,37,3.73,3.73,0,0,1,30,33.25Z" transform="translate(-7.77 -5)"/></svg>