<?xml version="1.0" encoding="utf-8"?>
<!-- Generator: Adobe Illustrator 24.2.3, SVG Export Plug-In . SVG Version: 6.00 Build 0)  -->
<svg version="1.1" id="Capa_1" xmlns="http://www.w3.org/2000/svg" xmlns:xlink="http://www.w3.org/1999/xlink" x="0px" y="0px"
	 viewBox="0 0 54.8 55.2" style="enable-background:new 0 0 54.8 55.2;" xml:space="preserve">
<style type="text/css">
	.st0{fill-rule:evenodd;clip-rule:evenodd;fill:#F7B731;}
</style>
<g>
	<path class="st0" d="M54.7,23.5c-7.4-1.4-15-0.3-21.4-1.2c-0.3-0.7,0.7-1.2,0-1.4c0,0.4-0.2,0.6-0.5,0.7c1.1-2,1.2-3.2,0.5-5.8
		c0.3,0,0.2,0.4,0.5,0.5c-0.7-4.4,0.3-9.5-0.2-15.1c-0.4-0.5-1.4-0.4-1.4-1.2c-0.4,0-0.8,0-1.2,0c-1.5,0.6-2.4,0.3-3.8,1
		c-0.4-0.9,0.8-0.1,0.7-0.7c-0.2-0.1-0.5,0-0.5-0.2c-0.1,0-0.2,0-0.2,0c-0.9,0.6-1.8,0.4-2.9,0.2c0-0.1,0-0.2,0-0.2
		c-0.1,0-0.2,0-0.2,0c-0.9,0.3-1.6,0.6-2.2,1.2c0.1,7.6,0,14,0,21.4C17,22,11.7,22.8,6.7,22.8c-2.6,0-5.6-1.4-6.7,1
		c0,2.9,0,5.8,0,8.6c0.4,0.2,0.4,0.8,0.7,1.2c6.8,0.7,15.1-0.4,21.6,0.2c0.9,7-0.7,14.5,1,21.4c3,0,6.1,0,9.1,0
		c1.3-7.1-0.2-15.4,0.7-22.1c7-0.2,14.7,0.3,21.4-0.2C55,30.2,54.6,26.6,54.7,23.5z M52.8,31c-7.2,0.5-14.2-0.8-21.6-0.2
		c-0.8,1.1-1.6,2.2-1.7,4.6c0.5,0.5,0.6,0.1,0.7,1.7c-0.9-1.8-0.7,2.4,0.2,2.9c-1.8,1.4-0.2,3.5-1,6c0.1,2.6,1.3,6.9-1,7
		c0-0.3,0.4-0.2,0.7-0.2c-0.9-1.1-2.8,0.2-3.6-0.5c-0.5-5.3,0.5-8.2-0.5-12.2c0.6-2.3,0.6-7.5-0.7-9.4c-8,0.2-12.8-0.3-21.1,0.2
		c-0.4-1.6,0.2-2.8,0-4.8c6.4-0.7,17.6,0.5,21.6-1c0-6.2-0.3-14.9,0-21.8c2,0.3,3.9,0,5.5,0.2c0.2,6.8,0.1,13.5,0.2,21.1
		c2.8,1.3,6.9,0.7,10.8,0.7c3.9,0,7.8-0.2,11,0.2C53.1,26.8,52.7,29.2,52.8,31z"/>
</g>
</svg>
