<?xml version="1.0" encoding="utf-8"?>
<!-- Generator: Adobe Illustrator 24.2.3, SVG Export Plug-In . SVG Version: 6.00 Build 0)  -->
<svg version="1.1" id="Capa_1" xmlns="http://www.w3.org/2000/svg" xmlns:xlink="http://www.w3.org/1999/xlink" x="0px" y="0px"
	 viewBox="0 0 54.5 54.5" style="enable-background:new 0 0 54.5 54.5;" xml:space="preserve">
<style type="text/css">
	.st0{fill-rule:evenodd;clip-rule:evenodd;fill:#F7B731;}
</style>
<path class="st0" d="M22.6,34.1c2.3,0.8,3.9,2.2,6.2,1.2c1.2-1.6,0.6-4.6,0.2-6.7c-1.9-1.3-4.4-0.3-6.2,0.2
	C22,30.3,22.8,31.9,22.6,34.1z M24.7,30.5c0.9,0.1,0.9,1,1.2,1.7c-0.4,0.2-0.8,0.3-1.2,0.2V30.5z"/>
<path class="st0" d="M50.9,7.9c-3.3,0.6-7.3-0.7-10.2-0.3c-0.1,0.1-0.4,0.1-0.6,0.1c0.2,0,0.4-0.1,0.6-0.1c0.1,0,0.1-0.1,0.1-0.2
	C39.2,8,38.4,7.1,37,8.2c0.1-0.6-0.3-0.8-1-0.7C31,7.8,26.4,7.1,22.5,8.2c1.1-1-0.4-0.2-1-0.7c0.1-0.9,0-1.9-0.2-2.8
	c-0.5-0.4-0.9-0.7-1.4-1h-4.8c-1.8,0.9-1.1,2.6-1.4,4.1C10.6,8,6,6.9,3.8,8.9C2.9,13.5,1.6,18.1,0,22.6v1.9c1.6,1.7,4.8-0.2,6.2,1
	C6.1,32.6,5.6,39.7,6,46.6c0.1,1.4,0.2,3.2,1.2,4.3c12.1-0.6,29.1,0.3,41.3-0.5c0.7-8.1-0.2-17.8,0.5-25.9c1.8-0.1,4.1,0.3,5.5-0.2
	C54,18.3,51.8,13.5,50.9,7.9z M16.8,6.5c0.9,0,1,0.9,1,1.9h-1.2C16.6,7.7,16.4,6.8,16.8,6.5z M40.6,48.5h-6c0.6-4.9,1.6-4.4,1-9.1
	c1.5-0.2,3-0.2,4.6,0C40.3,41.9,40.6,45.3,40.6,48.5z M46.6,48.5H43c-0.1-3.8,0.1-7.7,0.5-11.5c-2.6-1.1-2.8-2.1-5.8-1
	c1.1-1.1-1.9-0.4-2.6,0.2c-0.1-0.4,0.2-0.4,0.2-0.7c-2-0.3-2.3,0.6-3.4,0.5c-0.4,4.4-0.8,6.2,0.5,9.6c-0.3-0.1-0.4-0.4-0.7-0.5
	c0,1.2,0.3,1.4,0,2.4c-7.4,0.5-16.2,0.2-22.3,0.5C9.2,40.1,9.5,34,9.2,25.2c12.7-1,23.4-0.3,37.4-0.5L46.6,48.5z M3.1,22.6
	c0.6-4.1,2.3-5.7,2.9-9.9c0.5-0.4,0.5,0.2,1-0.2c-0.6-0.3-0.5-0.8-0.2-1.4c0.4,1.6,0.5-0.8,1.4,0c-0.9,0.7,1.7,0.8,2.6,0
	c-1.1,1.1,1.1,0.3,1.9,0c-0.5,0.6,0.1,0.3,0.2,0.7c2.4-0.7,5.7,0.5,8.4-1c-0.1,0.3-0.4,0.4-0.5,0.7C30,11.2,38,11.4,48.5,11
	c0.7,4.4,2.2,6.7,2.9,11C38,22.7,21.5,22.4,3.1,22.6z"/>
<path class="st0" d="M18,27.8c-1.3-0.5-2.9,0.4-4.6,0.5c-2,0.1-0.2,4.6-1,5.5c0.2,0,0.3,0.2,0.2,0.5c1,0.4,2.9,0.6,2.9,1.2
	c0.1-0.3,0.4-0.6,0.5-0.2c-0.3,0-0.1,0.3,0,0.5C20.4,37.2,20.7,28.9,18,27.8z M14.9,32.4c-0.5-0.2-0.1-1.4-0.2-1.9
	c1.1,0,1.1,1,1.2,1.9C15.3,32.7,14.9,31.8,14.9,32.4z"/>
<path class="st0" d="M12.5,39.1c-0.3,4.1,0.4,6.4,3.6,6c-0.1,0.3-0.3,0.4,0,0.7c1.2-0.5,0.9-0.1,2.6-0.5c1.3-2.1,0.8-5.2,0-7.2
	C16.6,37.6,14.4,38,12.5,39.1z M15.6,42.5c-0.4,0-0.6-0.4-0.7,0c-0.5-0.2-0.1-1.3-0.2-1.9h0.7C15.5,41.1,16.1,41.9,15.6,42.5z"/>
<path class="st0" d="M29.3,38.9c-0.8-1.6-4.5-0.8-6.5-0.2c-0.6,1.7-0.3,3.8,0,5.8c1.7,0.6,2.9,0.5,3.6,1.4c0.6-0.8,1.7,0.2,2.4-0.5
	C30.2,44,29.1,41.6,29.3,38.9z M25,42.5c-0.5-0.2-0.1-1.3-0.2-1.9h0.7c0,0.7,0.4,1,0.5,1.7C25.6,42.8,25,42,25,42.5z"/>
</svg>
