<?xml version="1.0" encoding="utf-8"?>
<!-- Generator: Adobe Illustrator 24.2.3, SVG Export Plug-In . SVG Version: 6.00 Build 0)  -->
<svg version="1.1" id="Capa_1" xmlns="http://www.w3.org/2000/svg" xmlns:xlink="http://www.w3.org/1999/xlink" x="0px" y="0px"
	 viewBox="0 0 52.4 52.4" style="enable-background:new 0 0 52.4 52.4;" xml:space="preserve">
<style type="text/css">
	.st0{fill:#F7B731;}
</style>
<g>
	<path class="st0" d="M-12,22.1L-12,22.1C-12,22.1-12,22.1-12,22.1z M62.4,29L62.4,29c0-0.1,0-0.1,0-0.2V29z M36.6,64.3L36.6,64.3
		l-0.2,0.3L36.6,64.3z M31.8,49.2c0.2-0.3-0.2-0.7,0-1.1L31.7,48l0,0l-0.1-0.1c0.1-0.1,0.2,0,0.2-0.2c0.1-0.2,0-0.4-0.1-0.6
		c0,0.1-0.1,0.1-0.1,0s0.1-0.2,0-0.2h0.1c-0.1,0-0.1-0.3-0.2-0.3c0.1-0.1,0.1,0.1,0.2,0.2c0-0.4,0-0.2,0-0.6c-0.1-0.2-0.1,0-0.2-0.1
		c0-0.2-0.1-0.4,0-0.6l-0.1,0.1c-0.1-0.3-0.1-0.5,0-0.8c-0.1-0.2-0.2-0.4-0.2-0.5v-0.5l0,0v-0.2H31c-0.2-0.2-0.5-0.4-1.1-0.6l0,0
		c-0.5-0.1-0.8-0.1-1.2,0.1c-0.1-0.2-0.4,0-0.5-0.1l0,0c-0.3,0.2-0.6-0.1-0.9,0c0,0,0-0.1,0.1-0.1c-0.2,0-0.5,0.1-0.5-0.1
		c-0.5,0-1.2,0-1.6,0.2l0,0c-0.2,0.1-0.2,0-0.5,0.1l0,0c-0.1,0.1-0.8,0-1,0.1l0-0.2h-0.6h0.2c0.1,0.1-0.1,0.1-0.4,0
		c0,0.1-0.1,0.3,0,0.5c0,0.2,0.1,0.5,0.2,0.7c0.1,0.2,0.2,0.4,0.2,0.5c0.1,0.1-0.2-0.1-0.1,0.1c-0.1,0-0.1-0.1-0.2,0
		c0.1,0.2-0.1,0.3,0,0.6H23c0.2,0.3-0.1,0.6,0,0.8c0.1,0.3-0.3,0.2-0.1,0.6l-0.1,0.1c0,0.1,0.2,0.1,0.1,0.3c-0.1,0-0.1,0.2-0.1,0.1
		c-0.1,0.4,0.2,0.8,0,1.2c0.2,0.1,0.1,0.4,0.2,0.4c-0.1,0,0,0.5-0.2,0.2V49h-0.1c-0.2,0.3,0.1,0.5,0.1,0.8c0-0.1,0-0.2,0.1-0.1V50
		l-0.1,0c0,0.1,0,0.4,0,0.6l0.1-0.1c-0.1,0.3-0.2,0.6-0.1,0.9c0.1,0.1,0.1-0.4,0.2-0.1c0,0.2-0.1,0.5-0.1,0.7c0.3,0,0.6,0.1,0.9,0.1
		c0-0.1,0.2-0.1,0.3-0.1v0.1c0.3-0.1,0.4,0,0.4,0l0.1,0.1c0.1,0,0.2,0,0.2,0v0.1l0.1-0.2c0.3-0.2,0.2,0.2,0.5-0.1
		c-0.1,0-0.1-0.2,0.1-0.2v0.1c0.1,0,0.1-0.1,0.2,0c-0.1,0.1,0,0.1,0.1,0.1l-0.1,0.1l0.3-0.2c0.2,0.1,0.5,0,0.6,0.1
		c0,0,0.4,0.1,0.5-0.1C27,52,27.2,52,27.2,52.1c0.1-0.1,0.4-0.2,0.6-0.1l0,0c0.5,0.1,0.8-0.2,1.2,0c0-0.1,0.2-0.1,0.2-0.2
		c0.4-0.1,0.8,0.3,1-0.2c0.2,0,0.3,0.1,0.5,0.1h-0.1c0.6,0,0.8,0,1.2,0c0.1,0,0.1-0.1,0.2-0.2c0-0.1-0.1-0.2,0-0.3
		c0.1,0.2,0.1,0,0.1-0.1c0,0.1,0,0.2,0.1,0c0,0,0-0.1-0.1-0.1l0,0c0-0.3-0.1-0.2-0.1-0.1c0,0,0,0-0.1,0c0.1-0.2,0-0.7,0.1-0.7
		c0-0.2,0-0.3,0-0.4s0-0.2-0.1-0.3c0-0.2-0.1-0.4-0.1-0.6C31.7,49,31.8,49.1,31.8,49.2v-0.3C31.9,48.9,31.8,49.1,31.8,49.2z
		 M30.4,0.8c0,0-0.1-0.1-0.4-0.1L30.4,0.8z M28.9,6.9L28.9,6.9L28.9,6.9z M18.7,3.5L19,3.4c-1.3,1-2,1.7-2.9,2.5
		c-0.6,0.8-1.1,1.6-1.4,2.3c-0.5,0.9-1,1.9-1.4,2.9c-0.1,0.2-0.1,0.4-0.2,0.6c-0.1,0.2-0.3,0.5-0.4,0.9c-0.2,0.5-0.4,1-0.6,1.8
		c-0.1,0.4-0.2,0.8-0.3,1.2c0,0.2-0.1,0.5-0.1,0.7v0.2v0.3c0,0.2,0,0.4,0,0.6v-0.2c0,0.2,0,0.5,0,0.7v0.3c0.1,0,0.2,0,0.3,0
		c0.4,0,0.9,0,1.3,0c0.5,0,1,0,1.5,0c0.4,0,0.9,0,1.3,0c0.4,0,0.9-0.1,1.3-0.1c0.2,0.1,0.8,0.1,1.5,0.1c0-0.5,0-1,0-1.5
		c0-0.2,0-0.3,0-0.5c0-0.1,0-0.2,0-0.3V16c-0.1-1.4,0.6-2.9,0.9-4.1c0,0.1,0,0.1-0.1,0.4c0.3-0.9,1-2,1.1-2c0.6-0.9,1.7-1.8,2.8-2.4
		c1.1-0.6,2.2-0.8,3-1h-0.1c0.8-0.2,1.1-0.1,2.1-0.1c0.1,0,0.1,0,0.1,0c0.5,0,1.1,0.1,1.8,0.3c0.6,0.2,1.2,0.5,1.5,0.7v0.1
		c0.5,0.3,1,0.7,1.4,1.1c-0.1-0.2-0.3-0.3-0.5-0.5c0.4,0,0.9,1,1.6,2.1c0.5,1.1,1.3,2.3,1.3,3.7c0.1,0.6-0.2-0.6-0.1,0.4
		c-0.1,0-0.1-0.4-0.2-0.2c0.1,0.9-0.1,1.5-0.3,2.6h-0.1c-0.1,0.7-0.4,1.3-0.7,1.9c-0.3,0.6-0.7,1-0.9,1.5c-0.7,1.4-0.7,0.8-1.7,2.1
		L31.3,23c-0.5,0.5-0.2,0.5-0.8,1c0-0.1-0.8,0.6-0.5,0.3c-0.7,0.6-1.4,1.3-2,2c-0.6,0.8-1.3,1.6-2.1,2.6c-0.2,0.5-0.8,1.6-0.9,2
		c0,0-0.3,0.6-0.5,1c-0.1,0.4-0.3,0.7-0.1,0c0-0.1,0.1-0.3,0.1-0.3v-0.2c-0.7,1.3-0.6,2.6-0.8,3.9c0.1-0.4,0.1-1,0.2-0.6
		c-0.1,0.4-0.1,0.8-0.1,1.3l-0.1-0.3c0,0.7,0,1.3-0.1,1.9l0.1-0.3c0,0.2,0,0.4,0,0.5c0,0.2,0,0.3-0.1,0.6c0,0.5-0.1,1.1,0,1.7
		c0.2,0,0.4,0,0.6,0c0.8-0.1-1.4-0.1,0.3-0.2c1.2,0,1.8,0.1,2.6,0.1c0.4,0,0.8,0,1.2,0.1c0.2,0,0.4,0,0.6,0c0.3,0,0.5,0,0.8,0
		C29.4,40,30.2,40,30.9,40l0.2,0.1c0.1,0,0.1,0,0.2,0c-0.1-1.4,0-1.6,0.1-1.9c0.1-0.2,0.1-0.3,0.1-1.1l0.1,0.1l-0.2-0.4
		c-0.1-0.7,0-0.9,0-1.1c0.1-0.2,0.1-0.4,0.1-1.2c-0.1,0.6-0.3,0.2-0.1-0.5v0.2c0.1-0.4,0.1-0.5,0.2-0.8c0,0.2,0.1,0.2,0.3-0.4v0.4
		c0.1-0.4,0.2-0.7,0.3-1.1c0.5-0.7,1.2-1.9,1.6-2.1c0,0,0.3-0.4,0.7-0.8c0.4-0.4,0.8-0.8,0.9-1c-0.2,0.3,0.6-0.4,0.4-0.1
		c0.3-0.4,1.4-1.6,1.9-2l-0.1,0.1c0.8-0.8,1.5-1.5,2.1-2.3s1.1-1.6,1.7-2.5c-0.1,0,0.4-1,0.2-0.8c0.4-1,0.8-2,1.1-2.8
		c0.2-0.8,0.3-1.5,0.1-1.9c0.1-1,0.2-1.2,0.2-1.7v0.2c-0.1-1.9-0.2-2.4-0.4-3.8c-0.2-0.7-0.4-0.7-0.8-1.9c0.2,0.4,0-0.1-0.2-0.6
		c0.1,0.3,0.2,0.3,0-0.2c-0.1-0.1-0.1-0.2-0.2-0.3l0,0C41,7.1,41,7.3,41.2,7.6c0,0,0,0,0,0.1C41,6.9,40,5.8,40,5.6
		c-1.5-1.9-3.1-2.7-4.8-3.5C35.1,2,35.4,2,35.8,2.2c-0.4-0.2-0.7-0.3-1.1-0.5c0.1-0.1,0.8,0.3,1.1,0.5c-1.4-0.9-3.2-1.2-5.1-1.6
		h-0.4h-0.1c0,0-0.4,0.1-0.7,0s0-0.2-0.9-0.3c-0.7-0.1-2.1,0-3.1,0.2c0.5,0,0.4,0,0.1,0.1c-0.5,0.1-0.8,0-1.1,0.1l0.1,0.1
		c0.2,0.1-1.2,0.4-1.3,0.5C23,1.3,24,1,24.1,1c-0.9,0.2-1.2,0.3-1.4,0.4s-0.5,0.1-1.4,0.5c-0.9,0.5,0.2,0-0.2,0.3
		C20.3,2.5,19.6,3,18.7,3.5z M5-16.7v0.2C5.1-16.6,5.1-16.6,5-16.7z M6.4-11.1L6.4-11.1L6.4-11.1L6.4-11.1z M17-13.4L17-13.4
		l0.3-0.1L17-13.4z"/>
</g>
</svg>
