<?xml version="1.0" encoding="utf-8"?>
<!-- Generator: Adobe Illustrator 24.2.3, SVG Export Plug-In . SVG Version: 6.00 Build 0)  -->
<svg version="1.1" id="Capa_1" xmlns="http://www.w3.org/2000/svg" xmlns:xlink="http://www.w3.org/1999/xlink" x="0px" y="0px"
	 viewBox="0 0 51.6 51.6" style="enable-background:new 0 0 51.6 51.6;" xml:space="preserve">
<style type="text/css">
	.st0{fill-rule:evenodd;clip-rule:evenodd;fill:#F7B731;}
	.st1{fill:#F7B731;}
</style>
<g>
	<path class="st0" d="M28,0.6C21.6,0.1,18.8,1.1,14.8,3c-0.7,0.2-0.6-0.3-1.2-0.2C12.5,5,10.8,4,10,6.1c-1,0.1-0.7,0.1-1.7,0
		C7.6,7,8,7.7,7.1,8.5c0-0.3,0.1-0.5,0.2-0.7C6.6,8.5,5.5,9,5.7,10.6c-0.8-0.3-0.6-0.1-1.2,0.2c-1.8,3.5-4.1,7.3-3.4,11
		c-0.5-0.2-0.2-0.7-0.7-0.2c-0.3,0.9,0.6,1.5-0.2,1.7c0,1.2,0,2.4,0,3.6C1.1,36.7,6.6,43.4,13.4,48c2.7,0.5,4.9,2.9,7.4,2.2
		c8.9,2.5,17.3-0.7,22.6-6c4.1-4.1,7.3-9.9,7.9-16.6C52.6,13.7,42,1.6,28,0.6z M48.9,28.9c-1.5,11.8-13.7,22.6-27.1,19.2
		c-2-0.5-3.2-1.8-5.8-2.2c-0.1-0.5-0.7-0.5-0.2-1c-1.6,0.3-2.2-1.6-4.1-1.7c0.2-0.8-0.4-1,0-1.4c-0.3-0.8-1.6-0.7-2.2-1.2
		c0.1-0.4,0.3,0.1,0.7,0c-0.8-0.4-1-1.6-2.3-1.6c0.1-0.5,0.7-0.5,0.2-1c-2.3-2.3-2.1-6.1-4.6-8.6c0.2-0.7,0.4-0.3,1-0.2
		c-1.2-3.8,0.3-9.4,1-12.5c1.4-1.2,2.2-3.1,2.9-5c1.9-1.2,3.3-2.9,4.8-4.6c3.4-1.2,6.3-3.5,10.1-3.8c8.1-0.8,16.2,3,21.1,8.2
		C47.5,16.4,49.8,22,48.9,28.9z"/>
</g>
<g>
	<path class="st1" d="M-2.8,23.1L-2.8,23.1L-2.8,23.1z M54.4,28.4L54.4,28.4c0-0.1,0-0.1,0-0.2V28.4z M34.6,55.5L34.6,55.5l-0.2,0.2
		L34.6,55.5z M30.9,43.9c0.2-0.2-0.2-0.5,0-0.8l-0.1-0.1l0,0l-0.1-0.1c0.1-0.1,0.2,0,0.2-0.2c0.1-0.2,0-0.3-0.1-0.5
		c0,0.1-0.1,0.1-0.1,0c0-0.1,0.1-0.2,0-0.2h0.1c-0.1,0-0.1-0.2-0.2-0.2c0.1-0.1,0.1,0.1,0.2,0.2c0-0.3,0-0.2,0-0.5
		c-0.1-0.2-0.1,0-0.2-0.1c0-0.2-0.1-0.3,0-0.5l-0.1,0.1c-0.1-0.2-0.1-0.4,0-0.6c-0.1-0.2-0.2-0.3-0.2-0.4v-0.4l0,0v-0.2h-0.2
		c-0.2-0.2-0.4-0.3-0.8-0.5l0,0C29,39,28.8,39,28.5,39.2c-0.1-0.2-0.3,0-0.4-0.1l0,0c-0.2,0.2-0.5-0.1-0.7,0c0,0,0-0.1,0.1-0.1
		c-0.2,0-0.4,0.1-0.4-0.1c-0.4,0-0.9,0-1.2,0.2l0,0c-0.2,0.1-0.2,0-0.4,0.1l0,0c-0.1,0.1-0.6,0-0.8,0.1v-0.2h-0.5h0.2
		c0.1,0.1-0.1,0.1-0.3,0c0,0.1-0.1,0.2,0,0.4c0,0.2,0.1,0.4,0.2,0.5s0.2,0.3,0.2,0.4c0.1,0.1-0.2-0.1-0.1,0.1c-0.1,0-0.1-0.1-0.2,0
		c0.1,0.2-0.1,0.2,0,0.5h-0.1c0.2,0.2-0.1,0.5,0,0.6c0.1,0.2-0.2,0.2-0.1,0.5L24,42.1c0,0.1,0.2,0.1,0.1,0.2c-0.1,0-0.1,0.2-0.1,0.1
		c-0.1,0.3,0.2,0.6,0,0.9c0.2,0.1,0.1,0.3,0.2,0.3c-0.1,0,0,0.4-0.2,0.2v-0.1h-0.1c-0.2,0.2,0.1,0.4,0.1,0.6c0-0.1,0-0.2,0.1-0.1
		v0.2H24c0,0.1,0,0.3,0,0.5l0.1-0.1c-0.1,0.2-0.2,0.5-0.1,0.7c0.1,0.1,0.1-0.3,0.2-0.1c0,0.2-0.1,0.4-0.1,0.5c0.2,0,0.5,0.1,0.7,0.1
		c0-0.1,0.2-0.1,0.2-0.1v0.1c0.2-0.1,0.3,0,0.3,0l0.1,0.1c0.1,0,0.2,0,0.2,0v0.1l0.1-0.2c0.2-0.2,0.2,0.2,0.4-0.1
		c-0.1,0-0.1-0.2,0.1-0.2v0.1c0.1,0,0.1-0.1,0.2,0c-0.1,0.1,0,0.1,0.1,0.1l-0.1,0.1l0.2-0.2c0.2,0.1,0.4,0,0.5,0.1
		c0,0,0.3,0.1,0.4-0.1c-0.1,0.1,0.1,0.1,0.1,0.2c0.1-0.1,0.3-0.2,0.5-0.1l0,0c0.4,0.1,0.6-0.2,0.9,0c0-0.1,0.2-0.1,0.2-0.2
		c0.3-0.1,0.6,0.2,0.8-0.2c0.2,0,0.2,0.1,0.4,0.1h-0.1c0.5,0,0.6,0,0.9,0c0.1,0,0.1-0.1,0.2-0.2c0-0.1-0.1-0.2,0-0.2
		c0.1,0.2,0.1,0,0.1-0.1c0,0.1,0,0.2,0.1,0c0,0,0-0.1-0.1-0.1l0,0c0-0.2-0.1-0.2-0.1-0.1c0,0,0,0-0.1,0c0.1-0.2,0-0.5,0.1-0.5
		c0-0.2,0-0.2,0-0.3c0-0.1,0-0.2-0.1-0.2c0-0.2-0.1-0.3-0.1-0.5C30.8,43.7,30.9,43.8,30.9,43.9v-0.2C30.9,43.6,30.9,43.8,30.9,43.9z
		 M29.8,6.7c0,0-0.1-0.1-0.3-0.1L29.8,6.7z M28.6,11.4L28.6,11.4L28.6,11.4z M20.8,8.8L21,8.7c-1,0.8-1.5,1.3-2.2,1.9
		c-0.5,0.6-0.8,1.2-1.1,1.8c-0.4,0.7-0.8,1.5-1.1,2.2c-0.1,0.2-0.1,0.3-0.2,0.5c-0.1,0.2-0.2,0.4-0.3,0.7c-0.2,0.4-0.3,0.8-0.5,1.4
		c-0.1,0.3-0.2,0.6-0.2,0.9c0,0.2-0.1,0.4-0.1,0.5v0.2V19c0,0.2,0,0.3,0,0.5v-0.2c0,0.2,0,0.4,0,0.5v0.2c0.1,0,0.2,0,0.2,0
		c0.3,0,0.7,0,1,0c0.4,0,0.8,0,1.2,0c0.3,0,0.7,0,1,0c0.3,0,0.7-0.1,1-0.1c0.2,0.1,0.6,0.1,1.2,0.1c0-0.4,0-0.8,0-1.2
		c0-0.2,0-0.2,0-0.4c0-0.1,0-0.2,0-0.2v0.1c-0.1-1.1,0.5-2.2,0.7-3.1c0,0.1,0,0.1-0.1,0.3c0.2-0.7,0.8-1.5,0.8-1.5
		c0.5-0.7,1.3-1.4,2.1-1.8c0.8-0.5,1.7-0.6,2.3-0.8h-0.1c0.6-0.2,0.8-0.1,1.6-0.1c0.1,0,0.1,0,0.1,0c0.4,0,0.8,0.1,1.4,0.2
		c0.5,0.2,0.9,0.4,1.2,0.5v0.1c0.4,0.2,0.8,0.5,1.1,0.8c-0.1-0.2-0.2-0.2-0.4-0.4c0.3,0,0.7,0.8,1.2,1.6c0.4,0.8,1,1.8,1,2.8
		c0.1,0.5-0.2-0.5-0.1,0.3c-0.1,0-0.1-0.3-0.2-0.2c0.1,0.7-0.1,1.2-0.2,2h-0.1c-0.1,0.5-0.3,1-0.5,1.5c-0.2,0.5-0.5,0.8-0.7,1.2
		c-0.5,1.1-0.5,0.6-1.3,1.6l-0.4,0.3c-0.4,0.4-0.2,0.4-0.6,0.8c0-0.1-0.6,0.5-0.4,0.2c-0.5,0.5-1.1,1-1.5,1.5c-0.5,0.6-1,1.2-1.6,2
		c-0.2,0.4-0.6,1.2-0.7,1.5c0,0-0.2,0.5-0.4,0.8c-0.1,0.3-0.2,0.5-0.1,0c0-0.1,0.1-0.2,0.1-0.2v-0.2c-0.5,1-0.5,2-0.6,3
		c0.1-0.3,0.1-0.8,0.2-0.5c-0.1,0.3-0.1,0.6-0.1,1l-0.1-0.2c0,0.5,0,1-0.1,1.5l0.1-0.2c0,0.2,0,0.3,0,0.4c0,0.2,0,0.2-0.1,0.5
		c0,0.4-0.1,0.8,0,1.3c0.2,0,0.3,0,0.5,0c0.6-0.1-1.1-0.1,0.2-0.2c0.9,0,1.4,0.1,2,0.1c0.3,0,0.6,0,0.9,0.1c0.2,0,0.3,0,0.5,0
		c0.2,0,0.4,0,0.6,0c-0.2-0.1,0.4-0.1,0.9-0.1l0.2,0.1c0.1,0,0.1,0,0.2,0c-0.1-1.1,0-1.2,0.1-1.5c0.1-0.2,0.1-0.2,0.1-0.8l0.1,0.1
		l-0.2-0.3c-0.1-0.5,0-0.7,0-0.8c0.1-0.2,0.1-0.3,0.1-0.9c-0.1,0.5-0.2,0.2-0.1-0.4v0.2c0.1-0.3,0.1-0.4,0.2-0.6
		c0,0.2,0.1,0.2,0.2-0.3v0.3c0.1-0.3,0.2-0.5,0.2-0.8c0.4-0.5,0.9-1.5,1.2-1.6c0,0,0.2-0.3,0.5-0.6s0.6-0.6,0.7-0.8
		c-0.2,0.2,0.5-0.3,0.3-0.1c0.2-0.3,1.1-1.2,1.5-1.5l-0.1,0.1c0.6-0.6,1.2-1.2,1.6-1.8c0.5-0.6,0.8-1.2,1.3-1.9
		c-0.1,0,0.3-0.8,0.2-0.6c0.3-0.8,0.6-1.5,0.8-2.1c0.2-0.6,0.2-1.2,0.1-1.5c0.1-0.8,0.2-0.9,0.2-1.3v0.2c-0.1-1.5-0.2-1.8-0.3-2.9
		c-0.2-0.5-0.3-0.5-0.6-1.5c0.2,0.3,0-0.1-0.2-0.5c0.1,0.2,0.2,0.2,0-0.2c-0.1-0.1-0.1-0.2-0.2-0.2l0,0c-0.3-0.5-0.3-0.4-0.2-0.2
		c0,0,0,0,0,0.1c-0.2-0.6-0.9-1.5-0.9-1.6c-1.2-1.5-2.4-2.1-3.7-2.7c-0.1-0.1,0.2-0.1,0.5,0.1c-0.3-0.2-0.5-0.2-0.8-0.4
		c0.1-0.1,0.6,0.2,0.8,0.4c-1.1-0.7-2.5-0.9-3.9-1.2h-0.3h-0.1c0,0-0.3,0.1-0.5,0c-0.2-0.1,0-0.2-0.7-0.2c-0.5-0.1-1.6,0-2.4,0.2
		c0.4,0,0.3,0,0.1,0.1c-0.4,0.1-0.6,0-0.8,0.1l0.1,0.1c0.2,0.1-0.9,0.3-1,0.4c-0.2,0,0.5-0.2,0.6-0.2C24.3,7,24,7.1,23.9,7.2
		c-0.2,0.1-0.4,0.1-1.1,0.4c-0.7,0.4,0.2,0-0.2,0.2C22,8,21.5,8.4,20.8,8.8z M10.3-6.7v0.2C10.4-6.7,10.4-6.7,10.3-6.7z M11.4-2.4
		L11.4-2.4L11.4-2.4L11.4-2.4z M19.5-4.2L19.5-4.2l0.2-0.1L19.5-4.2z"/>
</g>
</svg>
