<svg id="Capa_1" data-name="Capa 1" xmlns="http://www.w3.org/2000/svg" viewBox="0 0 50 42"><path d="M40,11c-7.69,0-14.2,4.23-16.29,10C14.47,21.14,7,27.36,7,35a12.6,12.6,0,0,0,4,9v8a1,1,0,0,0,1.64.77l5.54-4.62A20.14,20.14,0,0,0,24,49c7.69,0,14.2-4.23,16.29-10a20,20,0,0,0,5.53-.84l5.54,4.62A1,1,0,0,0,53,42V34a12.6,12.6,0,0,0,4-9C57,17.28,49.37,11,40,11ZM51,33.58v6.29l-4.33-3.6a1,1,0,0,0-1-.18,18.23,18.23,0,0,1-4.91.88A11.84,11.84,0,0,0,41,35a12.06,12.06,0,0,0-2.3-7h3.81l1.55,4.34a1,1,0,0,0,1.28.6,1,1,0,0,0,.6-1.27h0l-5-14a1,1,0,0,0-1.88,0l-2.75,7.71a18.5,18.5,0,0,0-10.47-4.29C27.87,16.39,33.44,13,40,13c8.27,0,15,5.38,15,12a10.69,10.69,0,0,1-3.68,7.84A1,1,0,0,0,51,33.58ZM24,47a18.21,18.21,0,0,1-5.72-.91,1,1,0,0,0-1,.18L13,49.87V43.58a1,1,0,0,0-.32-.74A10.69,10.69,0,0,1,9,35c0-6.62,6.73-12,15-12s15,5.38,15,12S32.27,47,24,47ZM38.2,26,40,21l1.8,5Z" transform="translate(-7 -11)"/><path d="M27,33.59c0-.33,0-.54,0-.59a1,1,0,0,0-2,0v.13A15.51,15.51,0,0,0,23.07,33c0-.63.08-1.21.12-1.72a11.41,11.41,0,0,0,3.36-1.45,1,1,0,0,0,.3-1.38,1,1,0,0,0-1.39-.29h0a8.65,8.65,0,0,1-2,.93,8,8,0,0,1,.42-1.67,1,1,0,0,0-.47-1.33,1,1,0,0,0-1.32.45,10.71,10.71,0,0,0-.74,3.1A21.28,21.28,0,0,1,18,30a1,1,0,0,0,0,2,22.21,22.21,0,0,0,3.15-.28q-.06.69-.09,1.5A4.86,4.86,0,0,0,17,38a3.83,3.83,0,0,0,3.66,4H21a5.23,5.23,0,0,0,1-.09,3.87,3.87,0,0,0,1.58,2,1,1,0,0,0,1-1.75h0a2.66,2.66,0,0,1-.68-1c1.79-1.26,2.58-3.64,2.92-5.52C28.19,36.21,29,37.12,29,38a3.44,3.44,0,0,1-2.32,3,1,1,0,1,0,.64,1.9c.15-.05,3.68-1.27,3.68-5C31,36.25,29.63,34.48,27,33.59ZM21,40a1.88,1.88,0,0,1-2-1.76A1,1,0,0,1,19,38a2.8,2.8,0,0,1,2-2.68c0,.23,0,.44,0,.68a18.87,18.87,0,0,0,.37,4Zm2.22-1A17.75,17.75,0,0,1,23,36c0-.35,0-.68,0-1a11.88,11.88,0,0,1,1.79.13A7.83,7.83,0,0,1,23.22,39Z" transform="translate(-7 -11)"/></svg>