<?xml version="1.0" encoding="utf-8"?>
<!-- Generator: Adobe Illustrator 24.2.3, SVG Export Plug-In . SVG Version: 6.00 Build 0)  -->
<svg version="1.1" id="Capa_1" xmlns="http://www.w3.org/2000/svg" xmlns:xlink="http://www.w3.org/1999/xlink" x="0px" y="0px"
	 viewBox="0 0 52.4 52.4" style="enable-background:new 0 0 52.4 52.4;" xml:space="preserve">
<style type="text/css">
	.st0{fill-rule:evenodd;clip-rule:evenodd;fill:#F7B731;}
</style>
<g>
	<g>
		<path class="st0" d="M7.9,12.3c-1.4,2-0.5,5.4,3.1,5C14,14.8,11.4,11.8,7.9,12.3z"/>
		<path class="st0" d="M49.9,26.2c2.2-1.8,1.7-6.9-1-7.7c2.5-1.2,1.4-5.6,1-7.4c-0.2,0.1-1.2,0-1.4-1c1.6,0.1,0.4-0.7,0.7-2.2
			c0.3-1.3,1.2-1.4,1.2-2.2c0-1.6-1.6-1.9-2.2-2.6c0.1-0.8,0.6,0.8,0.7,0C48.6,2,47.4,2.8,47,1.5c-1.7,0.2-1.8,0.2-2.2-0.7
			c-1.4-0.3-2.3,0.8-2.6-0.2c-1,0-1.9,0-2.9,0c0,0.2,0,0.3,0,0.5c-0.7-0.5-2.5,0.1-3.1-0.5c-0.6,0-1.3,0-1.9,0
			c-0.9,0.5-2.4,0.4-3.1,1.2c-0.6-0.6,0.6-0.3,0-1c-2.9,0.3-4.5,1.9-7.7,3.1c-4,1.5-10.2,1.4-15.4,1.4C4.9,5.3,0.6,4.1,0.4,7
			c0,5,0,10.1,0,15.1c0.7,0,0.2,1.7,0,2.2c0,2.1,0,4.2,0,6.2c0.5,1,0,3,0.7,3.8c7.8,0.4,15.4-0.7,22.6-0.2c0.8,1.7,2.3,3.7,3.6,6.2
			c1.9,3.5,2.1,10.8,6.2,11.5c2.5,0.5,5.2-1,5.8-3.4c1.1-5.2-3.5-7.5-3.1-12.7c4.3-0.6,8.6,0.8,12.2,0
			C53.1,34.8,53.2,28.7,49.9,26.2z M16.3,11.5c0,6.3,0.5,13.4,0.2,19.7c-5.2-0.2-8,0.6-13.2,0.5c0.1-8.1,0-15.5,0-24
			c3.2,0.1,4.1,0.7,6.5,0.5c0.6,0,0.3,0.2,0.2,0.5c0.7-0.3,1.9-0.2,2.6-0.5c-0.1,0.4-0.4,0.5-1,0.5c0.1,0.6,1.1,0.1,1-0.2
			c0.3,0.1,0.1,0.7,0.5,0.7c0.8,0.2,0.3-1,1.2-0.7c-0.1,0.2-0.2,0.4-0.2,0.7c0.3-0.9,1.2,0.3,1.2-1c0.5,0.1,0,1.1,1,0.7
			c-0.1,1.4-0.2,2,0.7,2.6C16.9,11.9,16.7,11.4,16.3,11.5z M50.1,31.9c-1.2,4.4-12.8,0-16.1,1.7c-0.4,0.3,0,0.6,0,0.2
			c0.1,0.8-1.2,3.9,0.5,4.6c-0.1,0.6-0.6,0.6-0.7,0c-0.1,1,0.3,2.5,1.1,3.6c0,0-0.1,0-0.1,0c-0.1,0.7,0.9,2.1,1.4,2.9
			c-1.1,0.2-0.1,1.7,0.2,1.9c-0.6,0-0.4,2.5-2.9,1.9c0.9-0.7-1.3-1.8-1.7-2.9c0.3,0.3,0.4,0.1,0.7,0c-1.4-5.2-4.5-10.1-7.2-14.6
			c-1.5-0.6-4.7,0-5.5,0c-0.1-7.6-0.1-14.7,0-22.8c0.9-0.8,1.8-0.4,2.9-0.7c3.3-1,6.8-3.8,11-3.6c3.4,0.2,17.3-2.4,12,5.3
			c-1.4,0-2.4,0.3-2.6,1.4c0.1,1.5,1.9,1.1,3.4,1.2c1.6,0.9,1.9,4.2,0.2,5.3c-1.1,0.2-2.4,0.3-2.6,1.4c0.6,1.8,3.1,0.6,4.3,1.9
			c1.1,1.2,1,3.1-0.2,4.6c-0.9,0.4-2.1,0.4-2.9,1c0,0.4,0,0.8,0,1.2C48.1,27.9,51,28.8,50.1,31.9z M35.2,42.5
			c-0.1,0-0.2-0.1-0.2-0.3C35.1,42.3,35.2,42.4,35.2,42.5z"/>
	</g>
</g>
</svg>
