<svg id="ae81c40f-6eb7-45b1-b509-6cf6baf1840d" xmlns="http://www.w3.org/2000/svg" viewBox="0 0 536.11 607.02"><defs><style>.cls-1{fill:#26de81;}.cls-2{fill:#666;}.cls-3{fill:#2f2e41;}.cls-4{fill:#fff;}.cls-5{fill:#fed330;}</style></defs><rect class="cls-1" x="74.81" y="186.04" width="405.24" height="2"/><rect class="cls-1" x="276.11" y="1" width="2" height="186.04"/><rect class="cls-1" x="106.46" y="93.02" width="341.3" height="2"/><path class="cls-2" d="M470.54,330.34A42,42,0,0,1,460.15,358c-.6.69-1.23,1.35-1.87,2h-59.5c-.64-.65-1.27-1.31-1.87-2a41.88,41.88,0,0,1-8.59-15.45s0,0,0,0a42,42,0,0,1-1.8-12.2,41.27,41.27,0,0,1,.31-5.09,42,42,0,0,1,83.39-.11A43.08,43.08,0,0,1,470.54,330.34Z" transform="translate(-128.89 0)"/><polygon class="cls-3" points="246.69 360 241.55 360 245.54 358 245.66 357.94 245.69 358 246.69 360"/><polygon class="cls-3" points="281.72 360 276.58 360 277.58 358 277.61 357.94 277.73 358 281.72 360"/><circle class="cls-4" cx="296.7" cy="320.07" r="14.36"/><ellipse class="cls-2" cx="420.69" cy="322.92" rx="4.77" ry="4.8" transform="translate(-234.01 392.05) rotate(-45)"/><path class="cls-5" d="M461.67,284.64c.63-15.56-12.77-28.73-29.94-29.43s-31.6,11.35-32.23,26.9S410.8,301.2,428,301.9,461,300.19,461.67,284.64Z" transform="translate(-128.89 0)"/><path class="cls-4" d="M440.07,346.9a9.57,9.57,0,0,1-18.84,3.43v0c-.94-5.2,3.08-7,8.28-8S439.13,341.7,440.07,346.9Z" transform="translate(-128.89 0)"/><path class="cls-1" d="M647,358H155a18,18,0,0,0,0,36H647a18,18,0,0,0,0-36Z" transform="translate(-128.89 0)"/><path class="cls-2" d="M610,204V359h-2V204q0-8.06-.63-16c0-.67-.1-1.33-.16-2A200.59,200.59,0,0,0,576,95l-1.3-2A202,202,0,0,0,407,2h-2q-5.69,0-11.28.36A200.61,200.61,0,0,0,327.12,18a203.25,203.25,0,0,0-89.83,75L236,95a200.59,200.59,0,0,0-31.2,91c-.06.67-.11,1.33-.16,2q-.63,7.91-.63,16V359h-2V204q0-9.12.79-18A203.86,203.86,0,0,1,394.64.32Q400.28,0,406,0A204.23,204.23,0,0,1,609.21,186Q610,194.9,610,204Z" transform="translate(-128.89 0)"/><path class="cls-2" d="M349.64,502.07c56.61,1,56.6,85.18,0,86.14C293,587.24,293,503,349.64,502.07Z" transform="translate(-128.89 0)"/><rect class="cls-2" x="201.12" y="578.94" width="13.08" height="23.44"/><rect class="cls-2" x="227.29" y="578.94" width="13.08" height="23.44"/><path class="cls-2" d="M340.91,598.57c14.14-.1,14.14,8.28,0,8.17C326.78,606.84,326.78,598.47,340.91,598.57Z" transform="translate(-128.89 0)"/><path class="cls-2" d="M367.08,598c14.14-.1,14.14,8.28,0,8.18C352.94,606.3,352.94,597.92,367.08,598Z" transform="translate(-128.89 0)"/><path class="cls-4" d="M350.73,519.52c19.25.09,19.24,29.35,0,29.44C331.48,548.87,331.48,519.6,350.73,519.52Z" transform="translate(-128.89 0)"/><path class="cls-2" d="M350.73,529.33c6.36-.09,6.36,9.91,0,9.81C344.36,539.24,344.36,529.24,350.73,529.33Z" transform="translate(-128.89 0)"/><path class="cls-4" d="M307.86,505.09c-8.09-36.89,53.89-50.72,62.25-13.9,3.48,15.57-7.92,21.32-25.11,25.16S311.34,520.66,307.86,505.09Z" transform="translate(-128.89 0)"/><path class="cls-2" d="M368.41,386.46c10-26.28,22.68-21.44,12.63,4.82S358.36,412.72,368.41,386.46Z" transform="translate(-128.89 0)"/><path class="cls-2" d="M292.4,414.49c10-55.72,93.15-42.23,85,13.8C367.4,484,284.28,470.52,292.4,414.49Z" transform="translate(-128.89 0)"/><rect class="cls-2" x="186.4" y="455.19" width="13.08" height="23.44"/><rect class="cls-2" x="212.57" y="455.19" width="13.08" height="23.44"/><path class="cls-2" d="M326.19,474.82c14.14-.1,14.14,8.27,0,8.17C312.06,483.09,312.06,474.72,326.19,474.82Z" transform="translate(-128.89 0)"/><path class="cls-2" d="M352.36,474.27c14.14-.1,14.14,8.28,0,8.18C338.22,482.55,338.22,474.17,352.36,474.27Z" transform="translate(-128.89 0)"/><path class="cls-5" d="M293.14,381.34c-8.09-36.89,53.89-50.72,62.25-13.9,3.48,15.57-7.92,21.32-25.11,25.16S296.62,396.91,293.14,381.34Z" transform="translate(-128.89 0)"/><path class="cls-2" d="M267,392.18c3.05-8.19,43.33,10.92,38.91,18.46C302.82,418.83,262.53,399.72,267,392.18Z" transform="translate(-128.89 0)"/><ellipse class="cls-2" cx="472.21" cy="346.4" rx="6.59" ry="21.01" transform="translate(-240.61 391.15) rotate(-40.65)"/><ellipse class="cls-2" cx="384.97" cy="346.4" rx="21.01" ry="6.59" transform="translate(-257.51 412.87) rotate(-49.35)"/><path class="cls-1" d="M510.89,607h-381a1,1,0,0,1,0-2h381a1,1,0,0,1,0,2Z" transform="translate(-128.89 0)"/><path class="cls-2" d="M186.53,606.23c-.77,1.77-3.35.24-2.59-1.51a100.77,100.77,0,0,0,7.17-25.9,109.44,109.44,0,0,0-3.45-45.66l-.48-1.6c-.38-1.22-.78-2.44-1.2-3.64a103,103,0,0,0-22.68-37.46c-1.33-1.4.79-3.52,2.12-2.12a103.43,103.43,0,0,1,16.34,22.52,107.34,107.34,0,0,1,5.58,12.08c.63,1.61,1.22,3.24,1.78,4.87a114.23,114.23,0,0,1,5.81,30.06A107.2,107.2,0,0,1,186.53,606.23Z" transform="translate(-128.89 0)"/><path class="cls-2" d="M209.43,453.4q-5,18.28-10,36.57-5.17,18.93-10.33,37.84c-.49,1.79-1,3.58-1.46,5.35l-.48-1.6c-.38-1.22-.78-2.44-1.2-3.64q.68-2.49,1.36-5l1.86-6.81,17.34-63.53a1.5,1.5,0,0,1,2.89.8Z" transform="translate(-128.89 0)"/><path class="cls-5" d="M147.74,457.77c-1.75,3.84-3.51,7.72-4.27,11.87s-.41,8.65,1.84,12.22a20.19,20.19,0,0,0,7.42,6.46c4.18,2.39,9.63,4.08,13.63,1.39s4.48-8.83,2.21-13.14-6.48-7.2-10.58-9.81-7.33-4.68-10-8.76Z" transform="translate(-128.89 0)"/><path class="cls-5" d="M219,418.68c-4,1.32-8.06,2.65-11.62,4.91s-6.64,5.56-7.75,9.63a20.44,20.44,0,0,0,.28,9.83c1.09,4.7,3.54,9.85,8.22,11s9.53-2.7,11.16-7.28.9-9.64,0-14.44-1.52-8.55-.33-13.27Z" transform="translate(-128.89 0)"/><path class="cls-5" d="M147.12,505.25c1.11,4.07,2.24,8.18,4.31,11.85s5.23,6.91,9.23,8.22a20.35,20.35,0,0,0,9.84.21c4.75-.84,10-3,11.37-7.66s-2.22-9.65-6.72-11.51-9.58-1.38-14.41-.76-8.62,1.09-13.28-.33Z" transform="translate(-128.89 0)"/><path class="cls-5" d="M159.12,558.25c1.11,4.07,2.24,8.18,4.31,11.85s5.23,6.91,9.23,8.22a20.35,20.35,0,0,0,9.84.21c4.75-.84,10-3,11.37-7.66s-2.22-9.65-6.72-11.51-9.58-1.38-14.41-.76-8.62,1.09-13.28-.33Z" transform="translate(-128.89 0)"/><path class="cls-5" d="M224.88,523.25c-1.11,4.07-2.24,8.18-4.31,11.85s-5.23,6.91-9.23,8.22a20.35,20.35,0,0,1-9.84.21c-4.75-.84-10-3-11.37-7.66s2.22-9.65,6.72-11.51,9.58-1.38,14.41-.76,8.62,1.09,13.28-.33Z" transform="translate(-128.89 0)"/><path class="cls-5" d="M236.88,469.25c-1.11,4.07-2.24,8.18-4.31,11.85s-5.23,6.91-9.23,8.22a20.35,20.35,0,0,1-9.84.21c-4.75-.84-10-3-11.37-7.66s2.22-9.65,6.72-11.51,9.58-1.38,14.41-.76,8.62,1.09,13.28-.33Z" transform="translate(-128.89 0)"/></svg>