<?xml version="1.0" encoding="utf-8"?>
<!-- Generator: Adobe Illustrator 24.2.3, SVG Export Plug-In . SVG Version: 6.00 Build 0)  -->
<svg version="1.1" id="Capa_1" xmlns="http://www.w3.org/2000/svg" xmlns:xlink="http://www.w3.org/1999/xlink" x="0px" y="0px"
	 viewBox="0 0 340 382.1" style="enable-background:new 0 0 340 382.1;" xml:space="preserve">
<style type="text/css">
	.st0{fill:#2D282A;}
	.st1{fill:#1A1617;}
	.st2{fill:#1F1A1C;}
	.st3{fill:#FED330;}
	.st4{fill:#F8A3A0;}
	.st5{fill:#483139;}
	.st6{fill:#5C4147;}
	.st7{fill:#F7A4A3;}
	.st8{fill:#EBC52F;}
	.st9{fill:#FCA1A3;}
	.st10{fill:#FBA4AC;}
	.st11{fill:#2A2526;}
	.st12{fill:#BF6A65;}
	.st13{fill:#E1EAEB;}
	.st14{fill:#191416;}
	.st15{fill:#DB7273;}
	.st16{fill:#EFA19D;}
	.st17{fill:#1CA55A;}
	.st18{fill:#2F281F;}
	.st19{fill:#FAA2AB;}
	.st20{fill:#26DE81;}
	.st21{fill:#F7FEFE;}
	.st22{fill:#2E272E;}
	.st23{fill:#1E181A;}
	.st24{fill:#312820;}
	.st25{fill:#FBF6F5;}
	.st26{fill:#292A25;}
	.st27{fill:#3A232A;}
	.st28{fill:#252B2E;}
	.st29{fill:#342E32;}
	.st30{fill:#272225;}
	.st31{fill:#FEFEFE;}
	.st32{fill:#FBA3A3;}
	.st33{fill:#DE7B79;}
	.st34{fill:#DA7B79;}
	.st35{fill:#DB807D;}
	.st36{fill:#EEA29B;}
	.st37{fill:#FB9F9E;}
	.st38{fill:#EFA69F;}
	.st39{fill:#F3A59D;}
	.st40{fill:#EAA499;}
</style>
<path class="st0" d="M149.7,121.9l7.4-4c0.8-1.5,0.3-3.2,0.4-4.8s0.4-2.6,2.1-2.5c1.9,0.6,3.4,2,4.1,3.8c0.7,2.9,1,5.8-0.8,8.5
	c-1,1.1-2.5,1.1-3.6,2c-0.9,1-0.5,2.6-1.5,3.7c-6.4,4.3-9,10.4-8.5,18c0.6,7.2-1.4,14.6,1.7,21.7c0.5,2.5,0.7,5,0.5,7.5
	c0,65.1,0,130.2,0,195.2c0,3.8,1.2,8.1-2.6,11.2H123c-0.1-15.3-0.1-30.6-0.2-45.9c-1.6-2.4-1.2-5-0.9-7.6c1-3.7,1.1-7.6,0.2-11.4
	c-0.2-0.9,0-1.8,0.4-2.6c0.4-0.5,0.7-1,0.9-1.5c0.7-2.5,0.5-5,0.5-7.5c0-43.1,0-86.2,0-129.4c0,43.1,0,86.3,0,129.5
	c0,2.7,0.2,5.3-0.8,7.9c-2,1.9-4,1.9-6.2,0.4c-4.3,0-8.7-0.3-13-0.1c-3.2,0.2-3.9-1-3.8-4c0.6-31.8-0.1-63.6,3-95.3
	c2.2-22.9,8.3-45.2,18-66c1.5-2.9,2.6-6.1,3.2-9.3c0.7-4.4,3.6-8.1,7.7-9.9c4.9-2.4,10-4.4,15-6.5c0.7,0.4,2.1,0.2,2,1.1
	c-0.3,2.4,1.9,0.1,2.2,1.2c-0.1-0.7-0.9-0.6-1.2-1.2C149.8,123.5,149.7,122.7,149.7,121.9z"/>
<path class="st0" d="M202.8,126.1c0.8,1,2.1,0.8,3.2,1.1c0.1,2,0.4,3.9,1,5.8c0.4,1.5,0.4,2.5,2.3,2c2.6-0.8,3.9,0.8,4,3
	c0.2,3.8,2.1,4.8,5.5,4.1c1.2-0.3,2.4,0.1,3.2,0.9l0,0c0.7,4.7,0,9.4-1.9,13.7c0.7-0.3,1.1-2,1.3-1.5c1,2.6,4.5-0.9,5,2.2
	c0.2-0.7,0.4-1.5,1.5-1.3c1.1,2.6,1.6,5.5,3.3,7.9c-4.1,7.1-2.7,16,3.3,21.6c3.5,3.4,4.9,9.1,3.1,13.3c-0.5,1.2-1.2,1.3-2.3,1.3
	c-10.6-0.1-21.3,1-31.9-0.6c-2.2-0.3-4.7-0.8-6.6,1.1c-0.3,0.3-0.7,0.6-1.1,0.8c-3.1,0.9-6.2-0.1-9.3,0.1c-0.4,0-0.8,0.1-1.2,0.1
	c-1.7,0.2-2.1,1.7-2.9,2.9c-1,1.2-0.8,2.6-0.8,4.1c0.1,12.4-0.1,24.8,0.1,37.2c0.2,0.7,0.5,1.4,0.9,2c0.6,0.7,1.2,1.3,1.9,1.8
	c0.6,0.6,0.9,1.3,1.4,1.9c1.2,1.2,2.1-0.1,3.2-0.4c1.4-0.4,2.9-0.6,4.4-0.5c0.5,0,1.1,0,1.6,0c5.9,0.5,11.9-1.1,17.7,1.1
	c2.3,1.6,3.5,4.4,3.2,7.1v77c-3-1.2-2.6-4.3-3.5-6.6c-4-10.6-6-21.8-8-30.6c2.1,13.3,7.2,28.1,11.5,43.2l0.2,40h-4
	c-3.8-4.8-4-11-5.8-16.5c-1.2-3.5-1.6-7.4-2.8-10.9c-1.4-7.6-2.7-15.2-2.9-22.9c0.2,8,1.6,15.8,3,23.6c1.9,7.7,4.1,15.3,5.9,23
	c0.3,1.4,0.6,2.6-0.4,3.7H180c-2.1-1.1-2.2-3.2-2.4-5.2c-0.2-3-0.2-6-0.2-9c0-60.7,0-121.5,0-182.2c0-3.6-0.4-7.3,1-10.9
	c0.9-1.5,2.1-1.3,3.4-0.6c4.2,2.4,4.6-0.4,4.3-3.4c-0.6-7.1-0.3-14.2-0.4-21.4c0-2.1,0.6-4.3,0.7-6.4c0.1-3.2-1.5-6.2-0.6-9.9
	c0.4-1.9-3.3-4.6-6.4-5.3c-0.9-0.6-0.8-1.9-1.5-2.6c-0.5-0.3-1-0.6-1.6-0.9c-1.2-1-3.6-1-3.2-3.4c0.5-0.6,1.3-0.6,2-0.9
	c-0.8,0-1.6,0.4-2.1,1.1c-1.4,1.2-3.2,2.3-4.8,0.9s-0.4-2.9,1.1-4s0.7-2.6,0.3-4c0-0.5,0-0.9,0.2-1.4c1.4-1.8,3.6-2.7,5.8-2.5
	c5.5,0.6,5.5,0.6,6.5,7c1.2-1.6-0.7-5.4,1.8-5.2c2.9,0.3,1.2,3.7,1.4,5.7c0.1,0.8-0.1,1.6,0.8,2l1.8,0.6c0.3,0.4,0.9,0.6,1,1
	C191.6,129.1,197.3,127.3,202.8,126.1z"/>
<path class="st1" d="M180,174c-1.1,2.3-1,4.8-1,7.2c0,63.5,0,127,0,190.5c0,3.4-0.5,6.9,1,10.2h-31c0.8-2.9,1.1-5.8,1-8.8
	c0-68.7,0-137.3,0-206c4-2.8,8.3-1.8,12.5-0.9c2.1,4.8,6,5.9,10.8,5.3c2.1-0.4,4.3-0.1,6.3,0.9c0.5,0.3,0.7,0.9,0.4,1.4
	C180.1,173.9,180,174,180,174z"/>
<path class="st2" d="M209,382c-0.8-7.1-3.5-13.7-5.1-20.6c-0.6-2.1-0.9-4.2-0.9-6.4c0.2-0.3,0.6-0.3,0.9-0.1l0.1,0.1
	c2.1,1.6,1.7,4.1,2.2,6.3c1.8,6.9,3.8,13.8,5.7,20.7H209z"/>
<path class="st3" d="M241.4,200.3c1.2,2,3.1,1.5,4.9,1.5c5,0,10,0.2,14.9,0c4.3-0.2,5.4,1.5,4.1,5.3c-0.7,11.3-0.1,22.6-0.3,33.9
	c0.1,2,0,4-0.2,6c-0.2,0.6-0.6,1.1-1.1,1.4c-0.6,0-1.1-0.5-1.1-1.1c0,0,0,0,0-0.1c-0.1-12.4,0-24.8-0.2-37.1
	c-0.3-0.6-1.1,0.3-0.6-0.1c0.2-0.1,0.4-0.1,0.4,0.3c0.7,12.4,0.1,24.9,0.3,37.3c0,1.6-1,2.1-2.4,2.2c-7.1-0.9-14.3,0.5-21.4-0.9
	c-2.4-1.5-1.8-4-2.1-6.2c-0.8-5.9-1.7-6.6-7.7-6.2c-3.8,0.2-7.5,1.5-10.5,3.8c-1.5,1.6-2.8,3.5-3.9,5.4c-0.5,0.7-1,1.4-1.6,1.9
	c-5.4,2.6-11.8,2.7-17.3,0.2c-1.4-2.1-1-4.5-1-6.7c-0.2-10.7,0.4-21.5-0.4-32.2c-0.4-1.2-0.3-2.4,0.2-3.5c0.3-0.5,0.8-0.8,1.4-0.8
	c2.8,1.4,5.9,0.9,8.9,1c10.4,0.1,20.9-0.2,31.3,0.1c1.4,0.2,2.1-0.9,3-1.6c0.5,0.4,0,0,0.4-0.3c0.8-0.6-0.2,0.1-0.1-0.1
	c-14.2,0.9-28.4,0.9-42.6,0c-0.5-0.2-0.9-0.7-1.1-1.2c-0.1-0.6,0.1-1.1,0.5-1.5l0,0c1.5-1.7,3.6-1.7,5.6-1.5
	C214.9,201.3,228.2,200.4,241.4,200.3z"/>
<path class="st4" d="M157.3,110c-2.5-2.9-6.5-2.7-9.4-5.1c-5-4.3-7.9-9.2-7.9-15.8c-0.1-9.4,0.1-18.9-0.1-28.3
	c-0.2-5.6,1.5-11.2,4.9-15.7c4.9-0.8,9.9-0.4,14.9-0.3c3.8-0.1,7.2,2,8.8,5.4c1.1,2.1,2.4,4,4.9,4.6c4.5,1.1,6,4.3,6,8.5
	c0,0.8,0,1.7,0.1,2.5c0.2,2.9,1.1,4.1,4,2c2.6-2,5.4-2.3,8.1,0.1c1.6,2.3,2.4,4.6,0.6,7.2c-0.1,1-0.1,2,0,3c0.9,5.2-1.1,8.6-6.2,10
	c-0.5,0.5-1.4,0.5-1.9,0l0,0c-0.5-1-0.6-1.8,0.5-2.4c-1.3,0.7-1.2,1.8-1.2,3.1c0.1,5.3,0.1,10.5,0,15.8c0,0.3-0.9,2.6,0.7,0.4
	c0.6-0.4,1.4-0.4,1.9,0.1l0.1,5.2c-2.9,2-6,0.2-9,0.4c-4.2-0.2-4.2-0.2-2.8-2.6c0.6-0.5,1.1-1,1.6-1.5c-0.6,0.6-1.4,1.1-2.2,1.5
	c-4.6,1.9-9.7,2.7-14.7,2.2C158.3,110.4,157.7,110.3,157.3,110z"/>
<path class="st5" d="M192.1,75c0.3-2.3-0.2-4.6-1.2-6.7c-0.8-1.7-1.1-3.5-0.9-5.3c0.2-7.7-2-14.4-7.2-20.1c-1.3-1.4-2.1-3.1-0.7-5
	c15-7.8,25.6-0.9,30.1,8.1C219.2,60.1,208.6,75.3,192.1,75z"/>
<path class="st6" d="M182,38c-0.1,1.7,0.5,3.3,1.8,4.4c7.6,7.2,8,16.4,7.1,26c-3-1.4-5.7-1.6-8,1.3c-0.6,0.8-0.6,2.7-2.3,2
	c-1.5-0.6-2.5-1.9-2.6-3.5c-0.1-2.2-0.1-4.3,0-6.5c0-3.1-1.2-5.2-4.5-5.4c-2.8-0.2-4.7-1.2-5.5-4.1c-1.3-4.5-4.6-6-9.1-6.2
	c-4.7-0.2-9.5,1.2-14.1-0.9c1.4-1.7,2.8-3.3,4.3-5c1.2-2.8,3.6-3.6,6.3-3.8c7.5-1.7,15-2.9,22.2,1.5C178.7,38.5,180.5,37.9,182,38z"
	/>
<path class="st4" d="M216.9,240c5.1-5.4,11.8-5.1,18.4-4.8c1.5,0.1,1.7,1.3,1.8,2.5c0.3,3.4,0.6,6.9,0.9,10.3c0.3,0.3,0.5,0.6,0.6,1
	c0.1,0.6,0.5,1.2,1.1,1.4c6.4,0.4,12.8,0,19.2,0.2c2.1,0.1,4.3-0.4,6,1.4c-6,2-12.1,0.5-18.2,0.8c-4.9,0.3-9.4-0.5-13.4,4.3
	c-3.2,3.9-9.1,1.6-13.9,1.5c-1.3,0-2.5-1-3.7,0.2l-2.9-6c-0.5-0.6-1-1.3-1.4-2.1c-0.1-0.4-0.1-0.8,0-1.3c0.7-1.1,0.7-2.4,1.3-3.5
	l1-1c0.1,0.1,0.2,0.2,0.3,0.4c0.1,0.1,0.1,0.3,0.1,0.4C215.1,243.8,217.6,242.6,216.9,240z"/>
<path class="st0" d="M241.4,200.3c-0.8,1.7-2.4,1.5-3.9,1.5c-13.8-0.1-27.6,0.4-41.4-0.6c0-5.3,4.4-3.3,6.3-2.9
	c8.8,1.5,17.5,0.3,26.3,0.9c2.7,0.2,5.3-2.1,8.2-0.1c-2.5-2.9,1.2-6.1-1.1-9.3c-1.2-1.7-1.9-3.6-3.9-4.6c-0.6-0.2-1.1-0.6-1.4-1.1
	c-1.9-3.9-2.1-8.3-4-12.4c-1.3-2.6,1.2-6.2,4.7-7.6C236.2,175.6,239.1,187.9,241.4,200.3z"/>
<path class="st0" d="M222.1,143c-1.3,0.1-2.6,0.3-4,0.4c-3.2,0.3-6.5,1.1-5.8-4.3c0.4-2.8-1.3-4-4.3-2.6c-2.1,0.9-3.8,0.9-2.3-2.3
	c1-2.2-3.2-4.6,0.1-6.9C216.1,127.7,218.9,135.5,222.1,143z"/>
<path class="st2" d="M215.9,342c-4.3-6.1-5.1-13.5-7.3-20.3c-2.7-8.4-4.2-17.3-6.2-25.9c-0.1-0.7,0.2-1.5,0.7-1.9
	c4.6,14,7,28.6,12.7,42.2v5.9H215.9z"/>
<path class="st3" d="M265,252.1c-7.8,0-15.6,0-23.3-0.1c-1.5,0-3.8,1.2-4.2-1.7c0.8-0.2,1.7-0.4,2.5-0.5c6.6,0,13.2-0.3,19.8,0.2
	c1.7,0.2,3.3-0.5,4.3-1.9l0,0c1.2-10.5,0.1-21.1,0.6-31.6c0.1-2.7-0.9-5.5,0.8-8.1C265.8,222.9,266.5,237.5,265,252.1z"/>
<path class="st0" d="M227.9,156.1c-1.2,0.7-0.5,2.2-1.4,3.2c-1.2-3.1-2.6-4.5-4.1,0.4l-0.9-4.9l-0.7,4.5c-0.7-5.4-0.2-10.9,1.3-16.2
	C224.6,147.1,226.9,151.3,227.9,156.1z"/>
<path class="st7" d="M117,314.2l6-0.1l0,0c0,0.3,0,0.7-0.2,1c-0.3,2.1-0.6,4-3.1,4.8c-1.1,0.4,0.4,0.8,0.2,1.3
	c0.8,3.8,0.6,7.8-0.5,11.6l-0.5,0.5c-4.5-3.2-4-7.8-3.5-12.4C115.7,318.6,116.3,316.4,117,314.2z"/>
<path class="st0" d="M202.8,126.1c-3.1,3.8-7.5,1.8-11.2,2c-0.8,0-2.5-3.2-2.4-4.9c0.1-1.4-1.6-1.7-1.1-2.8
	C193,122,198.2,123.3,202.8,126.1z"/>
<path class="st0" d="M176,110.1l9.9,0.1l0.3,9.5c-2.4,1.4-2-0.5-1.6-1.6c0.6-1.9,0.8-3.7-0.4-5.6c0.1,2.4-0.4,4.8-1.6,6.9
	c-2.7-2.7-0.9-8.6-6.6-8.6c-0.3-0.2-0.3-0.4-0.2-0.5C175.8,110.2,175.9,110.1,176,110.1z"/>
<path class="st8" d="M265.4,208.3c-0.1,11.5-0.2,23-0.4,34.6c0,1.7,0.6,3.7-1,5.1c0-12,0-24.1,0-36.1c0-1.7-0.9-3.7,1.2-4.9
	C265.3,207.5,265.3,207.9,265.4,208.3z"/>
<path class="st9" d="M184,88.1h1.9c0,5.7,0,11.3-0.1,17H184l-0.6-0.7c-0.7-5.2-0.7-10.5,0-15.7L184,88.1z"/>
<path class="st10" d="M123.2,328l-0.4,8.1c-2.1,0-3.5-0.8-4-2.9l0.2-0.2c0.3-0.3,0.6-0.5,1-0.5c1.4-0.8,0.6-2.1,0.7-3.2
	c0-0.8-0.1-1.5-0.1-2.3c0.7-2.4-1.5-5.8,2.6-6.9C123.7,322.7,123.7,325.4,123.2,328z"/>
<path class="st11" d="M149.7,121.9c1.2,1.1,0.9,3.6,3.3,3.8c-2.3-0.2-5.5,2-5.9-2.6L149.7,121.9z"/>
<path class="st12" d="M157.3,110c0.3,0,0.5,0,0.8-0.1c1.2-0.3,2.3-0.6,1.9,1.3c-2-0.4-2,1-2.1,2.4s0.5,3-0.7,4.2
	C157.2,115.2,157.2,112.6,157.3,110z"/>
<path class="st13" d="M163,167l-13,0.2c-2.1-0.1-2.1-1.5-2.1-3.1c0.1-7.6-0.2-15.2,0.1-22.8c0.3-6.7,4.2-11.2,9.9-14.3
	c3.7-2.4,7.6-1.6,11.5-0.6c1.5,1.5,0,2.2-0.9,2.4c-4.4,0.8-4.3,3.7-3.8,7.1c1.2,8.9,0.7,17.9,0.2,26.8
	C165,164.4,164.9,166.2,163,167z"/>
<path class="st14" d="M123,314.1V168.7c2.8,0.3,2,2,2,3.1c0.1,45.6,0.1,91.3,0.1,136.9C125.1,310.8,124.7,312.7,123,314.1L123,314.1
	z"/>
<path class="st15" d="M160,111.2c-0.2-1-1.1-1.2-1.9-1.3l15.9-3c1-0.2,1.4,0.2,1.1,1.2l-1.2,1.4l2.1,0.6c0,0.2-0.1,0.5-0.1,0.7
	c-2.4-0.3-4,1.4-6,2.2c-2.1,1.6-4.4,2.6-7,1.1L160,111.2z"/>
<path class="st16" d="M162.9,114.1l7-1.1c-0.1,0.3-0.1,0.6-0.1,0.9c-0.3,3.1-3,5.6-2.4,8.9c-0.3,0.4-0.7,0.7-1.2,0.9
	c-0.5,0.2-1,0.3-1.5,0.3c-1,0.1-2.1-0.3-2.8-1.1C163.8,120.2,162.3,117,162.9,114.1z"/>
<path class="st17" d="M165,123.1h1c1.8,1.1,4.1,1.1,5.8-0.2c1.4,1.3,1.3,2.7,0.4,4.2c-0.7,0.5-1.6,0.5-2.3,0l-12-0.1
	c-0.4-1-1.7-1.9-0.4-3.2C160,122.7,162.8,124.9,165,123.1z"/>
<path class="st18" d="M123.2,328c-0.1-2.7-0.2-5.3-0.3-7.9c-0.3-0.3-0.5-0.8-0.6-1.2c0.1-0.7,0.2-1.4,0.9-1.8
	C124.5,320.6,124.5,324.5,123.2,328z"/>
<path class="st19" d="M123.2,317c-0.1,0.7-0.2,1.3-0.3,2c-0.7,0.8-1.7,1.3-2.7,1.6c-0.4,0-0.9-0.3-1.1-0.6c1.3-1.7,2.5-3.3,3.8-5
	L123.2,317z"/>
<path class="st20" d="M165,123.1c-2.1,3.5-5-0.1-7.4,0.9c1.1-1.7,2.8-0.8,4.3-1L165,123.1z"/>
<path class="st0" d="M172,127c-0.3-1.3,1.1-3-1-3.8c-1.3,0.4-2.6,0.9-3.8-0.4c-0.5-3.4-0.1-6.5,2.6-8.9c3.3,1.3,2.4,3.7,0.7,5.3
	c-0.6,0.6-2.6,0.1-1.9,1.9s1.9-0.4,2.9-0.2c0.5,0.1,1,0.1,1.4,0l0,0l4,3c0.5,0.5,0.5,1.3,1,1.8c0.4,0.4,0.7,0.7,1,1.2
	c5-0.6,6.9,3.6,9.1,6.5c1.7,2.1-0.6,3.7-3.1,3.8c0.3,1.9,1.7,1.5,2.7,1.9c1.8,0.6,2.8,1.9,1,3.2c-2.2,1.6-1.8,3.8-1.8,5.9
	c0.1,7.6,0.4,15.2,0.4,22.9c0,2,1.3,4.6-1.5,5.7c-2.6,1-4.2-1.1-5.9-2.7v-1c1.2-2.7,1.8-5.7,1.6-8.7c-0.1-5.5-0.2-11,0-16.5
	c0.3-7.3-1.8-13.4-7.6-18.1C173,129.1,172.3,128.1,172,127z"/>
<polygon class="st0" points="185.7,137.1 185.9,138.7 185.6,138.5 185.3,138.3 185.2,138.1 185.1,138 185.1,137.9 185,137.7 
	185,137.6 184.9,137.4 184.9,137.2 "/>
<polygon class="st0" points="185.2,137.7 186.1,139 185.8,139 185.4,138.9 185.3,138.8 185.1,138.7 185,138.6 184.9,138.5 
	184.8,138.4 184.7,138.3 184.6,138.1 "/>
<path class="st21" d="M193,252.1l-5,0.3c-0.5-0.4-0.8-1-1-1.6c-0.7-15.1-0.2-30.2-0.3-45.3c0-1.2,0.3-2.3,1-3.3
	c1.5-1.2,3.1-0.7,4.6-0.2c1.5,0.9,1.6,2.3,1.7,3.9c0.8,14,0.2,28.1,0.4,42.2C194.5,249.4,194,250.9,193,252.1z"/>
<path class="st22" d="M182,204c0-2,0.3-3.7,3-3c1.5,1.6,1.4,3.7,1.4,5.6c0,13.3,0,26.5,0,39.8c0,2,0.3,4-1.4,5.6
	c-0.7-0.4-1.1-1.2-1-2c-2.2-2-2.4-4.6-2.4-7.3c0-11,0.2-22-0.1-32.9c-0.1-0.6-0.2-1.1-0.3-1.7C181,206.6,181,205.2,182,204z"/>
<path class="st3" d="M212.1,251c0.6,0.4,1,1.1,0.9,1.9c-6.2-1.5-12.5-0.1-18.8-0.8c-1.2-1.1-0.7-2.5-0.7-3.8c0-15.2-0.1-30.5,0-45.7
	c0.6-1.2,1.4-1.1,2.4-0.6c0,0.4,0,0.7,0,1.1c0,0.8-0.3,1.5-0.9,2c0,1,0,2.1,0,3.1c0.9,13,0.1,26,0.4,39c0.7,3,3.1,2.3,5.1,2.5
	C204.5,250.1,208.6,248.5,212.1,251z"/>
<path class="st23" d="M204,355h-1c-3.1-9.2-3.4-18.7-4.1-28.2l1.9-0.2C201.9,336,202.9,345.5,204,355z"/>
<path class="st24" d="M185,252v-51h1c0.4,0.5,0.7,1,0.9,1.6c0.4,15.9-0.1,31.9,0.3,47.8c0.2,0.6,0.5,1.1,0.9,1.6v0.3
	c-0.2,0.8-0.4,1.5-1.4,1.5C185.4,253.9,185.1,253,185,252z"/>
<path class="st25" d="M194.2,202c0,16.7,0,33.4,0,50.1H193c0-14.6,0-29.2,0-43.8c0-2.2,0.2-4.3-1-6.3
	C192.6,201.5,193.6,201.5,194.2,202z"/>
<path class="st26" d="M182,208c1.6,1.5,1,3.4,1,5.2c0.1,9.6,0.1,19.3,0,29c-0.1,2.7,0.3,5.3,1,7.9c-0.8,0.1-1.6-0.3-2-1
	c-0.5-0.8-0.9-1.8-0.9-2.8c-0.1-12-0.1-24,0-35.9C181.1,209.4,181.4,208.6,182,208z"/>
<path class="st27" d="M182,208c0,13.7,0,27.3,0,41c-0.3-0.3-0.7-0.7-1-1c-1.1-8.6-0.2-17.2-0.4-25.9c-0.1-4.5-0.1-9,0-13.5
	c0.1-0.5,0.5-0.9,1-0.8C181.7,207.9,181.9,207.9,182,208z"/>
<path class="st28" d="M181,208c0,13.3,0,26.7,0,40c-1.6-1.5-1-3.4-1-5.2c-0.1-12,0-23.9,0-35.8C180.9,206.8,181.4,207,181,208z"/>
<path class="st0" d="M173,121c0-1.4,0.9-2,2-2.5c0.8-0.5,1.9-0.2,2.4,0.6c0,0.1,0.1,0.1,0.1,0.2c0.3,0.6,0.3,1.2,0.1,1.8
	c-0.5,0.9-1.4,0.3-2.2,0.1C174.6,121.1,173.8,121.1,173,121z"/>
<path class="st0" d="M194.2,202H192h-4c-0.2,0.3-0.6,0.5-1,0.6c-0.4-0.1-0.8-0.3-1-0.6c0-0.3,0-0.6,0-0.9c3.4-1.3,6.8-0.3,10.1,0.1
	L196,202H194.2z"/>
<path class="st0" d="M181,208l-1-1c0-1.5,0-2.9,2-3c0,1.3,0,2.7,0,4H181z"/>
<path class="st29" d="M179,127h-2c-0.6-1.9,1.2-2.1,2-3C180.6,125,179.3,126,179,127z"/>
<path class="st30" d="M179,124l-2,3c-1.6-1-0.3-2,0-3H179z"/>
<path class="st31" d="M172,127c7.3,3.6,10.8,9.6,10.9,17.6c0.1,8.1,0,16.3,0.1,24.4c0,2.3-0.3,3.9-3,4c-3.4-0.1-6.9-0.6-10.3-0.2
	c-4.6,0.5-7.1-0.8-6.7-5.8c1.6-9.6,1.5-19.4,0.6-29c-0.7-8.6-1.4-8.6,6.3-10.8L172,127z"/>
<path class="st3" d="M195.1,205c-0.2-0.8,0.2-1.6,0.9-2h47.2l0.1,0.9L239,205c-0.9,0.8-2.1,1.1-3.2,1c-12,0-24,0-36,0
	c-1.3,0.1-2.7-0.2-3.8-1C195.7,205,195.4,205,195.1,205z"/>
<path class="st3" d="M196,205h43c0,1.1,0.2,2.3-1,3c-0.4-0.7-1-1.4-1.9-1.4c-10.7,0.1-21.4-0.7-32.1,0.4
	C201.4,206.2,197.9,209,196,205z"/>
<path class="st3" d="M195.1,248.1c0-13.3,0-26.7,0-40c1.5,1.5,0.9,3.4,0.9,5.2c0.1,11.6,0,23.2,0,34.8l-0.4,0.4L195.1,248.1z"/>
<path class="st8" d="M262,248v-38.7h1V248c-0.2,0.3-0.6,0.3-0.9,0.1L262,248z"/>
<path class="st8" d="M204,207c1.1-1.4,2.7-1,4.2-1c8.5,0,17,0,25.4,0c1.7,0,3.9-0.8,4.4,2c-2.8-1.6-5.8-0.9-8.7-1
	C220.9,207,212.4,207,204,207z"/>
<path class="st8" d="M262,248h2c0.2,2.9-1.6,3-3.8,3c-7.1,0-14.1,0-21.2,0c0.1-2.9,2.7-1.5,4-2.3c0.5-0.1,1,0,1.5,0.1
	c4.9,0.4,9.8,0.1,14.7,0.2h0.8C260.8,249.1,261.6,248.7,262,248z"/>
<path class="st3" d="M244,249h-1c-1.6,0.8-3.5,0.8-5.1,0c0-0.3,0-0.7,0.1-1c5.8,0,11.6,0,17.4,0c1.6,0,3.4-0.5,4.6,1l0,0
	C254.7,249.8,249.3,249.8,244,249z"/>
<path class="st3" d="M213,246c-0.1,1.4,0.4,2.9-0.9,4h-0.8c-5-0.3-10.1,0.6-15-0.6c-0.5-0.3-0.6-0.9-0.3-1.4c0,0,0,0,0-0.1l0,0
	c4.1,0,8.2-0.1,12.3,0C210.1,248.2,211.9,247.4,213,246z"/>
<path class="st32" d="M216.9,240c1.8,0.2,2.3,1,1.1,2.5s-2.3,3.1-3.4,4.7c-0.8-0.6-0.5-1.4-0.6-2.2C214.3,243,215.6,241.4,216.9,240
	z"/>
<path class="st9" d="M184,105.1l-0.8,3.6h-1c0-7.1-0.3-14.2,0.2-21.3c0.2-3,3.3-3.5,6.1-3.7c-0.1,3-4.5,1.6-4.4,4.5l0,0
	C183.2,93.7,183.2,99.5,184,105.1L184,105.1z"/>
<path class="st33" d="M164.9,93c-0.2,2.1-2.6,2.9-5,3.6c-1,0.3-2-0.2-1.7-1c1-2.5,3.8-3.2,5.5-5.1C164.3,90,165.1,91.2,164.9,93z"/>
<path class="st34" d="M151.1,83.8c-4,0.2-5.7-1.6-6.8-4.4c-0.3-0.8-0.2-1.7,0.6-2.1c0.6-0.4,1.4-0.2,1.7,0.4
	c0.1,0.1,0.1,0.3,0.2,0.5C147.2,80.6,149.6,81.3,151.1,83.8z"/>
<path class="st35" d="M175.1,108.1L174,107c0.9-1.6,2.4-2.2,4.6-2.9C177.9,105.8,176.7,107.2,175.1,108.1z"/>
<path class="st36" d="M146.9,98.6c-3-1.2-2.2-2.9-1.3-5.2C146.1,95.3,146.4,96.7,146.9,98.6z"/>
<path class="st3" d="M196,248v1c5.2,1.5,10.7-0.4,15.9,1l0.1,0.1c0,0.3,0,0.6,0,0.9c-4.6,0-9.2,0-13.8,0c-2.1,0-3.6-0.4-3.2-3
	C195.4,248,195.7,248,196,248z"/>
<path class="st8" d="M237.9,249h5.1c-0.9,1.6-3.1,0.4-4,2l-1.6-0.9L237.9,249z"/>
<path class="st32" d="M216,251.4c-0.1-1.1-0.2-1.5-0.1-1.8c0.1-0.4,0.4-0.8,0.8-1c0.6-0.2,0.8,0.3,0.6,0.8
	C216.9,250,216.5,250.7,216,251.4z"/>
<path class="st37" d="M119,320h1c2.2,2.3-0.2,5.7,2,8v2c-0.9,0.9-0.3,2.7-2,3c-0.3,0-0.7,0-1,0C119,328.6,119,324.3,119,320z"/>
<path class="st38" d="M184,105c-1.6-5.6-1.6-11.4,0-17V105z"/>
<path class="st39" d="M122,328c-4-1.8-1.1-5.4-2-8l2.8-1v1C121.2,322.6,122.4,325.4,122,328z"/>
<path class="st40" d="M120,333c0.7-1,1.3-2,2-3c-0.3,1.4,0.8,3.1-0.8,4.2C121.2,334.3,120.4,333.4,120,333z"/>
<path class="st20" d="M167.2,122.9l3.8,0.4c-0.1,0.7-0.3,2.2-0.5,1.9c-1.3-1.3-4.3,1.3-4.5-2L167.2,122.9z"/>
<path class="st3" d="M187,202.1c0.3-0.1,0.7-0.1,1,0c0,16.7,0,33.3,0,50l-0.5,0.1l-0.5-0.1c-1.1-3.7-0.4-7.5-0.5-11.3
	c-0.1-11.2,0-22.5,0-33.8C186.6,205.3,186.1,203.6,187,202.1z"/>
<path class="st25" d="M189.4,245.7v-38.8h0.6v39L189.4,245.7z"/>
<path class="st8" d="M187,202.1c0,16.7,0,33.3,0,49.9c-1.9-1.4-1-3.4-1-5.1c-0.1-15,0-29.9-0.1-44.9L187,202.1z"/>
<path class="st8" d="M244,249h16C254.8,250.6,249.2,250.6,244,249z"/>
<path class="st8" d="M212,250c-5.3-0.5-10.7,1.1-15.9-1C201.3,249.6,206.8,247.9,212,250z"/>
<path class="st20" d="M237.4,250.2c0.3,0.8,0.8,1.4,1.4,1.9l0.2,1.4"/>
<polygon class="st0" points="221.3,154.6 223.4,156.5 222.1,156.9 221,157 220.5,156.9 220.1,156.9 219.8,156.8 219.5,156.7 
	219.2,156.5 219,156.4 218.6,156.1 "/>
</svg>
