<svg id="Capa_1" data-name="Capa 1" xmlns="http://www.w3.org/2000/svg" viewBox="0 0 201 355.1"><defs><style>.cls-1{fill:#2d282a;}.cls-2{fill:#1a1617;}.cls-3{fill:#1f1a1c;}.cls-4{fill:#fed330;}.cls-5{fill:#f8a3a0;}.cls-6{fill:#483139;}.cls-7{fill:#5c4147;}.cls-8{fill:#f7a4a3;}.cls-9{fill:#ebc52f;}.cls-10{fill:#fca1a3;}.cls-11{fill:#fba4ac;}.cls-12{fill:#2a2526;}.cls-13{fill:#bf6a65;}.cls-14{fill:#e1eaeb;}.cls-15{fill:#191416;}.cls-16{fill:#db7273;}.cls-17{fill:#efa19d;}.cls-18{fill:#1ca55a;}.cls-19{fill:#2f281f;}.cls-20{fill:#faa2ab;}.cls-21{fill:#26de81;}.cls-22{fill:#f7fefe;}.cls-23{fill:#2e272e;}.cls-24{fill:#1e181a;}.cls-25{fill:#312820;}.cls-26{fill:#fbf6f5;}.cls-27{fill:#292a25;}.cls-28{fill:#3a232a;}.cls-29{fill:#252b2e;}.cls-30{fill:#342e32;}.cls-31{fill:#272225;}.cls-32{fill:#fefefe;}.cls-33{fill:#fba3a3;}.cls-34{fill:#de7b79;}.cls-35{fill:#da7b79;}.cls-36{fill:#db807d;}.cls-37{fill:#eea29b;}.cls-38{fill:#fb9f9e;}.cls-39{fill:#efa69f;}.cls-40{fill:#f3a59d;}.cls-41{fill:#eaa499;}</style></defs><path class="cls-1" d="M70.7,94.9l7.4-4c.8-1.5.3-3.2.4-4.8s.4-2.6,2.1-2.5a6.46,6.46,0,0,1,4.1,3.8c.7,2.9,1,5.8-.8,8.5-1,1.1-2.5,1.1-3.6,2-.9,1-.5,2.6-1.5,3.7-6.4,4.3-9,10.4-8.5,18,.6,7.2-1.4,14.6,1.7,21.7a27.09,27.09,0,0,1,.5,7.5V344c0,3.8,1.2,8.1-2.6,11.2H44c-.1-15.3-.1-30.6-.2-45.9-1.6-2.4-1.2-5-.9-7.6a23.15,23.15,0,0,0,.2-11.4,3.91,3.91,0,0,1,.4-2.6,6,6,0,0,0,.9-1.5c.7-2.5.5-5,.5-7.5v.1c0,2.7.2,5.3-.8,7.9-2,1.9-4,1.9-6.2.4-4.3,0-8.7-.3-13-.1-3.2.2-3.9-1-3.8-4,.6-31.8-.1-63.6,3-95.3a201.76,201.76,0,0,1,18-66,34.17,34.17,0,0,0,3.2-9.3,13.05,13.05,0,0,1,7.7-9.9c4.9-2.4,10-4.4,15-6.5.7.4,2.1.2,2,1.1-.3,2.4,1.9.1,2.2,1.2-.1-.7-.9-.6-1.2-1.2A7.32,7.32,0,0,1,70.7,94.9Z"/><path class="cls-1" d="M123.8,99.1c.8,1,2.1.8,3.2,1.1a22.75,22.75,0,0,0,1,5.8c.4,1.5.4,2.5,2.3,2,2.6-.8,3.9.8,4,3,.2,3.8,2.1,4.8,5.5,4.1a3.37,3.37,0,0,1,3.2.9h0a24.74,24.74,0,0,1-1.9,13.7c.7-.3,1.1-2,1.3-1.5,1,2.6,4.5-.9,5,2.2.2-.7.4-1.5,1.5-1.3,1.1,2.6,1.6,5.5,3.3,7.9a17.5,17.5,0,0,0,3.3,21.6c3.5,3.4,4.9,9.1,3.1,13.3-.5,1.2-1.2,1.3-2.3,1.3-10.6-.1-21.3,1-31.9-.6-2.2-.3-4.7-.8-6.6,1.1a4.44,4.44,0,0,1-1.1.8c-3.1.9-6.2-.1-9.3.1-.4,0-.8.1-1.2.1-1.7.2-2.1,1.7-2.9,2.9-1,1.2-.8,2.6-.8,4.1.1,12.4-.1,24.8.1,37.2a7.22,7.22,0,0,0,.9,2,10.71,10.71,0,0,0,1.9,1.8,23.07,23.07,0,0,1,1.4,1.9c1.2,1.2,2.1-.1,3.2-.4a13,13,0,0,1,4.4-.5H116c5.9.5,11.9-1.1,17.7,1.1a7.69,7.69,0,0,1,3.2,7.1v77c-3-1.2-2.6-4.3-3.5-6.6-4-10.6-6-21.8-8-30.6,2.1,13.3,7.2,28.1,11.5,43.2l.2,40h-4c-3.8-4.8-4-11-5.8-16.5-1.2-3.5-1.6-7.4-2.8-10.9a147.85,147.85,0,0,1-2.9-22.9c.2,8,1.6,15.8,3,23.6,1.9,7.7,4.1,15.3,5.9,23,.3,1.4.6,2.6-.4,3.7H101c-2.1-1.1-2.2-3.2-2.4-5.2-.2-3-.2-6-.2-9V158.5c0-3.6-.4-7.3,1-10.9.9-1.5,2.1-1.3,3.4-.6,4.2,2.4,4.6-.4,4.3-3.4-.6-7.1-.3-14.2-.4-21.4,0-2.1.6-4.3.7-6.4.1-3.2-1.5-6.2-.6-9.9.4-1.9-3.3-4.6-6.4-5.3-.9-.6-.8-1.9-1.5-2.6-.5-.3-1-.6-1.6-.9-1.2-1-3.6-1-3.2-3.4.5-.6,1.3-.6,2-.9A2.61,2.61,0,0,0,94,93.9c-1.4,1.2-3.2,2.3-4.8.9s-.4-2.9,1.1-4,.7-2.6.3-4a3.4,3.4,0,0,1,.2-1.4,6.58,6.58,0,0,1,5.8-2.5c5.5.6,5.5.6,6.5,7,1.2-1.6-.7-5.4,1.8-5.2,2.9.3,1.2,3.7,1.4,5.7.1.8-.1,1.6.8,2l1.8.6c.3.4.9.6,1,1C112.6,102.1,118.3,100.3,123.8,99.1Z"/><path class="cls-2" d="M101,147c-1.1,2.3-1,4.8-1,7.2V344.7c0,3.4-.5,6.9,1,10.2H70a29,29,0,0,0,1-8.8v-206c4-2.8,8.3-1.8,12.5-.9,2.1,4.8,6,5.9,10.8,5.3a9.9,9.9,0,0,1,6.3.9,1,1,0,0,1,.4,1.4A.14.14,0,0,1,101,147Z"/><path class="cls-3" d="M130,355c-.8-7.1-3.5-13.7-5.1-20.6a23,23,0,0,1-.9-6.4.63.63,0,0,1,.9-.1l.1.1c2.1,1.6,1.7,4.1,2.2,6.3,1.8,6.9,3.8,13.8,5.7,20.7Z"/><path class="cls-4" d="M162.4,173.3c1.2,2,3.1,1.5,4.9,1.5,5,0,10,.2,14.9,0,4.3-.2,5.4,1.5,4.1,5.3-.7,11.3-.1,22.6-.3,33.9a40.12,40.12,0,0,1-.2,6,2.59,2.59,0,0,1-1.1,1.4,1.11,1.11,0,0,1-1.1-1.1v-.1c-.1-12.4,0-24.8-.2-37.1-.3-.6-1.1.3-.6-.1.2-.1.4-.1.4.3.7,12.4.1,24.9.3,37.3,0,1.6-1,2.1-2.4,2.2-7.1-.9-14.3.5-21.4-.9-2.4-1.5-1.8-4-2.1-6.2-.8-5.9-1.7-6.6-7.7-6.2a18.92,18.92,0,0,0-10.5,3.8,29.68,29.68,0,0,0-3.9,5.4,10,10,0,0,1-1.6,1.9,20.52,20.52,0,0,1-17.3.2c-1.4-2.1-1-4.5-1-6.7-.2-10.7.4-21.5-.4-32.2a4.7,4.7,0,0,1,.2-3.5,1.6,1.6,0,0,1,1.4-.8c2.8,1.4,5.9.9,8.9,1,10.4.1,20.9-.2,31.3.1,1.4.2,2.1-.9,3-1.6.5.4,0,0,.4-.3.8-.6-.2.1-.1-.1a336.4,336.4,0,0,1-42.6,0,2.16,2.16,0,0,1-1.1-1.2,1.65,1.65,0,0,1,.5-1.5h0c1.5-1.7,3.6-1.7,5.6-1.5C135.9,174.3,149.2,173.4,162.4,173.3Z"/><path class="cls-5" d="M78.3,83c-2.5-2.9-6.5-2.7-9.4-5.1-5-4.3-7.9-9.2-7.9-15.8-.1-9.4.1-18.9-.1-28.3a24.66,24.66,0,0,1,4.9-15.7c4.9-.8,9.9-.4,14.9-.3a9.37,9.37,0,0,1,8.8,5.4c1.1,2.1,2.4,4,4.9,4.6,4.5,1.1,6,4.3,6,8.5a20.9,20.9,0,0,0,.1,2.5c.2,2.9,1.1,4.1,4,2,2.6-2,5.4-2.3,8.1.1,1.6,2.3,2.4,4.6.6,7.2a15,15,0,0,0,0,3c.9,5.2-1.1,8.6-6.2,10a1.39,1.39,0,0,1-1.9,0h0c-.5-1-.6-1.8.5-2.4-1.3.7-1.2,1.8-1.2,3.1.1,5.3.1,10.5,0,15.8,0,.3-.9,2.6.7.4a1.5,1.5,0,0,1,1.9.1l.1,5.2c-2.9,2-6,.2-9,.4-4.2-.2-4.2-.2-2.8-2.6.6-.5,1.1-1,1.6-1.5a8.55,8.55,0,0,1-2.2,1.5A30.73,30.73,0,0,1,80,83.3,2.29,2.29,0,0,1,78.3,83Z"/><path class="cls-6" d="M113.1,48a12,12,0,0,0-1.2-6.7A9.8,9.8,0,0,1,111,36c.2-7.7-2-14.4-7.2-20.1-1.3-1.4-2.1-3.1-.7-5,15-7.8,25.6-.9,30.1,8.1C140.2,33.1,129.6,48.3,113.1,48Z"/><path class="cls-7" d="M103,11a5.23,5.23,0,0,0,1.8,4.4c7.6,7.2,8,16.4,7.1,26-3-1.4-5.7-1.6-8,1.3-.6.8-.6,2.7-2.3,2A4,4,0,0,1,99,41.2c-.1-2.2-.1-4.3,0-6.5,0-3.1-1.2-5.2-4.5-5.4-2.8-.2-4.7-1.2-5.5-4.1-1.3-4.5-4.6-6-9.1-6.2-4.7-.2-9.5,1.2-14.1-.9,1.4-1.7,2.8-3.3,4.3-5,1.2-2.8,3.6-3.6,6.3-3.8,7.5-1.7,15-2.9,22.2,1.5C99.7,11.5,101.5,10.9,103,11Z"/><path class="cls-5" d="M137.9,213c5.1-5.4,11.8-5.1,18.4-4.8,1.5.1,1.7,1.3,1.8,2.5.3,3.4.6,6.9.9,10.3a2.07,2.07,0,0,1,.6,1,1.77,1.77,0,0,0,1.1,1.4c6.4.4,12.8,0,19.2.2,2.1.1,4.3-.4,6,1.4-6,2-12.1.5-18.2.8-4.9.3-9.4-.5-13.4,4.3-3.2,3.9-9.1,1.6-13.9,1.5-1.3,0-2.5-1-3.7.2l-2.9-6a11,11,0,0,1-1.4-2.1,2.85,2.85,0,0,1,0-1.3c.7-1.1.7-2.4,1.3-3.5l1-1a1.38,1.38,0,0,1,.3.4.6.6,0,0,1,.1.4C136.1,216.8,138.6,215.6,137.9,213Z"/><path class="cls-1" d="M162.4,173.3c-.8,1.7-2.4,1.5-3.9,1.5-13.8-.1-27.6.4-41.4-.6,0-5.3,4.4-3.3,6.3-2.9,8.8,1.5,17.5.3,26.3.9,2.7.2,5.3-2.1,8.2-.1-2.5-2.9,1.2-6.1-1.1-9.3-1.2-1.7-1.9-3.6-3.9-4.6a2.59,2.59,0,0,1-1.4-1.1c-1.9-3.9-2.1-8.3-4-12.4-1.3-2.6,1.2-6.2,4.7-7.6C157.2,148.6,160.1,160.9,162.4,173.3Z"/><path class="cls-1" d="M143.1,116c-1.3.1-2.6.3-4,.4-3.2.3-6.5,1.1-5.8-4.3.4-2.8-1.3-4-4.3-2.6-2.1.9-3.8.9-2.3-2.3,1-2.2-3.2-4.6.1-6.9C137.1,100.7,139.9,108.5,143.1,116Z"/><path class="cls-3" d="M136.9,315c-4.3-6.1-5.1-13.5-7.3-20.3-2.7-8.4-4.2-17.3-6.2-25.9a2.17,2.17,0,0,1,.7-1.9c4.6,14,7,28.6,12.7,42.2V315Z"/><path class="cls-4" d="M186,225.1c-7.8,0-15.6,0-23.3-.1-1.5,0-3.8,1.2-4.2-1.7a22.11,22.11,0,0,1,2.5-.5c6.6,0,13.2-.3,19.8.2a4.55,4.55,0,0,0,4.3-1.9h0c1.2-10.5.1-21.1.6-31.6.1-2.7-.9-5.5.8-8.1C186.8,195.9,187.5,210.5,186,225.1Z"/><path class="cls-1" d="M148.9,129.1c-1.2.7-.5,2.2-1.4,3.2-1.2-3.1-2.6-4.5-4.1.4l-.9-4.9-.7,4.5a40.41,40.41,0,0,1,1.3-16.2C145.6,120.1,147.9,124.3,148.9,129.1Z"/><path class="cls-8" d="M38,287.2l6-.1h0a1.8,1.8,0,0,1-.2,1c-.3,2.1-.6,4-3.1,4.8-1.1.4.4.8.2,1.3a24,24,0,0,1-.5,11.6l-.5.5c-4.5-3.2-4-7.8-3.5-12.4A38.44,38.44,0,0,1,38,287.2Z"/><path class="cls-1" d="M123.8,99.1c-3.1,3.8-7.5,1.8-11.2,2-.8,0-2.5-3.2-2.4-4.9.1-1.4-1.6-1.7-1.1-2.8C114,95,119.2,96.3,123.8,99.1Z"/><path class="cls-1" d="M97,83.1l9.9.1.3,9.5c-2.4,1.4-2-.5-1.6-1.6a6.19,6.19,0,0,0-.4-5.6,12.78,12.78,0,0,1-1.6,6.9c-2.7-2.7-.9-8.6-6.6-8.6-.3-.2-.3-.4-.2-.5A.22.22,0,0,1,97,83.1Z"/><path class="cls-9" d="M186.4,181.3c-.1,11.5-.2,23-.4,34.6,0,1.7.6,3.7-1,5.1V184.9c0-1.7-.9-3.7,1.2-4.9C186.3,180.5,186.3,180.9,186.4,181.3Z"/><path class="cls-10" d="M105,61.1h1.9c0,5.7,0,11.3-.1,17H105l-.6-.7a59,59,0,0,1,0-15.7Z"/><path class="cls-11" d="M44.2,301l-.4,8.1c-2.1,0-3.5-.8-4-2.9l.2-.2a1.39,1.39,0,0,1,1-.5c1.4-.8.6-2.1.7-3.2,0-.8-.1-1.5-.1-2.3.7-2.4-1.5-5.8,2.6-6.9A21,21,0,0,1,44.2,301Z"/><path class="cls-12" d="M70.7,94.9c1.2,1.1.9,3.6,3.3,3.8-2.3-.2-5.5,2-5.9-2.6Z"/><path class="cls-13" d="M78.3,83a2.2,2.2,0,0,0,.8-.1c1.2-.3,2.3-.6,1.9,1.3-2-.4-2,1-2.1,2.4s.5,3-.7,4.2C78.2,88.2,78.2,85.6,78.3,83Z"/><path class="cls-14" d="M84,140l-13,.2c-2.1-.1-2.1-1.5-2.1-3.1.1-7.6-.2-15.2.1-22.8.3-6.7,4.2-11.2,9.9-14.3,3.7-2.4,7.6-1.6,11.5-.6,1.5,1.5,0,2.2-.9,2.4-4.4.8-4.3,3.7-3.8,7.1,1.2,8.9.7,17.9.2,26.8C86,137.4,85.9,139.2,84,140Z"/><path class="cls-15" d="M44,287.1V141.7c2.8.3,2,2,2,3.1q.15,68.4.1,136.9c0,2.1-.4,4-2.1,5.4Z"/><path class="cls-16" d="M81,84.2c-.2-1-1.1-1.2-1.9-1.3l15.9-3c1-.2,1.4.2,1.1,1.2l-1.2,1.4,2.1.6c0,.2-.1.5-.1.7-2.4-.3-4,1.4-6,2.2-2.1,1.6-4.4,2.6-7,1.1Z"/><path class="cls-17" d="M83.9,87.1l7-1.1a2.77,2.77,0,0,0-.1.9c-.3,3.1-3,5.6-2.4,8.9a2.73,2.73,0,0,1-1.2.9,4,4,0,0,1-1.5.3,3.36,3.36,0,0,1-2.8-1.1C84.8,93.2,83.3,90,83.9,87.1Z"/><path class="cls-18" d="M86,96.1h1a5.12,5.12,0,0,0,5.8-.2c1.4,1.3,1.3,2.7.4,4.2a2,2,0,0,1-2.3,0l-12-.1c-.4-1-1.7-1.9-.4-3.2C81,95.7,83.8,97.9,86,96.1Z"/><path class="cls-19" d="M44.2,301c-.1-2.7-.2-5.3-.3-7.9a2.73,2.73,0,0,1-.6-1.2,2.14,2.14,0,0,1,.9-1.8A15.72,15.72,0,0,1,44.2,301Z"/><path class="cls-20" d="M44.2,290c-.1.7-.2,1.3-.3,2a5.74,5.74,0,0,1-2.7,1.6,1.52,1.52,0,0,1-1.1-.6c1.3-1.7,2.5-3.3,3.8-5Z"/><path class="cls-21" d="M86,96.1c-2.1,3.5-5-.1-7.4.9,1.1-1.7,2.8-.8,4.3-1Z"/><path class="cls-1" d="M93,100c-.3-1.3,1.1-3-1-3.8-1.3.4-2.6.9-3.8-.4-.5-3.4-.1-6.5,2.6-8.9,3.3,1.3,2.4,3.7.7,5.3-.6.6-2.6.1-1.9,1.9s1.9-.4,2.9-.2a3.3,3.3,0,0,0,1.4,0h0l4,3c.5.5.5,1.3,1,1.8a5.8,5.8,0,0,1,1,1.2c5-.6,6.9,3.6,9.1,6.5,1.7,2.1-.6,3.7-3.1,3.8.3,1.9,1.7,1.5,2.7,1.9,1.8.6,2.8,1.9,1,3.2-2.2,1.6-1.8,3.8-1.8,5.9.1,7.6.4,15.2.4,22.9,0,2,1.3,4.6-1.5,5.7-2.6,1-4.2-1.1-5.9-2.7v-1a18.49,18.49,0,0,0,1.6-8.7c-.1-5.5-.2-11,0-16.5.3-7.3-1.8-13.4-7.6-18.1A5.92,5.92,0,0,1,93,100Z"/><polygon class="cls-1" points="106.7 110.1 106.9 111.7 106.6 111.5 106.3 111.3 106.2 111.1 106.1 111 106.1 110.9 106 110.7 106 110.6 105.9 110.4 105.9 110.2 106.7 110.1"/><polygon class="cls-1" points="106.2 110.7 107.1 112 106.8 112 106.4 111.9 106.3 111.8 106.1 111.7 106 111.6 105.9 111.5 105.8 111.4 105.7 111.3 105.6 111.1 106.2 110.7"/><path class="cls-22" d="M114,225.1l-5,.3a3.36,3.36,0,0,1-1-1.6c-.7-15.1-.2-30.2-.3-45.3a5.58,5.58,0,0,1,1-3.3c1.5-1.2,3.1-.7,4.6-.2,1.5.9,1.6,2.3,1.7,3.9.8,14,.2,28.1.4,42.2A5.78,5.78,0,0,1,114,225.1Z"/><path class="cls-23" d="M103,177c0-2,.3-3.7,3-3,1.5,1.6,1.4,3.7,1.4,5.6v39.8c0,2,.3,4-1.4,5.6a2,2,0,0,1-1-2c-2.2-2-2.4-4.6-2.4-7.3,0-11,.2-22-.1-32.9-.1-.6-.2-1.1-.3-1.7A4.94,4.94,0,0,1,103,177Z"/><path class="cls-4" d="M133.1,224a2,2,0,0,1,.9,1.9c-6.2-1.5-12.5-.1-18.8-.8-1.2-1.1-.7-2.5-.7-3.8,0-15.2-.1-30.5,0-45.7.6-1.2,1.4-1.1,2.4-.6v1.1a2.52,2.52,0,0,1-.9,2v3.1c.9,13,.1,26,.4,39,.7,3,3.1,2.3,5.1,2.5C125.5,223.1,129.6,221.5,133.1,224Z"/><path class="cls-24" d="M125,328h-1c-3.1-9.2-3.4-18.7-4.1-28.2l1.9-.2C122.9,309,123.9,318.5,125,328Z"/><path class="cls-25" d="M106,225V174h1a5.07,5.07,0,0,1,.9,1.6c.4,15.9-.1,31.9.3,47.8a5.07,5.07,0,0,0,.9,1.6v.3c-.2.8-.4,1.5-1.4,1.5C106.4,226.9,106.1,226,106,225Z"/><path class="cls-26" d="M115.2,175v50.1H114V181.3c0-2.2.2-4.3-1-6.3A1.8,1.8,0,0,1,115.2,175Z"/><path class="cls-27" d="M103,181c1.6,1.5,1,3.4,1,5.2.1,9.6.1,19.3,0,29a26.37,26.37,0,0,0,1,7.9,2,2,0,0,1-2-1,5.47,5.47,0,0,1-.9-2.8c-.1-12-.1-24,0-35.9A3.24,3.24,0,0,1,103,181Z"/><path class="cls-28" d="M103,181v41l-1-1c-1.1-8.6-.2-17.2-.4-25.9q-.15-6.75,0-13.5a.89.89,0,0,1,1-.8C102.7,180.9,102.9,180.9,103,181Z"/><path class="cls-29" d="M102,181v40c-1.6-1.5-1-3.4-1-5.2-.1-12,0-23.9,0-35.8C101.9,179.8,102.4,180,102,181Z"/><path class="cls-1" d="M94,94c0-1.4.9-2,2-2.5a1.78,1.78,0,0,1,2.4.6c0,.1.1.1.1.2a2.26,2.26,0,0,1,.1,1.8c-.5.9-1.4.3-2.2.1S94.8,94.1,94,94Z"/><path class="cls-1" d="M115.2,175H109a1.13,1.13,0,0,1-2,0v-.9c3.4-1.3,6.8-.3,10.1.1l-.1.8Z"/><path class="cls-1" d="M102,181l-1-1c0-1.5,0-2.9,2-3v4Z"/><path class="cls-30" d="M100,100H98c-.6-1.9,1.2-2.1,2-3C101.6,98,100.3,99,100,100Z"/><path class="cls-31" d="M100,97l-2,3c-1.6-1-.3-2,0-3Z"/><path class="cls-32" d="M93,100c7.3,3.6,10.8,9.6,10.9,17.6s0,16.3.1,24.4c0,2.3-.3,3.9-3,4-3.4-.1-6.9-.6-10.3-.2-4.6.5-7.1-.8-6.7-5.8a112.67,112.67,0,0,0,.6-29c-.7-8.6-1.4-8.6,6.3-10.8Z"/><path class="cls-4" d="M116.1,178a1.81,1.81,0,0,1,.9-2h47.2l.1.9L160,178a4.25,4.25,0,0,1-3.2,1h-36a5.76,5.76,0,0,1-3.8-1Z"/><path class="cls-4" d="M117,178h43c0,1.1.2,2.3-1,3a2.32,2.32,0,0,0-1.9-1.4c-10.7.1-21.4-.7-32.1.4C122.4,179.2,118.9,182,117,178Z"/><path class="cls-4" d="M116.1,221.1v-40c1.5,1.5.9,3.4.9,5.2.1,11.6,0,23.2,0,34.8l-.4.4Z"/><path class="cls-9" d="M183,221V182.3h1V221a.63.63,0,0,1-.9.1Z"/><path class="cls-9" d="M125,180c1.1-1.4,2.7-1,4.2-1h25.4c1.7,0,3.9-.8,4.4,2-2.8-1.6-5.8-.9-8.7-1Z"/><path class="cls-9" d="M183,221h2c.2,2.9-1.6,3-3.8,3H160c.1-2.9,2.7-1.5,4-2.3a3.81,3.81,0,0,1,1.5.1c4.9.4,9.8.1,14.7.2h.8A2,2,0,0,0,183,221Z"/><path class="cls-4" d="M165,222h-1a5.72,5.72,0,0,1-5.1,0,3.4,3.4,0,0,1,.1-1h17.4c1.6,0,3.4-.5,4.6,1h0A53.63,53.63,0,0,1,165,222Z"/><path class="cls-4" d="M134,219c-.1,1.4.4,2.9-.9,4h-.8c-5-.3-10.1.6-15-.6a1,1,0,0,1-.3-1.4v-.1h0c4.1,0,8.2-.1,12.3,0A5,5,0,0,0,134,219Z"/><path class="cls-33" d="M137.9,213c1.8.2,2.3,1,1.1,2.5s-2.3,3.1-3.4,4.7c-.8-.6-.5-1.4-.6-2.2A9.77,9.77,0,0,1,137.9,213Z"/><path class="cls-10" d="M105,78.1l-.8,3.6h-1c0-7.1-.3-14.2.2-21.3.2-3,3.3-3.5,6.1-3.7-.1,3-4.5,1.6-4.4,4.5h0a56.3,56.3,0,0,0-.1,16.9Z"/><path class="cls-34" d="M85.9,66c-.2,2.1-2.6,2.9-5,3.6-1,.3-2-.2-1.7-1,1-2.5,3.8-3.2,5.5-5.1C85.3,63,86.1,64.2,85.9,66Z"/><path class="cls-35" d="M72.1,56.8c-4,.2-5.7-1.6-6.8-4.4a1.58,1.58,0,0,1,.6-2.1,1.17,1.17,0,0,1,1.7.4c.1.1.1.3.2.5C68.2,53.6,70.6,54.3,72.1,56.8Z"/><path class="cls-36" d="M96.1,81.1,95,80c.9-1.6,2.4-2.2,4.6-2.9A8,8,0,0,1,96.1,81.1Z"/><path class="cls-37" d="M67.9,71.6c-3-1.2-2.2-2.9-1.3-5.2C67.1,68.3,67.4,69.7,67.9,71.6Z"/><path class="cls-4" d="M117,221v1c5.2,1.5,10.7-.4,15.9,1l.1.1v.9H119.2c-2.1,0-3.6-.4-3.2-3Z"/><path class="cls-9" d="M158.9,222H164c-.9,1.6-3.1.4-4,2l-1.6-.9Z"/><path class="cls-33" d="M137,224.4a6.22,6.22,0,0,1-.1-1.8,1.59,1.59,0,0,1,.8-1c.6-.2.8.3.6.8C137.9,223,137.5,223.7,137,224.4Z"/><path class="cls-38" d="M40,293h1c2.2,2.3-.2,5.7,2,8v2c-.9.9-.3,2.7-2,3H40Z"/><path class="cls-39" d="M105,78a30.7,30.7,0,0,1,0-17Z"/><path class="cls-40" d="M43,301c-4-1.8-1.1-5.4-2-8l2.8-1v1C42.2,295.6,43.4,298.4,43,301Z"/><path class="cls-41" d="M41,306c.7-1,1.3-2,2-3-.3,1.4.8,3.1-.8,4.2A12.52,12.52,0,0,1,41,306Z"/><path class="cls-21" d="M88.2,95.9l3.8.4c-.1.7-.3,2.2-.5,1.9-1.3-1.3-4.3,1.3-4.5-2Z"/><path class="cls-4" d="M108,175.1a1.7,1.7,0,0,1,1,0v50l-.5.1-.5-.1c-1.1-3.7-.4-7.5-.5-11.3-.1-11.2,0-22.5,0-33.8C107.6,178.3,107.1,176.6,108,175.1Z"/><path class="cls-26" d="M110.4,218.7V179.9h.6v39Z"/><path class="cls-9" d="M108,175.1V225c-1.9-1.4-1-3.4-1-5.1-.1-15,0-29.9-.1-44.9Z"/><path class="cls-9" d="M165,222h16A27.27,27.27,0,0,1,165,222Z"/><path class="cls-9" d="M133,223c-5.3-.5-10.7,1.1-15.9-1C122.3,222.6,127.8,220.9,133,223Z"/><path class="cls-21" d="M158.4,223.2a4.5,4.5,0,0,0,1.4,1.9l.2,1.4"/><polygon class="cls-1" points="142.3 127.6 144.4 129.5 143.1 129.9 142 130 141.5 129.9 141.1 129.9 140.8 129.8 140.5 129.7 140.2 129.5 140 129.4 139.6 129.1 142.3 127.6"/></svg>